<?xml version="1.0" encoding="UTF-8" standalone="no"?>
<!-- Created with Inkscape (http://www.inkscape.org/) -->

<svg
   xmlns:dc="http://purl.org/dc/elements/1.1/"
   xmlns:cc="http://creativecommons.org/ns#"
   xmlns:rdf="http://www.w3.org/1999/02/22-rdf-syntax-ns#"
   xmlns:svg="http://www.w3.org/2000/svg"
   xmlns="http://www.w3.org/2000/svg"
   xmlns:xlink="http://www.w3.org/1999/xlink"
   xmlns:sodipodi="http://sodipodi.sourceforge.net/DTD/sodipodi-0.dtd"
   xmlns:inkscape="http://www.inkscape.org/namespaces/inkscape"
   width="121.16136mm"
   height="85.620743mm"
   viewBox="0 0 429.31191 303.38058"
   id="svg2"
   version="1.1"
   inkscape:version="0.91 r13725"
   sodipodi:docname="surfing-js.svg"
   inkscape:export-filename="F:\dev\graphics\gophers\svg-rasterized\surfing-js.png"
   inkscape:export-xdpi="134.17"
   inkscape:export-ydpi="134.17">
  <defs
     id="defs4">
    <linearGradient
       inkscape:collect="always"
       id="linearGradient4289">
      <stop
         style="stop-color:#00dce2;stop-opacity:1;"
         offset="0"
         id="stop4291" />
      <stop
         style="stop-color:#97f0ff;stop-opacity:1"
         offset="1"
         id="stop4293" />
    </linearGradient>
    <linearGradient
       inkscape:collect="always"
       xlink:href="#linearGradient4289"
       id="linearGradient4295"
       x1="431.3338"
       y1="531.39313"
       x2="400.66592"
       y2="386.12817"
       gradientUnits="userSpaceOnUse"
       gradientTransform="translate(129.45303,193.73997)" />
  </defs>
  <sodipodi:namedview
     id="base"
     pagecolor="#ffffff"
     bordercolor="#666666"
     borderopacity="1.0"
     inkscape:pageopacity="0.0"
     inkscape:pageshadow="2"
     inkscape:zoom="1"
     inkscape:cx="240.37748"
     inkscape:cy="54.235016"
     inkscape:document-units="px"
     inkscape:current-layer="layer5"
     showgrid="false"
     inkscape:window-width="1920"
     inkscape:window-height="1028"
     inkscape:window-x="1912"
     inkscape:window-y="-8"
     inkscape:window-maximized="1"
     showguides="false"
     fit-margin-top="0"
     fit-margin-left="0"
     fit-margin-right="0"
     fit-margin-bottom="0" />
  <metadata
     id="metadata7">
    <rdf:RDF>
      <cc:Work
         rdf:about="">
        <dc:format>image/svg+xml</dc:format>
        <dc:type
           rdf:resource="http://purl.org/dc/dcmitype/StillImage" />
        <dc:title></dc:title>
      </cc:Work>
    </rdf:RDF>
  </metadata>
  <g
     inkscape:groupmode="layer"
     id="layer6"
     inkscape:label="water"
     transform="translate(-129.45303,-193.73997)">
    <path
       style="fill:url(#linearGradient4295);fill-opacity:1;fill-rule:evenodd;stroke:none;stroke-width:1px;stroke-linecap:butt;stroke-linejoin:miter;stroke-opacity:1"
       d="m 132.04163,433.46271 c 23.83971,-32.31562 103.54234,-15.62414 130.05635,0.6066 89.59503,44.01946 169.11278,-19.05037 186.40202,-33.70711 42.5191,-37.92107 60.76259,-37.33059 75.65481,-30.1241 4.45055,2.15366 10.79479,11.46502 14.40769,12.4991 98.10479,111.17073 -186.00633,131.62933 -317.79746,102.34326 -60.45211,-13.43341 -102.37596,-33.11121 -88.72341,-51.61775 z"
       id="path4287"
       inkscape:connector-curvature="0"
       sodipodi:nodetypes="sccscss" />
  </g>
  <g
     inkscape:groupmode="layer"
     id="layer5"
     inkscape:label="board back"
     transform="translate(-129.45303,-193.73997)">
    <path
       style="display:inline;fill:#388e3c;fill-opacity:1;fill-rule:evenodd;stroke:#000000;stroke-width:2;stroke-linecap:butt;stroke-linejoin:round;stroke-miterlimit:4;stroke-dasharray:none;stroke-opacity:1"
       d="m 198.7904,380.42903 c 0.25809,-2.63099 4.09727,-13.36941 31.37399,-0.9521 87.58706,39.87267 172.37344,28.76155 238.08524,1.51305 -35.44555,31.73992 -105.09012,70.96031 -151.49963,82.62222 -33.17285,-0.25002 -69.22045,-8.33225 -91.92216,-33.7906 -10.3767,-11.63672 -27.08255,-38.73851 -26.03744,-49.39257 z"
       id="path4159"
       inkscape:connector-curvature="0"
       sodipodi:nodetypes="ssccss" />
    <ellipse
       style="opacity:1;fill:#1b5e2f;fill-opacity:0.94117647;stroke:none;stroke-width:2;stroke-linecap:round;stroke-linejoin:round;stroke-miterlimit:4;stroke-dasharray:none;stroke-dashoffset:0;stroke-opacity:1"
       id="path4284"
       cx="280.87637"
       cy="474.38382"
       rx="83.288368"
       ry="22.619684"
       transform="matrix(0.98520272,-0.17139312,0.13103475,0.99137778,0,0)" />
  </g>
  <g
     inkscape:groupmode="layer"
     id="layer3"
     inkscape:label="gopher"
     transform="translate(-129.45303,-193.73997)"
     sodipodi:insensitive="true">
    <path
       style="display:inline;opacity:1;fill:#8ed4fe;fill-opacity:1;fill-rule:evenodd;stroke:#000000;stroke-width:2.36734128;stroke-linecap:round;stroke-linejoin:miter;stroke-miterlimit:4;stroke-dasharray:none;stroke-opacity:1"
       d="m 369.5092,223.97146 c 8.70159,-7.65557 16.28692,-10.65856 23.07967,-7.25757 4.97464,2.49072 3.8793,9.20637 0.18568,14.34944 -4.40361,6.13167 -8.48975,9.32099 -8.7434,9.31074"
       id="path4191"
       inkscape:connector-curvature="0"
       sodipodi:nodetypes="cssc"
       inkscape:export-filename="F:\C-Gopher.png"
       inkscape:export-xdpi="210.08769"
       inkscape:export-ydpi="210.08769" />
    <path
       style="display:inline;opacity:1;fill:#000000;fill-opacity:1;fill-rule:evenodd;stroke:#000000;stroke-width:0.39455688px;stroke-linecap:butt;stroke-linejoin:miter;stroke-opacity:1"
       d="m 377.17602,235.83381 c 0.0393,0.82372 4.24935,3.42187 5.45713,3.096 1.76689,-0.47671 8.64143,-9.05634 8.60055,-10.83044 -0.11459,-4.97101 -14.08317,7.20081 -14.05768,7.73444 z"
       id="path4201"
       inkscape:connector-curvature="0"
       sodipodi:nodetypes="ssss"
       inkscape:export-filename="F:\C-Gopher.png"
       inkscape:export-xdpi="210.08769"
       inkscape:export-ydpi="210.08769" />
    <path
       sodipodi:nodetypes="ccccc"
       inkscape:connector-curvature="0"
       id="path4251"
       d="m 388.09226,315.2492 c 1.49571,-1.40459 4.86627,-1.9416 7.21199,-3.03825 4.64492,-2.17612 7.61104,-5.53269 6.6251,-7.49725 -0.98527,-1.96513 -5.55031,-1.79401 -10.19585,0.38219 -2.24303,1.05203 -4.38565,1.92955 -6.40835,2.1379"
       style="display:inline;opacity:1;fill:#8ed4fd;fill-opacity:1;stroke:#000000;stroke-width:2;stroke-linecap:round;stroke-linejoin:bevel;stroke-miterlimit:4;stroke-dasharray:none;stroke-dashoffset:0;stroke-opacity:1" />
    <path
       style="fill:#8ed4fd;fill-opacity:1;fill-rule:evenodd;stroke:#000000;stroke-width:4;stroke-linecap:butt;stroke-linejoin:miter;stroke-miterlimit:4;stroke-dasharray:none;stroke-opacity:1"
       d="m 298.5481,433.97311 c -13.21919,-2.14324 -19.67913,-12.58085 -26.60671,-23.44515 -39.79944,-62.41617 -31.2814,-150.25148 -11.38378,-173.74419 28.95072,-34.18152 95.75894,-33.50993 125.69239,5.32843 23.50633,26.83283 -1.18688,59.97242 -0.60355,88.63909 C 427.86396,348.35484 422,405.1122 422,405.1122 c 0,0 -29.16421,-3.51472 -46.41421,0.48528 -13.46876,3.12319 -29.73182,10.11303 -48.81044,19.56333 -9.17029,4.54236 -16.53921,10.70729 -28.22725,8.8123 z"
       id="path4235"
       inkscape:connector-curvature="0"
       sodipodi:nodetypes="ssscccsss" />
    <path
       style="display:inline;opacity:1;fill:#8ed4fd;fill-opacity:1;stroke:#000000;stroke-width:4;stroke-linecap:round;stroke-linejoin:bevel;stroke-miterlimit:4;stroke-dasharray:none;stroke-dashoffset:0;stroke-opacity:1"
       d="m 250.54937,329.78787 c -2.01484,1.9022 -6.56468,2.63951 -9.72851,4.1289 -6.26491,2.95542 -10.25844,7.49896 -8.91992,10.14844 1.33762,2.65027 7.50185,2.40279 13.76758,-0.55273 3.02532,-1.42878 5.91567,-2.62152 8.64648,-2.91016"
       id="path4183"
       inkscape:connector-curvature="0"
       sodipodi:nodetypes="ccccc" />
    <path
       style="fill:none;fill-rule:evenodd;stroke:#000000;stroke-width:1px;stroke-linecap:butt;stroke-linejoin:miter;stroke-opacity:1"
       d="m 391.3836,334.29527 c -9.82295,-5.14566 -22.27386,-2.47488 -22.27386,-2.47488"
       id="path4253"
       inkscape:connector-curvature="0"
       sodipodi:nodetypes="cc" />
    <path
       sodipodi:nodetypes="csc"
       inkscape:connector-curvature="0"
       id="path4255"
       d="m 286.83033,422.58661 c 6.99565,10.91962 1.84084,23.66997 8.24051,25.19347 5.23572,1.24641 10.82844,-11.01538 16.59576,-20.23475"
       style="display:inline;opacity:1;fill:#8ed4fd;fill-opacity:1;stroke:#000000;stroke-width:4;stroke-linecap:round;stroke-linejoin:bevel;stroke-miterlimit:4;stroke-dasharray:none;stroke-dashoffset:0;stroke-opacity:1" />
    <circle
       style="opacity:1;fill:#ffffff;fill-opacity:1;stroke:#000000;stroke-width:3;stroke-linecap:round;stroke-linejoin:round;stroke-miterlimit:4;stroke-dasharray:none;stroke-dashoffset:0;stroke-opacity:1"
       id="path4212"
       cx="312.05698"
       cy="259.30524"
       r="33.4146" />
    <ellipse
       cy="275.77502"
       cx="383.2565"
       id="circle4214"
       style="opacity:1;fill:#ffffff;fill-opacity:1;stroke:#000000;stroke-width:2.80603194;stroke-linecap:round;stroke-linejoin:round;stroke-miterlimit:4;stroke-dasharray:none;stroke-dashoffset:0;stroke-opacity:1"
       rx="23.076626"
       ry="24.170307" />
    <g
       id="g4257"
       transform="translate(4.3284271,0.4571068)">
      <path
         inkscape:export-ydpi="210.08769"
         inkscape:export-xdpi="210.08769"
         inkscape:export-filename="F:\C-Gopher.png"
         sodipodi:nodetypes="cccscc"
         inkscape:connector-curvature="0"
         id="path4224"
         d="m 335.72791,298.82062 c -1.10745,3.63148 -0.69833,12.2121 -0.69833,12.2121 l 10.47516,3.15242 c 0,0 4.85288,-5.71445 5.44452,-7.78161 0.59168,-2.06713 0.3377,-3.2066 0.3377,-3.2066 z"
         style="display:inline;opacity:1;fill:#ffffff;fill-opacity:1;fill-rule:evenodd;stroke:#000000;stroke-width:2.56399131;stroke-linecap:butt;stroke-linejoin:miter;stroke-miterlimit:4;stroke-dasharray:none;stroke-opacity:1" />
      <path
         inkscape:export-ydpi="210.08769"
         inkscape:export-xdpi="210.08769"
         inkscape:export-filename="F:\C-Gopher.png"
         sodipodi:nodetypes="ssss"
         inkscape:connector-curvature="0"
         id="path4222"
         d="m 327.71579,292.84858 c -7.61561,7.89636 4.59118,8.08453 14.16297,10.19598 7.57686,1.67137 16.83011,10.15944 19.09861,2.50827 3.92037,-13.22268 -23.49485,-22.83102 -33.26158,-12.70425 z"
         style="display:inline;opacity:1;fill:#d3b78d;fill-opacity:1;fill-rule:evenodd;stroke:#000000;stroke-width:2.56399131;stroke-linecap:butt;stroke-linejoin:miter;stroke-miterlimit:4;stroke-dasharray:none;stroke-opacity:1" />
      <ellipse
         inkscape:export-ydpi="210.08769"
         inkscape:export-xdpi="210.08769"
         inkscape:export-filename="F:\C-Gopher.png"
         transform="matrix(0.9497031,0.31315174,0.31315174,-0.9497031,0,0)"
         ry="6.4980431"
         rx="11.350795"
         cy="-167.76379"
         cx="420.1701"
         id="path4220"
         style="display:inline;opacity:1;fill:#000000;fill-opacity:1;stroke:#000000;stroke-width:1.92299342;stroke-linecap:round;stroke-linejoin:bevel;stroke-miterlimit:4;stroke-dasharray:none;stroke-dashoffset:0;stroke-opacity:1" />
    </g>
    <circle
       style="opacity:1;fill:#000000;fill-opacity:1;stroke:#000000;stroke-width:2.28475904;stroke-linecap:round;stroke-linejoin:round;stroke-miterlimit:4;stroke-dasharray:none;stroke-dashoffset:0;stroke-opacity:1"
       id="path4231"
       cx="324.33755"
       cy="267.0163"
       r="8.8534412" />
    <circle
       r="6.7808099"
       cy="283.75888"
       cx="392.33401"
       id="circle4233"
       style="opacity:1;fill:#000000;fill-opacity:1;stroke:#000000;stroke-width:1.74988639;stroke-linecap:round;stroke-linejoin:round;stroke-miterlimit:4;stroke-dasharray:none;stroke-dashoffset:0;stroke-opacity:1" />
    <path
       style="display:inline;opacity:1;fill:#8ed4fe;fill-opacity:1;fill-rule:evenodd;stroke:#000000;stroke-width:2.91332936;stroke-linecap:round;stroke-linejoin:miter;stroke-miterlimit:4;stroke-dasharray:none;stroke-opacity:1"
       d="m 278.19769,228.79463 c -3.90156,-10.60895 -2.25892,-20.22855 2.5085,-28.16278 3.34565,-5.56805 7.80324,-6.18771 11.59575,-4.82156 6.3323,2.28107 9.1159,9.46446 12.68017,20.66394"
       id="path4189"
       inkscape:connector-curvature="0"
       sodipodi:nodetypes="cssc"
       inkscape:export-filename="F:\C-Gopher.png"
       inkscape:export-xdpi="210.08769"
       inkscape:export-ydpi="210.08769" />
    <path
       sodipodi:nodetypes="ssss"
       inkscape:connector-curvature="0"
       id="path4212-4"
       d="m 288.66496,223.71799 c 0.78826,0.63922 5.95007,-1.75896 7.31549,-2.47008 2.72013,-1.41667 0.13056,-13.61893 -2.11014,-15.23773 -4.9601,-3.58345 -5.71599,17.2937 -5.20535,17.70781 z"
       style="display:inline;opacity:1;fill:#000000;fill-opacity:1;fill-rule:evenodd;stroke:#000000;stroke-width:0.4855549px;stroke-linecap:butt;stroke-linejoin:miter;stroke-opacity:1"
       inkscape:export-filename="F:\C-Gopher.png"
       inkscape:export-xdpi="210.08769"
       inkscape:export-ydpi="210.08769" />
  </g>
  <g
     inkscape:groupmode="layer"
     id="layer2"
     inkscape:label="board"
     style="display:inline"
     transform="translate(-129.45303,-193.73997)">
    <path
       style="fill:#4caf50;fill-opacity:1;fill-rule:evenodd;stroke:#000000;stroke-width:2;stroke-linecap:butt;stroke-linejoin:round;stroke-miterlimit:4;stroke-dasharray:none;stroke-opacity:1"
       d="m 199.50538,378.71575 c -3.00355,5.85609 -4.3397,9.43062 -3.46266,28.28214 21.66777,47.76999 122.45022,97.48537 235.38585,8.5786 16.78571,-13.21429 43.01355,-41.15656 70.71429,-46.42857 20.43968,-3.89009 35.55187,12.63729 35.55187,12.63729 l -9.16997,-19.11611 c -10.61241,-21.21673 -55.7985,-16.39216 -82.11055,2.94329 -35.08701,25.78374 -70.29979,86.10442 -142.84278,83.53553 -79.71358,-2.82281 -108.8202,-63.39239 -104.06605,-70.43217 z"
       id="path4149"
       inkscape:connector-curvature="0"
       sodipodi:nodetypes="ccssccssc" />
    <path
       style="font-style:normal;font-variant:normal;font-weight:bold;font-stretch:normal;font-size:82.92100525px;line-height:125%;font-family:'Berlin Sans FB Demi';-inkscape-font-specification:'Berlin Sans FB Demi, Bold';text-align:start;letter-spacing:0px;word-spacing:0px;writing-mode:lr-tb;text-anchor:start;fill:#00444f;fill-opacity:1;stroke:none;stroke-width:1px;stroke-linecap:butt;stroke-linejoin:miter;stroke-opacity:1"
       d="m 526.76928,391.14531 c -0.003,-0.15342 -0.36771,0.009 -0.64505,0.031 -5.02204,0.71564 -9.10622,2.35969 -12.2304,4.92647 -3.83459,3.10579 -5.30538,7.03284 -4.37296,11.76091 0.64201,3.25539 2.10185,6.23576 4.29596,8.96014 0.31781,0.39293 2.40508,2.34053 5.51193,6.0202 1.79051,2.1644 2.53503,4.16038 2.39137,5.94895 -0.22542,2.80666 -1.81951,4.93257 -4.82891,6.39206 -1.35783,0.64558 -4.06833,1.43792 -8.44621,2.44865 -0.45092,0.093 -0.70195,0.29363 -0.75537,0.60259 -0.15055,0.87073 0.59466,3.26041 1.96634,7.23116 1.37765,3.94241 2.31365,5.92802 2.93541,5.9267 0.13517,-2.9e-4 0.31242,-0.0133 0.53388,-0.0419 6.00033,-0.9991 11.0763,-3.23886 15.28731,-6.73246 4.79588,-3.95679 7.31727,-8.70107 7.70044,-14.27038 0.20574,-2.99042 -0.45978,-6.01577 -2.06758,-9.05765 -0.13505,-0.22228 -1.50033,-2.59019 -4.88585,-6.91592 -1.91432,-2.40744 -3.11864,-4.37672 -3.40311,-5.9563 -0.3171,-1.76082 0.19492,-3.10555 1.55701,-4.03973 1.12436,-0.81302 2.54123,-1.19169 4.22837,-1.13098 0.23431,0.008 0.58025,0.0592 1.0365,0.15371 0.45625,0.0944 0.77509,0.14513 0.96116,0.15223 0.41869,0.016 0.59515,-0.19652 0.5265,-0.63931 -0.0162,-0.1042 -0.073,-0.2371 -0.16759,-0.39591 -3.00137,-5.05495 -5.13442,-8.50258 -6.07452,-10.41951 -0.32055,-0.6304 -1.04684,-0.57178 -1.05463,-0.95475 z m -45.74864,1.92377 c -0.88347,0.004 -1.31192,0.24609 -1.29001,0.7288 0.006,0.13407 0.0439,0.33516 0.11262,0.60278 1.37494,7.57622 3.75678,17.94187 3.56214,31.85954 -0.0841,6.01114 -0.93424,10.41597 -1.99717,13.09873 -0.79343,1.96407 -1.82389,3.60234 -3.04824,4.90611 -0.62769,0.66581 -2.08981,1.90704 -4.19022,3.67698 -0.31253,0.27227 -0.46994,0.52996 -0.47681,0.77367 -0.006,0.21663 0.13653,0.48796 0.42746,0.81254 2.23363,2.05518 3.91951,3.56925 5.06001,4.54268 1.93881,2.21984 3.35358,3.88531 4.2612,4.99651 0.28512,0.35233 0.57687,0.5293 0.87655,0.52865 0.32693,-7.1e-4 0.75728,-0.23157 1.30705,-0.69739 4.73169,-3.78267 9.12547,-9.18421 12.53745,-16.05937 1.90172,-3.8755 3.54818,-9.34262 3.82732,-16.15522 0.1552,-3.78779 0.11274,-9.38988 -0.97461,-16.61541 -1.09148,-7.2516 -2.33232,-12.58793 -2.95369,-16.17955 -0.11704,-0.67667 -0.58585,-1.01027 -1.4166,-0.99857 -0.8594,0.0121 -2.12991,0.0693 -3.81248,0.17215 -1.68256,0.10287 -2.95301,0.16142 -3.81024,0.17254 -0.91437,0.0119 -2.27739,-0.0118 -4.05956,-0.0746 -1.754,-0.0631 -3.05872,-0.0955 -3.94219,-0.0915 z"
       id="path4206"
       inkscape:connector-curvature="0"
       sodipodi:nodetypes="sccsccsccscsccsccscssssccssccscccscccsccscsssscscc" />
  </g>
</svg>
