<?xml version="1.0" encoding="UTF-8" standalone="no"?>
<!DOCTYPE svg PUBLIC "-//W3C//DTD SVG 1.1//EN" "http://www.w3.org/Graphics/SVG/1.1/DTD/svg11.dtd">
<svg width="100%" height="100%" viewBox="0 0 700 700" version="1.1" xmlns="http://www.w3.org/2000/svg" xmlns:xlink="http://www.w3.org/1999/xlink" xml:space="preserve" xmlns:serif="http://www.serif.com/" style="fill-rule:evenodd;clip-rule:evenodd;stroke-linejoin:round;stroke-miterlimit:2;">
    <g transform="matrix(1,0,0,1,-144.362,-124.894)">
        <path d="M289.877,550.014C263.99,579.505 256.781,657.165 281.685,656.182C306.588,655.199 296.102,622.431 296.102,622.431" style="fill:rgb(223,214,184);"/>
        <path d="M288.047,548.407C279.345,557.689 272.152,571.84 267.742,587.085C264.987,596.609 263.479,606.556 262.805,615.791C261.77,629.976 263.163,642.64 267.159,650.413C270.461,656.839 275.433,660.299 281.836,660.016C291.283,659.417 296.452,655.125 299.079,649.537C300.736,646.013 301.378,641.942 301.345,637.969C301.274,629.543 298.421,621.689 298.421,621.689C298.012,620.409 296.64,619.702 295.36,620.112C294.08,620.522 293.374,621.893 293.783,623.173C293.783,623.173 297.863,637.481 292.974,646.449C291.088,649.907 287.571,652.254 281.533,652.348C278.159,652.465 275.837,650.241 274.104,646.852C270.6,639.999 269.538,628.834 270.424,616.339C271.045,607.572 272.814,598.215 275.136,589.095C278.809,574.669 284.132,560.841 291.706,551.62C292.593,550.61 292.493,549.07 291.483,548.184C290.473,547.297 288.933,547.397 288.047,548.407Z" style="fill:rgb(38,45,56);"/>
    </g>
    <g transform="matrix(0.990611,-0.136711,0.136711,0.990611,-108.913,36.6792)">
        <path d="M271.445,597.118C249.244,624.561 256.781,657.165 281.685,656.182C306.588,655.199 299.789,614.649 299.789,614.649" style="fill:rgb(223,214,184);"/>
        <path d="M269.552,595.586C261.019,605.278 256.165,615.789 254.828,625.412C254.08,630.796 254.549,635.892 255.748,640.395C258.964,652.476 268.162,660.557 281.838,660.075C291.881,659.616 297.81,654.007 300.897,646.495C302.969,641.453 303.696,635.551 303.74,630.16C303.811,621.507 302.19,614.246 302.19,614.246C301.968,612.921 300.712,612.025 299.386,612.247C298.061,612.469 297.165,613.726 297.388,615.051C297.388,615.051 297.918,620.26 297.567,626.894C297.287,632.182 296.355,638.363 293.987,643.479C291.763,648.284 288.081,652.071 281.531,652.289C271.861,652.712 265.337,646.975 263.025,638.44C262.038,634.794 261.885,630.678 262.309,626.292C263.144,617.639 266.452,607.927 273.338,598.649C274.183,597.604 274.021,596.07 272.976,595.225C271.931,594.379 270.397,594.542 269.552,595.586Z" style="fill:rgb(38,45,56);"/>
    </g>
    <g transform="matrix(0.990611,-0.136711,0.136711,0.990611,59.0227,39.5464)">
        <path d="M271.445,597.118C249.244,624.561 256.781,657.165 281.685,656.182C306.588,655.199 296.081,604.965 296.081,604.965" style="fill:rgb(223,214,184);"/>
        <path d="M269.552,595.586C259.57,606.984 254.641,619.527 254.422,630.373C254.35,633.934 254.915,637.297 255.758,640.392C259.043,652.449 268.167,660.545 281.838,660.062C292.774,659.607 298.566,651.721 300.723,641.321C301.712,636.554 301.912,631.282 301.684,626.246C301.16,614.712 298.464,604.466 298.464,604.466C298.189,603.151 296.897,602.306 295.582,602.581C294.267,602.856 293.422,604.148 293.697,605.463C293.697,605.463 295.198,615.36 294.874,626.299C294.741,630.785 294.261,635.433 293.245,639.645C291.632,646.338 288.621,652.037 281.531,652.302C271.856,652.724 265.279,646.997 263.015,638.443C262.359,635.968 262.164,633.265 262.143,630.423C262.071,620.788 265.291,609.432 273.338,598.649C274.183,597.604 274.021,596.07 272.976,595.225C271.931,594.379 270.397,594.542 269.552,595.586Z" style="fill:rgb(38,45,56);"/>
    </g>
    <g transform="matrix(-0.802184,0.0141578,0.0708148,0.998906,728.534,-132.279)">
        <path d="M289.877,550.014C263.99,579.505 256.781,657.165 281.685,656.182C306.588,655.199 297.759,621.953 297.759,621.953" style="fill:rgb(223,214,184);"/>
        <path d="M292.393,551.484C284.93,560.66 279.822,574.419 276.196,588.811C273.957,597.699 272.136,606.815 271.456,615.413C270.486,627.675 271.384,638.76 274.503,645.997C275.365,647.997 276.364,649.663 277.637,650.866C278.625,651.8 279.766,652.399 281.196,652.351C287.521,652.229 290.996,649.272 292.948,645.463C297.737,636.118 294.788,622.337 294.788,622.337C294.436,621.01 295.481,619.761 297.121,619.548C298.761,619.336 300.378,620.241 300.731,621.568C300.731,621.568 305.547,637.17 300.957,648.14C298.265,654.574 292.517,659.394 282.173,660.013C276.455,660.267 271.679,657.93 268.174,653.229C262.646,645.816 260.589,631.135 261.94,614.52C262.668,605.562 264.12,595.97 266.84,586.791C271.304,571.725 278.65,557.754 287.36,548.544C288.3,547.472 290.191,547.261 291.58,548.073C292.969,548.884 293.333,550.413 292.393,551.484Z" style="fill:rgb(38,45,56);"/>
    </g>
    <g transform="matrix(1,0,0,1,25.4357,-155.82)">
        <path d="M308.937,243.302C299.861,243.497 287.075,242.729 276.151,241.177C274.402,240.929 277.412,245.884 275.691,246.001C268.398,246.495 261.515,246.529 255.589,245.326C261.373,246.964 264.205,252.067 265.205,253.022C248.912,251.579 232.804,255.258 219.925,258.594C229.25,259.67 230.258,260.315 234.805,264.122C219.383,265.414 210.941,266.244 196.205,273.022L213.705,274.522C193.716,278.02 174.779,284.464 158.205,297.522C165.065,298.982 172.48,299.61 180.705,299.022C155.679,304.985 144.279,311.115 131.64,321.208L150.48,320.872C136.926,328.041 129.305,340.614 119.848,353.928L142.58,346.772C128.487,357.502 118.869,370.468 111.604,384.612L127.08,379.272C118.22,384.792 110.331,398.594 102.836,411.624C106.17,410.627 109.372,405.649 114.08,408.772C106.253,417.371 99.919,427.891 96.872,442.636L108.58,440.272C99.503,446.958 98.242,458.721 93.944,471.552C98.153,472.332 101.688,467.044 106.58,465.772C100.695,474.831 95.668,486.806 93.2,507.48C99.093,504.144 103.735,502.06 107.58,500.772C99.812,514.144 96.387,523.535 96.811,543.052C103.445,536.546 105.668,545.943 111.62,542.852C105.15,556.246 99.076,561.964 96.836,587.344C100.787,586.362 105.033,585.233 111.728,582.88C106.971,592.284 106.019,606.736 104.676,622.968C107.259,620.74 111.025,619.302 115.656,618.44C111.87,632.61 115.266,646.679 115.592,656.052C117.405,651.656 120.147,648.497 124.008,646.832C125.022,663.417 124.616,678.11 132.116,703.344C139.616,698.477 140.421,695.602 144.508,694.832C142.881,705.338 145.625,718.229 151.508,732.832C155.043,728.918 159.108,726.332 164.008,725.832C160.232,734.627 169.524,746.438 183.508,759.332L190.008,749.332C197.834,761.254 212.292,767.946 225.58,775.772C224.004,770.185 227.599,766.445 235.58,764.272C243.719,772.608 252.778,780.229 267.08,783.772C265.527,779.938 267.307,776.105 272.58,772.272C277.747,778.392 282.913,781.254 288.08,783.272C287.78,779.158 291.64,776.154 301.58,774.772L302.58,785.272C303.699,779.401 307.817,775.864 315.08,774.772C319.041,776.31 321.849,779.002 323.08,783.272C334.077,780.602 344.13,776.672 353.08,771.272C356.597,772.254 356.037,773.986 354.776,779.748C373.908,774.228 395.63,770.353 410.58,755.772C415.055,756.506 417.249,760.028 415.58,768.272C427.594,761.043 438.162,751.645 446.08,738.272C450.284,739.381 454.059,743.066 457.58,748.272C467.201,732.211 469.182,717.731 467.88,707.132L479.88,716.132C486.553,698.71 490.903,683.224 489.38,672.632L499.38,685.632C503.426,661.1 508.495,639.13 507.08,628.252L524.08,635.252C521.47,612.416 518.705,589.815 510.58,575.252L529.08,588.752C525.86,568.872 524.093,550.28 514,535.212L525.7,538.532C524.184,519.1 520.037,508.735 513.06,491.352C517.089,493.557 521.983,496.916 528.06,501.852C524.79,480.386 518.973,459.769 509.56,440.352L523.56,447.852C516.359,426.352 508.235,405.43 495.56,387.352C499.967,389.778 504.595,391.983 511.06,392.352C502.545,370.817 496.567,353.045 482.58,341.772C486.912,343.438 492.784,345.105 502.58,346.772C489.914,324.784 480.377,318.74 469.08,313.172C472.835,310.799 480.655,312.979 488.508,312.656C475.955,299.938 454.491,292.489 439.205,290.022C447.349,287.13 454.352,283.267 462.325,285.154C448.364,275.285 423.587,265.481 404.081,261.158C409.918,260.631 416.502,259.731 423.705,258.522C406.832,252.382 388.613,248.934 368.327,249.622C367.866,246.282 371.31,243.918 379.042,242.626C372.355,241.738 359.385,243.769 351.342,243.441C349.62,243.371 352.669,239.102 350.978,239.241C345.098,239.725 340.103,243.529 334.345,244.686C325.918,243.974 319.412,242.648 308.937,243.302Z" style="fill:rgb(158,214,255);"/>
        <clipPath id="_clip1">
            <path d="M308.937,243.302C299.861,243.497 287.075,242.729 276.151,241.177C274.402,240.929 277.412,245.884 275.691,246.001C268.398,246.495 261.515,246.529 255.589,245.326C261.373,246.964 264.205,252.067 265.205,253.022C248.912,251.579 232.804,255.258 219.925,258.594C229.25,259.67 230.258,260.315 234.805,264.122C219.383,265.414 210.941,266.244 196.205,273.022L213.705,274.522C193.716,278.02 174.779,284.464 158.205,297.522C165.065,298.982 172.48,299.61 180.705,299.022C155.679,304.985 144.279,311.115 131.64,321.208L150.48,320.872C136.926,328.041 129.305,340.614 119.848,353.928L142.58,346.772C128.487,357.502 118.869,370.468 111.604,384.612L127.08,379.272C118.22,384.792 110.331,398.594 102.836,411.624C106.17,410.627 109.372,405.649 114.08,408.772C106.253,417.371 99.919,427.891 96.872,442.636L108.58,440.272C99.503,446.958 98.242,458.721 93.944,471.552C98.153,472.332 101.688,467.044 106.58,465.772C100.695,474.831 95.668,486.806 93.2,507.48C99.093,504.144 103.735,502.06 107.58,500.772C99.812,514.144 96.387,523.535 96.811,543.052C103.445,536.546 105.668,545.943 111.62,542.852C105.15,556.246 99.076,561.964 96.836,587.344C100.787,586.362 105.033,585.233 111.728,582.88C106.971,592.284 106.019,606.736 104.676,622.968C107.259,620.74 111.025,619.302 115.656,618.44C111.87,632.61 115.266,646.679 115.592,656.052C117.405,651.656 120.147,648.497 124.008,646.832C125.022,663.417 124.616,678.11 132.116,703.344C139.616,698.477 140.421,695.602 144.508,694.832C142.881,705.338 145.625,718.229 151.508,732.832C155.043,728.918 159.108,726.332 164.008,725.832C160.232,734.627 169.524,746.438 183.508,759.332L190.008,749.332C197.834,761.254 212.292,767.946 225.58,775.772C224.004,770.185 227.599,766.445 235.58,764.272C243.719,772.608 252.778,780.229 267.08,783.772C265.527,779.938 267.307,776.105 272.58,772.272C277.747,778.392 282.913,781.254 288.08,783.272C287.78,779.158 291.64,776.154 301.58,774.772L302.58,785.272C303.699,779.401 307.817,775.864 315.08,774.772C319.041,776.31 321.849,779.002 323.08,783.272C334.077,780.602 344.13,776.672 353.08,771.272C356.597,772.254 356.037,773.986 354.776,779.748C373.908,774.228 395.63,770.353 410.58,755.772C415.055,756.506 417.249,760.028 415.58,768.272C427.594,761.043 438.162,751.645 446.08,738.272C450.284,739.381 454.059,743.066 457.58,748.272C467.201,732.211 469.182,717.731 467.88,707.132L479.88,716.132C486.553,698.71 490.903,683.224 489.38,672.632L499.38,685.632C503.426,661.1 508.495,639.13 507.08,628.252L524.08,635.252C521.47,612.416 518.705,589.815 510.58,575.252L529.08,588.752C525.86,568.872 524.093,550.28 514,535.212L525.7,538.532C524.184,519.1 520.037,508.735 513.06,491.352C517.089,493.557 521.983,496.916 528.06,501.852C524.79,480.386 518.973,459.769 509.56,440.352L523.56,447.852C516.359,426.352 508.235,405.43 495.56,387.352C499.967,389.778 504.595,391.983 511.06,392.352C502.545,370.817 496.567,353.045 482.58,341.772C486.912,343.438 492.784,345.105 502.58,346.772C489.914,324.784 480.377,318.74 469.08,313.172C472.835,310.799 480.655,312.979 488.508,312.656C475.955,299.938 454.491,292.489 439.205,290.022C447.349,287.13 454.352,283.267 462.325,285.154C448.364,275.285 423.587,265.481 404.081,261.158C409.918,260.631 416.502,259.731 423.705,258.522C406.832,252.382 388.613,248.934 368.327,249.622C367.866,246.282 371.31,243.918 379.042,242.626C372.355,241.738 359.385,243.769 351.342,243.441C349.62,243.371 352.669,239.102 350.978,239.241C345.098,239.725 340.103,243.529 334.345,244.686C325.918,243.974 319.412,242.648 308.937,243.302Z"/>
        </clipPath>
        <g clip-path="url(#_clip1)">
            <path d="M473.025,293.059C464.157,292.669 458.226,296.099 448.167,304.045C461.968,312.595 467.44,331.789 470.862,347.126L437.358,360.188C460.178,387.166 463.477,419.513 469.727,451.048C459.491,449.905 451.861,450.152 447.579,452.184C462.927,473.54 470.532,499.47 477.109,526.008C468.383,527.491 461.305,526.225 454.962,523.737C455.947,537.838 470.484,570.257 485.638,574.304C478.858,583.575 469.05,586.014 469.098,595.325C474.126,598.571 483.117,624.434 482.19,629.664C461.885,616.742 454.906,625.491 449.466,626.197C453.046,637.52 467.232,652.998 466.891,665.761C458.459,663.436 446.421,651.475 437.192,653.53C447.597,668.03 432.876,671.191 436.285,688.16C421.172,693.367 415.621,685.671 403.287,682.541C401.593,699.72 393.92,706.731 390.241,718.749C378.684,720.786 365.056,709.038 353.897,705.12C353.863,719.461 334.238,717.252 327.331,729.167C310.203,726.97 299.844,719.251 297.801,704.748C289.126,715.924 280.183,723.892 271.111,730.303C259.17,725.248 249.212,718.43 244.421,707.02C236.417,712.379 233.523,718.813 233.063,725.76C220.684,709.806 212.426,697.049 206.799,679.904C198.853,682.655 194.294,690.488 190.33,699.211C176.858,683.753 167.187,665.254 163.64,641.856C158.22,649.328 155.997,657.439 154.554,665.707C144.63,650.461 141.147,630.176 140.357,607.783C131.619,609.357 126.718,615.407 122.753,622.548C121.913,605.133 123.828,587.718 130.135,570.303L114.708,570.303C114.972,560.524 118.359,552.045 123.388,544.251L96.612,533.173L76.186,629.93L146.603,798.022L364.101,808.812L579.327,716.816L600.339,562.92L591.821,415.272L473.025,293.059Z" style="fill:rgb(141,191,228);"/>
            <path d="M147.993,342.593C152.491,333.212 156.46,323.567 173.579,320.496C168.161,315.586 166.3,312.709 166.31,310.901L178.231,310.32C175.835,306.216 177.816,302.987 183.174,300.434L142.178,294.037L198.293,251.297L240.106,263.669C244.055,262.485 251.698,261.099 258.188,263.218C256.842,262.001 256.264,260.4 258.479,257.402C264.949,257.038 266.855,261.238 272.309,261.89C273.595,258.211 274.112,255.648 282.328,251.968C285.869,257.401 294.153,254.347 297.894,255.995C302.978,253.781 314.783,250.52 326.225,250.424C329.173,251.077 331.421,252.168 330.295,255.367C341.142,250.642 346.761,251.42 352.683,251.878C356.382,253.606 360.342,255.289 355.009,258.565C365.075,257.791 372.374,256.54 375.071,254.495L388.446,261.182L513.47,288.513L468.403,191.983L319.537,193.437L183.174,203.032L120.08,248.098L97.111,314.681L105.833,351.025" style="fill:rgb(141,191,228);"/>
            <path d="M348.899,714.65C348.365,703.288 349.813,689.233 346.148,676.23C352.173,678.525 353.838,682.593 358.68,683.204C354.492,649.102 344.082,638.512 338.931,632.665C345.076,632.929 344.497,623.996 343.725,622.926C334.462,610.079 340.305,593.927 331.759,588.206C363.632,560.279 419.986,547.923 465.998,531.19C498.296,591.526 470.015,656.383 420.942,722.791L348.899,714.65Z" style="fill:rgb(141,191,228);"/>
            <path d="M281.385,534.157C281.385,534.157 281.383,547.095 283.428,553.396C284.35,551.355 285.681,551.608 286.584,552.204C292.611,556.181 295.169,559.876 295.186,562.111L300.624,561.068L309.58,571.207C313.17,569.601 319.622,572.939 326.273,575.668C332.831,573.691 336.161,572.262 339.433,574.409C340.688,573.059 348.528,563.602 349.952,560.74C354.865,558.211 358.925,555.836 362.221,553.664C365.927,551.223 368.669,549.038 370.574,547.181L363.872,535.322" style="fill:rgb(141,191,228);"/>
            <path d="M137.619,630.006C131.497,623.567 128.42,581.319 140.548,571.065C145.445,573.259 161.72,572.406 165.809,577.849C176.798,567.744 214.45,567.528 221.94,548.266C232.338,556.069 237.737,531.061 248.643,538.394C259.222,513.675 265.563,502.979 274.598,481.983L129.58,524.392L111.522,536.625L97.832,575.364L96.811,630.744L137.619,630.006Z" style="fill:rgb(141,191,228);"/>
            <path d="M366.367,456.042C373.889,472.881 384.222,488.981 384.131,505.82C391.239,507.045 394.857,512.102 401.11,515.751C408.871,527.335 417.134,534.976 429.914,549.16L454.279,545.938L520.193,553.891L481.964,480.163L366.367,456.042Z" style="fill:rgb(141,191,228);"/>
        </g>
        <path d="M334.167,241.974C337.926,241.135 341.346,239.145 344.952,237.86C346.827,237.192 348.746,236.692 350.754,236.522C352.982,236.333 353.873,237.465 354.178,239.084C354.238,239.401 354.151,240.053 354.022,240.727C359.924,240.648 367.494,239.756 373.446,239.62C375.699,239.568 377.737,239.624 379.411,239.842C380.789,240.025 381.826,241.189 381.849,242.579C381.873,243.969 380.875,245.166 379.504,245.396C377.442,245.745 375.716,246.168 374.325,246.683C382.14,246.709 389.656,247.344 396.913,248.499C406.613,250.042 415.849,252.518 424.723,255.722C425.995,256.185 426.795,257.446 426.672,258.793C426.548,260.141 425.532,261.236 424.198,261.46L419.395,262.116C424.722,263.767 430.142,265.682 435.405,267.778C446.432,272.168 456.769,277.358 464.161,282.556C465.405,283.436 465.851,285.073 465.224,286.462C464.598,287.85 463.075,288.6 461.592,288.249C458.8,287.595 456.15,287.801 453.515,288.407C452.582,288.621 451.651,288.884 450.719,289.182C455.971,290.579 461.484,292.431 466.858,294.745C475.873,298.628 484.483,303.82 490.899,310.296C491.833,311.242 492.121,312.65 491.634,313.887C491.146,315.125 489.975,315.958 488.646,316.012C485.911,316.13 483.179,315.951 480.617,315.763C484.108,318.095 487.564,320.935 491.146,324.761C495.658,329.582 500.378,335.996 505.605,345.029C506.28,346.201 506.217,347.657 505.444,348.767C504.671,349.876 503.327,350.44 501.994,350.213C499.06,349.72 496.469,349.225 494.163,348.722C496.41,351.669 498.432,354.858 500.311,358.266C505.477,367.637 509.559,378.716 514.448,391.012C514.906,392.168 514.742,393.478 514.014,394.486C513.286,395.493 512.094,396.061 510.852,395.99C508.728,395.873 506.78,395.577 504.963,395.15C507.603,399.606 510.03,404.195 512.291,408.888C518.096,420.941 522.795,433.689 527.16,446.646C527.654,448.121 527.198,449.749 526.009,450.753C524.82,451.757 523.139,451.933 521.767,451.199L517.635,448.992C520.401,455.638 522.788,462.413 524.835,469.302C527.929,479.711 530.247,490.379 531.92,501.264C532.163,502.859 531.4,504.439 529.999,505.24C528.599,506.042 526.851,505.899 525.598,504.882C524.088,503.659 522.652,502.535 521.284,501.507C522.819,505.563 524.149,509.39 525.283,513.296C527.418,520.654 528.868,528.291 529.649,538.224C529.749,539.516 529.212,540.775 528.209,541.596C527.206,542.417 525.865,542.696 524.619,542.342L522.129,541.637C524.055,545.779 525.568,550.114 526.811,554.612C529.692,565.033 531.109,576.35 533.017,588.114C533.275,589.71 532.544,591.305 531.166,592.151C529.788,592.997 528.035,592.926 526.729,591.973L519.678,586.824C520.759,590.261 521.699,593.903 522.529,597.702C525.015,609.078 526.541,621.903 528.01,634.803C528.169,636.193 527.581,637.564 526.464,638.408C525.347,639.251 523.868,639.442 522.574,638.909L511.231,634.233C511.127,637.695 510.73,641.697 510.119,646.13C508.583,657.271 505.729,671.295 503.253,686.271C502.999,687.814 501.853,689.058 500.336,689.439C498.82,689.82 497.222,689.265 496.268,688.025L493.131,683.945C492.837,686.287 492.399,688.744 491.834,691.3C490.093,699.183 487.147,708.078 483.524,717.527C483.086,718.671 482.137,719.542 480.961,719.881C479.785,720.22 478.518,719.988 477.538,719.254L472.091,715.165C471.936,719.579 471.26,724.398 469.88,729.528C468.139,736 465.277,742.98 460.908,750.266C460.227,751.403 459.012,752.114 457.687,752.15C456.361,752.187 455.109,751.544 454.366,750.446C452.951,748.351 451.499,746.525 449.977,745.066C449.2,744.322 448.414,743.676 447.606,743.158C443.988,748.755 439.902,753.65 435.44,757.981C429.989,763.273 423.978,767.724 417.569,771.577C416.258,772.365 414.606,772.305 413.356,771.423C412.106,770.542 411.496,769.005 411.799,767.506C412.315,764.965 412.445,762.998 412.102,761.506C411.977,760.961 411.745,760.547 411.419,760.245C405.506,765.527 398.711,769.402 391.485,772.458C380.019,777.306 367.457,780.067 355.833,783.411C354.542,783.783 353.15,783.449 352.169,782.53C351.189,781.612 350.764,780.245 351.052,778.932C351.228,778.128 351.391,777.293 351.524,776.548C347.824,778.568 343.957,780.363 339.932,781.946C334.858,783.941 329.532,785.6 323.972,786.945C322.003,787.423 320.008,786.265 319.447,784.319C319.022,782.839 318.343,781.62 317.411,780.645C316.634,779.832 315.691,779.189 314.615,778.679C312.43,779.104 310.633,779.809 309.249,780.869C307.646,782.098 306.684,783.819 306.271,785.975C305.921,787.813 304.273,789.113 302.405,789.026C300.536,788.938 299.016,787.49 298.839,785.628L298.23,779.182C296.816,779.503 295.605,779.88 294.584,780.317C292.821,781.069 291.717,781.752 291.807,783C291.9,784.279 291.331,785.517 290.298,786.279C289.266,787.04 287.915,787.219 286.72,786.753C283.625,785.541 280.534,784.045 277.439,781.846C275.708,780.616 273.975,779.168 272.247,777.417C271.703,777.969 271.258,778.526 270.914,779.089C270.244,780.187 270.076,781.279 270.52,782.378C271.044,783.671 270.799,785.149 269.884,786.203C268.97,787.258 267.542,787.71 266.187,787.375C259.006,785.59 253.068,782.839 247.889,779.5C242.862,776.259 238.556,772.461 234.527,768.444C232.724,769.066 231.275,769.799 230.227,770.711C229.015,771.766 228.647,773.119 229.112,774.775C229.519,776.218 229.008,777.763 227.821,778.679C226.634,779.594 225.009,779.695 223.717,778.934C215.84,774.287 207.562,770.022 200.458,764.869C196.651,762.106 193.174,759.089 190.232,755.652L186.549,761.309C185.967,762.205 185.02,762.798 183.959,762.931C182.899,763.064 181.834,762.723 181.049,761.999C172.232,753.857 165.262,746.075 161.93,739.204C160.517,736.29 159.724,733.499 159.592,730.86C159.369,730.976 159.148,731.098 158.93,731.227C157.212,732.239 155.641,733.608 154.169,735.235C153.34,736.153 152.098,736.578 150.881,736.362C149.664,736.146 148.644,735.318 148.182,734.172C144.843,725.865 142.496,718.092 141.333,710.974C140.789,707.651 140.503,704.465 140.488,701.427C138.992,702.729 137.063,704.362 134.045,706.317C133.108,706.926 131.938,707.056 130.89,706.67C129.841,706.283 129.036,705.425 128.718,704.354C125.401,693.164 123.609,684.007 122.557,675.841C121.524,667.831 121.21,660.786 120.865,653.698C120.064,654.768 119.39,656.004 118.82,657.383C118.193,658.903 116.591,659.78 114.973,659.488C113.355,659.197 112.159,657.816 112.102,656.173C111.897,650.13 110.429,642.144 110.407,633.436C110.399,630.111 110.596,626.686 111.13,623.222L111.095,623.235C109.459,623.856 108.048,624.614 106.927,625.579C105.867,626.493 104.359,626.675 103.112,626.04C101.864,625.405 101.125,624.079 101.24,622.683C101.989,613.743 102.624,605.337 103.822,597.999C104.401,594.454 105.116,591.149 106.027,588.136L97.654,590.637C96.59,590.901 95.463,590.635 94.63,589.922C93.797,589.209 93.359,588.138 93.456,587.045C94.418,576.264 96.061,568.915 98.109,563.035C100.376,556.528 103.154,551.85 106.118,546.262C105.627,546.072 105.146,545.847 104.671,545.6C103.536,545.01 102.593,543.921 101.283,544.043C100.639,544.103 100.004,544.59 99.144,545.431C98.195,546.362 96.785,546.639 95.554,546.138C94.323,545.637 93.508,544.453 93.479,543.124C93.284,533.716 93.965,526.574 95.539,520.233C96.654,515.739 98.216,511.643 100.257,507.433C98.571,508.268 96.763,509.229 94.813,510.33C93.739,510.938 92.413,510.89 91.385,510.206C90.357,509.522 89.802,508.318 89.948,507.091C91.007,498.298 92.52,491.041 94.355,484.895C95.561,480.853 96.908,477.284 98.362,474.074L97.826,474.292C96.368,474.82 94.888,475.002 93.358,474.717C92.441,474.547 91.643,473.988 91.17,473.185C90.697,472.382 90.595,471.413 90.892,470.529C93.864,461.683 95.464,453.347 99.016,446.755C99.288,446.25 99.57,445.755 99.866,445.272L97.5,445.747C96.455,445.958 95.374,445.63 94.622,444.875C93.87,444.12 93.548,443.037 93.764,441.993C95.256,434.805 97.5,428.582 100.297,423.075C102.102,419.522 104.137,416.266 106.354,413.244C105.469,413.831 104.604,414.358 103.731,414.618C102.505,414.985 101.179,414.567 100.385,413.563C99.591,412.56 99.489,411.174 100.127,410.065C104.333,402.77 108.666,395.239 113.214,389.014C113.793,388.222 114.377,387.45 114.966,386.702L112.605,387.514C111.42,387.923 110.105,387.571 109.284,386.623C108.462,385.676 108.3,384.324 108.872,383.209C112.702,375.77 117.169,368.652 122.563,361.997C124.803,359.233 127.203,356.549 129.784,353.955L120.749,356.79C119.519,357.177 118.18,356.736 117.422,355.693C116.663,354.651 116.655,353.241 117.402,352.19C123.064,344.236 128.089,336.55 134.069,330.087C136.085,327.91 138.207,325.868 140.494,323.998L131.692,324.146C130.434,324.169 129.301,323.388 128.875,322.204C128.448,321.02 128.823,319.696 129.806,318.911C137.223,313 144.228,308.418 153.645,304.434C156.309,303.306 159.168,302.227 162.288,301.18C160.699,300.939 159.141,300.652 157.608,300.324C156.521,300.093 155.666,299.254 155.414,298.172C155.162,297.089 155.559,295.959 156.432,295.271C164.889,288.621 173.94,283.643 183.425,279.881C187.417,278.298 191.486,276.931 195.619,275.748C194.519,275.514 193.653,274.632 193.456,273.501C193.238,272.254 193.888,271.016 195.039,270.487C202.545,267.043 208.469,265.099 214.456,263.849C218.046,263.099 221.66,262.601 225.662,262.187C224.154,261.87 222.24,261.618 219.611,261.312C218.302,261.161 217.286,260.098 217.195,258.783C217.103,257.468 217.963,256.275 219.239,255.944C227.347,253.852 236.718,251.633 246.61,250.599C250.621,250.179 254.717,249.954 258.85,250.013C257.773,249.148 256.457,248.36 254.858,247.905C253.472,247.512 252.644,246.094 252.984,244.693C253.324,243.293 254.71,242.412 256.122,242.698C258.503,243.184 261.047,243.457 263.715,243.578C266.731,243.714 269.901,243.657 273.171,243.48C273.089,243.12 273.019,242.776 272.984,242.532C272.831,241.47 273.039,240.613 273.344,240.067C273.907,239.06 274.827,238.305 276.524,238.548C281.689,239.286 287.276,239.848 292.68,240.213C298.54,240.608 304.184,240.773 308.843,240.679C312.758,240.427 316.135,240.447 319.266,240.607C324.463,240.872 328.965,241.534 334.167,241.974ZM348.131,242.544C347.67,242.674 347.215,242.822 346.762,242.981C342.801,244.371 339.023,246.496 334.874,247.319C334.625,247.369 334.371,247.383 334.119,247.362C328.803,246.9 324.257,246.192 318.983,245.897C316.018,245.731 312.817,245.698 309.1,245.921L308.993,245.925C304.195,246.033 298.374,245.878 292.33,245.482C287.817,245.186 283.181,244.756 278.755,244.2C278.855,244.794 278.916,245.354 278.88,245.69C278.688,247.493 277.72,248.529 275.871,248.656C272.243,248.906 268.714,249.042 265.349,248.974C266.161,249.952 266.721,250.746 267.065,251.075C267.892,251.865 268.13,253.091 267.658,254.133C267.186,255.175 266.107,255.805 264.967,255.704C258.957,255.178 252.974,255.372 247.179,255.99C241.859,256.556 236.696,257.479 231.812,258.545C233.305,259.347 234.671,260.424 236.572,262.011C237.427,262.728 237.766,263.889 237.429,264.953C237.092,266.016 236.146,266.771 235.035,266.864C227.361,267.515 221.444,268.04 215.595,269.274C213.168,269.785 210.753,270.421 208.225,271.24L213.945,271.725C215.35,271.845 216.448,272.99 216.509,274.399C216.571,275.808 215.578,277.044 214.189,277.287C204.316,279.025 194.705,281.49 185.521,285.152C178.531,287.94 171.79,291.422 165.375,295.811C166.755,295.978 168.159,296.109 169.588,296.201C173.064,296.424 176.691,296.418 180.499,296.142C181.999,296.035 183.33,297.097 183.558,298.583C183.787,300.069 182.837,301.482 181.374,301.83C170.8,304.361 162.701,306.912 155.92,309.797C150.135,312.258 145.32,314.962 140.735,318.097L150.427,317.915C151.796,317.891 153.002,318.809 153.343,320.134C153.685,321.459 153.072,322.846 151.863,323.486C146.61,326.271 142.31,329.925 138.44,334.124C134.476,338.423 130.957,343.284 127.377,348.403L141.672,343.888C143.073,343.447 144.589,344.077 145.265,345.381C145.94,346.686 145.58,348.287 144.411,349.177C137.757,354.254 132.133,359.844 127.301,365.83C123.879,370.069 120.854,374.506 118.141,379.1L126.073,376.354C127.558,375.842 129.19,376.526 129.866,377.944C130.542,379.362 130.045,381.061 128.712,381.891C125.038,384.185 121.586,388.054 118.227,392.669C115.578,396.309 113.01,400.41 110.5,404.644C112.138,404.528 113.904,404.893 115.814,406.157C116.577,406.663 117.081,407.477 117.193,408.386C117.306,409.294 117.016,410.207 116.4,410.883C112.418,415.267 108.838,420.17 105.927,425.928C104.006,429.727 102.377,433.898 101.112,438.537L107.949,437.149C109.414,436.854 110.887,437.615 111.492,438.981C112.097,440.347 111.672,441.95 110.469,442.836C107.031,445.374 104.916,448.773 103.27,452.687C101.547,456.785 100.329,461.417 98.911,466.326C101.022,464.905 103.24,463.303 105.766,462.643C107.057,462.307 108.422,462.799 109.202,463.881C109.982,464.964 110.018,466.414 109.291,467.533C105.998,472.613 102.993,478.651 100.592,486.751C99.314,491.06 98.209,495.943 97.322,501.563L98.823,500.828C101.716,499.445 104.259,498.417 106.535,497.652C107.833,497.217 109.265,497.632 110.13,498.693C110.995,499.754 111.113,501.24 110.425,502.424C106.442,509.297 103.631,515.061 101.968,521.822C100.846,526.379 100.246,531.384 100.13,537.471L100.658,537.398C102.511,537.222 104.171,537.75 105.763,538.576C107.096,539.267 108.223,540.845 110.077,539.881C111.356,539.216 112.918,539.445 113.953,540.45C114.987,541.455 115.262,543.009 114.635,544.308C110.89,552.079 107.258,557.215 104.478,565.247C102.913,569.768 101.628,575.223 100.735,582.631L110.598,579.664C111.91,579.203 113.372,579.586 114.29,580.632C115.207,581.678 115.397,583.176 114.769,584.418C112.747,588.426 111.498,593.421 110.582,599.097C109.713,604.479 109.161,610.448 108.637,616.785C110.544,616.054 112.683,615.477 115.023,615.039C116.19,614.822 117.387,615.219 118.194,616.09C119.001,616.961 119.304,618.185 118.998,619.333C117.727,624.105 117.335,628.865 117.354,633.413C117.373,637.984 117.798,642.354 118.225,646.343C119.535,645.228 120.999,644.317 122.621,643.616C123.669,643.165 124.87,643.252 125.842,643.849C126.814,644.446 127.433,645.48 127.503,646.618C128.078,655.914 128.198,664.612 129.544,674.935C130.412,681.583 131.794,688.914 134.146,697.536C136.807,695.453 138.233,693.907 139.81,692.916C141,692.168 142.249,691.64 143.849,691.337C144.983,691.123 146.151,691.473 146.981,692.276C147.811,693.079 148.199,694.235 148.022,695.376C147.347,699.762 147.512,704.594 148.374,709.817C149.239,715.056 150.804,720.669 152.966,726.606C153.715,726.032 154.487,725.51 155.279,725.042C157.834,723.531 160.607,722.566 163.643,722.253C164.911,722.124 166.152,722.675 166.907,723.703C167.661,724.73 167.816,726.08 167.313,727.251C165.819,730.738 167.337,734.735 170.221,739.229C173.134,743.77 177.54,748.634 182.831,753.71L186.959,747.35C187.628,746.32 188.772,745.698 190,745.695C191.228,745.692 192.374,746.31 193.048,747.336C196.055,751.91 200.139,755.628 204.741,758.956C210.109,762.839 216.172,766.188 222.203,769.601C222.564,768.668 223.068,767.787 223.706,766.955C225.708,764.342 229.327,762.161 234.612,760.718C235.902,760.366 237.281,760.742 238.215,761.698C242.329,765.905 246.678,769.932 251.892,773.282C255.217,775.418 258.898,777.277 263.1,778.728C263.238,778.135 263.432,777.543 263.68,776.95C264.739,774.414 266.906,771.798 270.391,769.261C271.969,768.114 274.165,768.38 275.424,769.87C277.536,772.368 279.644,774.267 281.754,775.762C283.054,776.683 284.355,777.45 285.656,778.112C286.168,777.301 286.84,776.534 287.681,775.813C290.099,773.742 294.374,771.993 301.063,771.057C302.076,770.917 303.103,771.195 303.905,771.83C304.708,772.464 305.216,773.398 305.313,774.416L305.314,774.426C307.698,772.774 310.75,771.612 314.519,771.042C315.169,770.945 315.833,771.018 316.445,771.256C318.986,772.241 321.139,773.622 322.866,775.422C323.814,776.411 324.637,777.528 325.312,778.791C329.404,777.686 333.353,776.388 337.151,774.888C342.068,772.946 346.729,770.665 351.114,768.014C352.012,767.472 353.094,767.325 354.104,767.607C356.883,768.381 358.226,769.696 358.958,771.285C359.325,772.08 359.478,773.115 359.424,774.494C369.088,771.861 379.165,769.341 388.489,765.385C395.596,762.37 402.261,758.51 407.891,753.015C408.767,752.16 409.996,751.773 411.204,751.971C414.809,752.562 417.424,754.376 418.884,757.592C419.309,758.529 419.629,759.629 419.81,760.909C423.411,758.365 426.839,755.561 430.053,752.436C434.796,747.824 439.071,742.511 442.746,736.298C443.629,734.808 445.393,734.084 447.068,734.526C449.469,735.159 451.779,736.418 453.98,738.25C455.02,739.116 456.042,740.116 457.039,741.239C459.47,736.459 461.203,731.86 462.37,727.511C464.391,719.972 464.703,713.207 464.012,707.607C463.822,706.056 464.576,704.542 465.928,703.76C467.28,702.977 468.968,703.077 470.218,704.015L478.044,709.879C480.685,702.635 482.831,695.801 484.193,689.615C485.575,683.334 486.16,677.767 485.5,673.19C485.247,671.426 486.214,669.713 487.856,669.02C489.498,668.328 491.4,668.83 492.487,670.242L497.021,676.132C499.044,664.595 501.096,653.911 502.309,645.057C503.229,638.349 503.686,632.759 503.165,628.761C502.983,627.365 503.559,625.978 504.675,625.12C505.792,624.263 507.281,624.065 508.583,624.601L519.373,629.039C518.148,618.699 516.784,608.567 514.773,599.4C512.917,590.935 510.523,583.312 507.105,577.19C506.194,575.558 506.542,573.512 507.942,572.272C509.342,571.033 511.415,570.935 512.925,572.037L523.658,579.863C522.417,571.808 521.151,564.042 519.136,556.73C517.233,549.824 514.657,543.331 510.703,537.42C509.777,536.038 509.812,534.225 510.79,532.879C511.768,531.533 513.482,530.94 515.083,531.394L521.2,533.134C520.427,526.483 519.265,520.906 517.701,515.491C515.634,508.335 512.875,501.457 509.414,492.815C508.796,491.276 509.211,489.514 510.452,488.413C511.693,487.312 513.491,487.109 514.946,487.905C516.923,488.991 519.098,490.338 521.503,491.996L522.534,492.725C521.169,485.536 519.479,478.455 517.43,471.492C514.46,461.402 510.736,451.563 506.124,442.017C505.402,440.528 505.722,438.744 506.915,437.598C508.109,436.452 509.904,436.205 511.363,436.986L516.837,439.928C513.485,430.404 509.84,421.062 505.569,412.11C501.798,404.207 497.54,396.607 492.55,389.462C491.569,388.062 491.682,386.17 492.824,384.897C493.966,383.624 495.835,383.307 497.333,384.132C499.489,385.325 501.698,386.47 504.194,387.325C504.566,387.453 504.945,387.574 505.331,387.684C501.593,378.061 498.193,369.307 494.041,361.706C490.36,354.967 486.091,349.155 480.364,344.521C479.011,343.43 478.653,341.515 479.521,340.009C480.389,338.502 482.225,337.852 483.848,338.477C485.89,339.267 488.293,340.057 491.333,340.849C492.608,341.181 493.993,341.514 495.508,341.839C492.213,336.713 489.118,332.7 486.108,329.459C479.871,322.745 474.02,319.41 467.578,316.219C466.475,315.676 465.752,314.579 465.687,313.351C465.622,312.123 466.226,310.956 467.265,310.299C468.668,309.417 470.448,308.905 472.545,308.737C474.377,308.589 476.526,308.724 478.853,308.904C474.393,305.746 469.377,303.056 464.23,300.812C455.457,296.989 446.288,294.465 438.689,293.219C437.228,292.984 436.113,291.788 435.979,290.315C435.845,288.841 436.727,287.464 438.121,286.969C442.876,285.294 447.258,283.313 451.654,282.263C446.09,279.182 439.721,276.215 433.094,273.54C423.187,269.539 412.702,266.193 403.426,264.113C401.969,263.79 400.964,262.453 401.06,260.964C401.155,259.475 402.322,258.277 403.809,258.143L410.101,257.313C405.508,256.068 400.806,255.037 395.984,254.245C387.222,252.807 378.062,252.159 368.423,252.462C366.968,252.511 365.71,251.453 365.511,250.01C365.293,248.395 365.578,246.9 366.438,245.554C361.089,245.901 355.477,246.363 351.231,246.179C349.203,246.092 348.32,244.997 348.093,243.344C348.067,243.149 348.083,242.867 348.131,242.544Z" style="fill:rgb(38,45,56);"/>
    </g>
    <g transform="matrix(1.0331,-0.0617545,0.0637707,1.06683,-27.3444,-156.958)">
        <path d="M396.951,267.371C397.81,256.017 401.21,245.871 408.215,237.931C409.11,240.619 411.499,242.668 417.175,243.307C418.082,234.18 424.63,226.92 433.047,222.571L434.327,229.995C440.393,223.617 447.46,219.905 455.575,218.987L454.039,227.435C463.529,222.537 472.623,222.009 481.431,224.619L472.727,232.811C483.772,231.399 494.62,232.94 504.983,241.771L495.255,248.427C503.703,249.963 509.761,255.851 511.383,261.483L503.447,266.091C505.645,273.268 506.718,279.741 503.447,283.499L496.535,280.171C495.872,287.387 493.016,293.35 487.575,297.835L483.991,293.483C480.863,302.53 475.684,309.269 467.095,312.171" style="fill:rgb(158,214,255);"/>
        <clipPath id="_clip2">
            <path d="M396.951,267.371C397.81,256.017 401.21,245.871 408.215,237.931C409.11,240.619 411.499,242.668 417.175,243.307C418.082,234.18 424.63,226.92 433.047,222.571L434.327,229.995C440.393,223.617 447.46,219.905 455.575,218.987L454.039,227.435C463.529,222.537 472.623,222.009 481.431,224.619L472.727,232.811C483.772,231.399 494.62,232.94 504.983,241.771L495.255,248.427C503.703,249.963 509.761,255.851 511.383,261.483L503.447,266.091C505.645,273.268 506.718,279.741 503.447,283.499L496.535,280.171C495.872,287.387 493.016,293.35 487.575,297.835L483.991,293.483C480.863,302.53 475.684,309.269 467.095,312.171"/>
        </clipPath>
        <g clip-path="url(#_clip2)">
            <g transform="matrix(0.964517,0.0558322,-0.0576551,0.934023,50.8417,4.00989)">
                <path d="M427.22,303.077C431.3,298.472 456.718,293.921 448.294,278.98C450.783,280.058 453.409,280.501 456.854,277.119C460.967,272.846 462.025,268.792 461.692,264.837C463.13,267.335 465.45,269.216 470.065,269.489C471.851,264.612 473.218,260.07 473.415,256.464C475.377,257.312 477.167,256.613 478.811,254.603C477.634,250.485 475.828,247.203 472.745,245.626L476.035,241.153C470.899,238.26 465.892,236.915 461.074,237.833C461.95,234.598 463.5,231.438 467.237,228.521C459.319,225.885 452.15,226.052 445.503,228.179C445.256,224.829 443.397,222.017 440.292,219.619C433.608,220.375 428.192,222.945 423.731,226.877C422.192,225.934 421.371,224.274 422.056,221.108C416.002,223.753 413.111,227.241 411.822,231.156C408.733,229.879 406.383,230.08 404.564,231.342C399.206,234.525 396.599,237.891 396.005,241.391C391.643,241.152 387.557,241.668 384.467,244.927C386.522,250.465 373.836,257.123 375.93,260.2C366.084,263.354 370.653,256.532 367.534,251.998L383.537,205.477L410.519,189.288L479.37,191.149L522.541,205.291L529.426,235.064L520.866,268.559L464.111,300.379" style="fill:rgb(141,191,228);"/>
            </g>
            <g transform="matrix(0.957854,0.123003,-0.127019,0.92757,61.2963,-30.0604)">
                <path d="M447.481,266.896C445.109,266.648 443.063,266.311 441.328,265.705C438.014,264.548 435.818,262.845 433.941,261.205C433.105,260.622 432.901,259.47 433.484,258.634C434.067,257.799 435.219,257.594 436.054,258.177C437.58,258.997 439.333,259.568 441.513,260.177C442.778,260.53 444.192,260.81 445.786,261.177C447.126,261.486 448.554,261.931 450.188,262.247C451.522,262.405 452.477,263.61 452.327,264.945L451.157,270.021C451.043,271.034 450.129,271.763 449.116,271.649C448.104,271.535 447.374,270.621 447.488,269.608L447.481,266.896Z" style="fill:rgb(38,45,56);"/>
            </g>
            <g transform="matrix(0.957854,0.123003,-0.127019,0.92757,61.2963,-30.0604)">
                <path d="M427.847,271.812C428.575,268.879 431.801,264.9 435.778,261.266C437.971,259.263 440.418,257.397 442.994,255.968C447.284,253.588 451.921,252.298 456.314,254.623C457.188,255.147 458.323,254.863 458.847,253.99C459.372,253.116 459.088,251.981 458.214,251.457C452.757,247.77 446.315,248.282 440.476,251.142C437.369,252.663 434.452,254.893 432.023,257.398C427.534,262.028 424.678,267.543 424.218,271.131C424.03,272.133 424.691,273.098 425.692,273.286C426.694,273.474 427.659,272.813 427.847,271.812Z" style="fill:rgb(38,45,56);"/>
            </g>
        </g>
        <path d="M436.314,224.08C438.263,222.479 440.3,221.106 442.422,219.958C446.378,217.818 450.639,216.473 455.205,215.924C456.205,215.811 457.2,216.162 457.891,216.871C458.581,217.58 458.885,218.562 458.711,219.522L458.253,222.149C461.227,221.09 464.167,220.421 467.074,220.097C472.278,219.519 477.383,220.057 482.407,221.53C483.535,221.864 484.397,222.75 484.674,223.861C484.951,224.971 484.602,226.14 483.756,226.936L481.432,229.137C484.592,229.26 487.73,229.702 490.839,230.548C496.373,232.055 501.824,234.83 507.138,239.399C507.888,240.038 508.294,240.974 508.241,241.94C508.188,242.905 507.681,243.794 506.865,244.352L502.258,247.469C504.053,248.318 505.688,249.347 507.137,250.5C510.808,253.419 513.302,257.116 514.302,260.695C514.668,261.968 514.111,263.321 512.941,264L506.895,267.449C507.792,270.778 508.378,273.92 508.388,276.684C508.4,280.13 507.545,283.054 505.599,285.256C504.762,286.217 503.356,286.499 502.194,285.94L498.668,284.202C498.145,286.624 497.358,288.893 496.294,290.999C494.624,294.304 492.293,297.223 489.219,299.706C488.696,300.138 488.015,300.345 487.331,300.281C486.647,300.217 486.019,299.887 485.591,299.367L484.704,298.269C483.315,301.275 481.65,303.965 479.66,306.28C476.558,309.887 472.685,312.61 467.826,314.2C466.669,314.591 465.403,313.999 465,312.879C464.596,311.759 465.207,310.533 466.364,310.142C470.357,308.75 473.513,306.435 476.019,303.402C478.453,300.455 480.262,296.834 481.638,292.72C481.927,291.886 482.664,291.271 483.559,291.117C484.454,290.964 485.364,291.297 485.93,291.985L487.796,294.206C489.346,292.574 490.582,290.767 491.528,288.798C492.807,286.133 493.539,283.168 493.803,279.936C493.883,279.062 494.404,278.282 495.195,277.854C495.986,277.425 496.944,277.402 497.756,277.793L502.279,279.92C502.577,278.974 502.666,277.901 502.644,276.746C502.587,273.838 501.732,270.468 500.61,266.906C500.226,265.653 500.767,264.306 501.925,263.634L507.63,260.263C506.664,258.436 505.144,256.676 503.219,255.193C500.91,253.413 497.998,252.053 494.664,251.472C493.401,251.243 492.402,250.304 492.129,249.088C491.855,247.872 492.359,246.615 493.408,245.897L499.552,241.646C496.098,239.281 492.595,237.72 489.052,236.779C483.83,235.392 478.524,235.355 473.168,236.05C471.727,236.235 470.325,235.503 469.691,234.236C469.056,232.968 469.332,231.45 470.375,230.468L474.63,226.489C472.379,226.22 470.104,226.194 467.805,226.435C463.803,226.856 459.73,228.079 455.567,230.211C454.47,230.777 453.137,230.688 452.131,229.981C451.125,229.275 450.624,228.075 450.84,226.89L451.609,222.831C449.451,223.383 447.382,224.178 445.401,225.214C442.229,226.872 439.278,229.129 436.539,231.968C435.761,232.786 434.569,233.103 433.469,232.786C432.368,232.469 431.55,231.572 431.361,230.475L430.82,227.193C428.455,228.765 426.335,230.615 424.597,232.718C422.033,235.822 420.284,239.465 419.834,243.555C419.765,244.247 419.412,244.883 418.853,245.32C418.295,245.756 417.579,245.957 416.866,245.877C413.439,245.456 411.041,244.568 409.36,243.42C408.825,243.055 408.353,242.664 407.94,242.248C405.601,245.375 403.773,248.816 402.395,252.513C400.661,257.161 399.624,262.203 399.164,267.528C399.074,268.711 398.01,269.601 396.789,269.514C395.567,269.428 394.648,268.397 394.738,267.214C395.111,261.473 396.125,256.026 397.885,250.986C399.77,245.587 402.524,240.658 406.271,236.323C406.872,235.641 407.808,235.327 408.716,235.503C409.625,235.679 410.364,236.317 410.648,237.171C411,238.191 411.723,239.031 412.993,239.647C413.546,239.915 414.186,240.137 414.921,240.316C415.757,236.271 417.606,232.59 420.169,229.357C423.163,225.58 427.158,222.431 431.658,220.05C432.496,219.617 433.498,219.601 434.351,220.008C435.203,220.414 435.801,221.193 435.957,222.101L436.314,224.08Z" style="fill:rgb(38,45,56);"/>
    </g>
    <g transform="matrix(1.07825,1.38778e-17,-6.93889e-18,1.12983,-134.306,-189.83)">
        <path d="M371.653,269.252C366.363,253.078 361.072,242.418 355.781,238.532L347.845,243.14C347.838,234.839 345.55,227.804 339.397,222.916L334.022,228.036C327.928,221.639 321,219.415 313.542,219.844L317.894,227.268C307.015,224.864 297.711,224.979 290.246,228.036L296.902,234.18C287.102,237.366 279.394,241.149 274.374,245.7L282.822,251.076C276.443,257.255 272.047,264.096 271.814,272.324L280.006,275.14C275.792,281.201 275.771,286.913 279.75,292.292L285.638,287.94C285.008,294.537 286.523,299.348 289.99,302.532L297.158,296.644C298.702,300.287 302.184,302.473 307.142,302.02" style="fill:rgb(158,214,255);"/>
        <clipPath id="_clip3">
            <path d="M371.653,269.252C366.363,253.078 361.072,242.418 355.781,238.532L347.845,243.14C347.838,234.839 345.55,227.804 339.397,222.916L334.022,228.036C327.928,221.639 321,219.415 313.542,219.844L317.894,227.268C307.015,224.864 297.711,224.979 290.246,228.036L296.902,234.18C287.102,237.366 279.394,241.149 274.374,245.7L282.822,251.076C276.443,257.255 272.047,264.096 271.814,272.324L280.006,275.14C275.792,281.201 275.771,286.913 279.75,292.292L285.638,287.94C285.008,294.537 286.523,299.348 289.99,302.532L297.158,296.644C298.702,300.287 302.184,302.473 307.142,302.02"/>
        </clipPath>
        <g clip-path="url(#_clip3)">
            <g transform="matrix(0.927429,-1.13917e-17,5.69583e-18,0.885088,148.149,30.1015)">
                <path d="M237.796,270.889C232.297,262.012 225.655,257.422 218.171,255.988C219.495,255.124 220.613,253.846 221.442,251.99C210.119,244.803 202.821,242.646 197.454,242.904C195.714,239.633 196.28,236.362 199.999,233.091C191.665,233.102 186.254,234.463 184.371,237.452C179.751,233.655 174.356,233.737 168.742,234.908C168.276,236.866 169.006,238.995 172.013,241.45C162.214,240.853 157.31,243.52 153.478,246.902C151.871,251.335 151.013,255.501 156.385,257.441C151.364,260.615 147.624,263.948 146.573,267.618C145.326,273.026 147.777,276.586 153.478,278.521C151.223,279.975 150.053,281.429 149.782,282.882C152.913,282.683 156.393,284.234 160.02,286.517C158.723,288.534 158.011,290.697 158.7,293.21C163.642,292.52 168.295,294.14 172.74,297.42C185.446,298.74 185.513,301.975 181.826,305.779L172.377,315.592L123.312,307.233L115.68,262.53L118.587,219.28L148.753,206.196L202.543,200.381L239.25,217.463L252.334,238.906L266.872,262.166" style="fill:rgb(141,191,228);"/>
            </g>
            <g transform="matrix(0.927429,-1.13917e-17,5.69583e-18,0.885088,143.151,38.1147)">
                <path d="M195.189,267.574L196.08,271.782C196.579,272.67 196.263,273.797 195.375,274.295C194.486,274.794 193.36,274.478 192.861,273.59C192.087,272.636 191.457,271.723 190.909,270.787C190.24,269.647 189.849,268.503 189.512,267.409C189.37,266.608 189.588,265.784 190.109,265.159C191.281,263.884 192.342,262.771 193.475,262.013C195.057,260.954 196.532,260.379 197.959,260.086C198.908,259.715 199.98,260.185 200.35,261.134C200.721,262.083 200.251,263.155 199.302,263.525C198.746,263.869 198.3,264.372 197.726,264.879C196.909,265.598 196.061,266.47 195.189,267.574Z" style="fill:rgb(38,45,56);"/>
            </g>
            <g transform="matrix(0.927429,-1.13917e-17,5.69583e-18,0.885088,143.151,38.1147)">
                <path d="M206.447,268.8C206.039,262.295 200.113,256.337 192.976,253.206C188.857,251.398 184.38,250.657 180.781,250.769C176.516,250.901 173.338,252.371 172.254,254.846C171.785,255.75 172.138,256.866 173.043,257.335C173.947,257.804 175.063,257.45 175.532,256.546C176.106,255.597 177.448,255.47 179.031,255.402C182.305,255.261 186.605,256.542 190.746,258.359C193.46,259.549 196.13,260.926 198.267,262.696C200.514,264.557 202.312,266.652 202.778,269.215C202.893,270.228 203.808,270.957 204.82,270.842C205.833,270.728 206.562,269.812 206.447,268.8Z" style="fill:rgb(38,45,56);"/>
            </g>
        </g>
        <path d="M311.908,223.134L310.837,221.288C310.316,220.4 310.311,219.319 310.822,218.425C311.334,217.532 312.29,216.953 313.355,216.892C317.755,216.671 321.983,217.273 325.99,218.94C328.792,220.105 331.495,221.784 334.063,224.087L337.374,220.981C338.422,219.983 340.093,219.912 341.23,220.815C344.773,223.684 347.176,227.171 348.637,231.171C349.507,233.553 350.048,236.117 350.3,238.836L354.469,236.473C355.361,235.956 356.494,236.015 357.321,236.622C360.25,238.822 363.239,242.923 366.125,248.846C368.659,254.047 371.184,260.692 373.687,268.646C374.037,269.717 373.41,270.858 372.288,271.192C371.166,271.526 369.971,270.928 369.62,269.858C367.016,262.191 364.428,255.791 361.854,250.796C359.716,246.647 357.632,243.508 355.531,241.52L349.21,245.281C348.4,245.751 347.387,245.768 346.56,245.325C345.733,244.882 345.221,244.047 345.22,243.142C345.174,239.435 344.645,236.007 343.456,232.951C342.554,230.636 341.256,228.546 339.48,226.728L336.086,230.01C335.521,230.549 334.749,230.843 333.95,230.824C333.152,230.806 332.396,230.476 331.859,229.912C329.264,227.229 326.515,225.377 323.627,224.225C322.108,223.62 320.552,223.214 318.962,222.983L320.634,225.805C321.24,226.84 321.15,228.119 320.404,229.067C319.658,230.016 318.396,230.455 317.185,230.187C312.457,229.158 308.044,228.622 303.969,228.631C301.274,228.636 298.733,228.882 296.355,229.389L299.144,231.967C299.952,232.713 300.295,233.806 300.049,234.852C299.804,235.899 299.005,236.748 297.942,237.094C292.75,238.766 288.166,240.611 284.282,242.656C282.577,243.554 281.009,244.487 279.594,245.468L284.522,248.643C285.282,249.127 285.776,249.909 285.87,250.777C285.963,251.645 285.646,252.507 285.004,253.128C282.07,255.925 279.561,258.86 277.747,262.04C276.245,264.673 275.215,267.468 274.828,270.483L280.949,272.641C281.753,272.917 282.379,273.531 282.648,274.305C282.916,275.079 282.797,275.929 282.325,276.608C280.583,279.069 279.618,281.448 279.514,283.785C279.442,285.423 279.788,287.027 280.534,288.602L284.088,286.031C284.884,285.442 285.97,285.361 286.853,285.822C287.737,286.284 288.249,287.202 288.157,288.159C287.874,290.825 287.959,293.171 288.444,295.21C288.82,296.787 289.426,298.172 290.273,299.361L295.684,295.01C296.236,294.556 296.982,294.385 297.69,294.548C298.397,294.712 298.979,295.191 299.252,295.835C299.847,297.282 300.821,298.45 302.18,299.169C303.471,299.852 305.073,300.148 306.938,299.996C308.109,299.889 309.15,300.709 309.262,301.826C309.374,302.943 308.515,303.936 307.345,304.043C304.512,304.331 302.079,303.854 300.092,302.853C298.701,302.153 297.524,301.185 296.583,299.996L291.528,304.237C290.606,304.995 289.231,304.958 288.354,304.153C286.516,302.499 285.136,300.456 284.228,298.011C283.66,296.484 283.284,294.791 283.112,292.926L281.347,294.26C280.784,294.675 280.068,294.854 279.364,294.753C278.66,294.653 278.03,294.282 277.619,293.727C275.166,290.48 274.022,287.097 274.11,283.614C274.168,281.33 274.774,278.99 275.962,276.6L270.846,274.887C269.687,274.489 268.927,273.425 268.96,272.25C269.052,267.604 270.349,263.349 272.525,259.38C274.01,256.673 275.915,254.101 278.139,251.634L272.641,248.179C271.851,247.676 271.344,246.858 271.263,245.955C271.181,245.052 271.535,244.163 272.223,243.539C274.644,241.32 277.646,239.256 281.185,237.354C284.087,235.794 287.36,234.342 290.968,232.99L287.999,230.253C287.221,229.535 286.872,228.494 287.067,227.479C287.263,226.463 287.977,225.609 288.971,225.202C292.587,223.734 296.589,222.88 300.96,222.629C304.38,222.433 308.034,222.605 311.908,223.134Z" style="fill:rgb(38,45,56);"/>
    </g>
    <g transform="matrix(1.27645,0,0,1.27645,-979.16,-1141.49)">
        <g transform="matrix(0.750832,0.030158,-0.0388848,0.9681,304.864,12.74)">
            <path d="M1030.19,1191.44C1030.19,1196.47 1025.48,1205.53 1028.74,1208.91C1032.39,1212.71 1058.91,1215.86 1062.29,1207.14C1064.24,1202.08 1057.01,1194.89 1057.01,1190.57" style="fill:white;"/>
            <path d="M1028.7,1191.44C1028.7,1194.69 1026.7,1199.65 1026.21,1203.63C1025.91,1206.11 1026.23,1208.24 1027.54,1209.6C1028.29,1210.38 1029.81,1211.18 1031.91,1211.85C1036.44,1213.28 1043.8,1214.23 1050.24,1213.78C1056.72,1213.31 1062.21,1211.36 1063.72,1207.47C1064.39,1205.72 1064.14,1203.74 1063.4,1201.7C1061.95,1197.73 1058.5,1193.49 1058.5,1190.57C1058.5,1189.93 1057.83,1189.41 1057.01,1189.41C1056.18,1189.41 1055.52,1189.93 1055.52,1190.57C1055.52,1193.64 1059,1198.14 1060.53,1202.33C1061.1,1203.91 1061.38,1205.45 1060.86,1206.81C1059.67,1209.88 1055.09,1211.11 1049.97,1211.47C1044.89,1211.83 1039.19,1211.25 1035.03,1210.25C1032.59,1209.67 1030.68,1209 1029.93,1208.22C1028.98,1207.23 1028.96,1205.65 1029.18,1203.85C1029.68,1199.8 1031.69,1194.75 1031.69,1191.44C1031.69,1190.8 1031.02,1190.28 1030.19,1190.28C1029.37,1190.28 1028.7,1190.8 1028.7,1191.44Z" style="fill:rgb(38,45,56);"/>
        </g>
        <g transform="matrix(1.13356,-0.0818359,0.0818359,1.13356,-235.123,-63.5956)">
            <path d="M1041.69,1166.97C1036.36,1166.89 1023.46,1167.18 1017.21,1172.68C1013.16,1176.24 1011.95,1184.12 1017.17,1188.3C1020.47,1190.95 1026.02,1190.6 1030.12,1190.5C1041.31,1190.25 1064.9,1194.81 1069.78,1190.88C1073.94,1187.51 1072.73,1180.14 1069.12,1175.88C1063.94,1169.77 1053.24,1167.12 1041.69,1166.97Z" style="fill:rgb(222,208,203);"/>
            <path d="M1041.71,1165.46C1038.32,1165.41 1031.95,1165.52 1026.07,1166.94C1022.31,1167.85 1018.75,1169.31 1016.21,1171.55C1013.83,1173.64 1012.29,1177.03 1012.19,1180.49C1012.1,1183.79 1013.3,1187.13 1016.23,1189.48C1017.77,1190.71 1019.73,1191.41 1021.85,1191.75C1024.61,1192.2 1027.64,1192.07 1030.15,1192.01C1038.23,1191.83 1052.78,1194.16 1062.08,1193.98C1066.09,1193.91 1069.2,1193.28 1070.72,1192.05C1072.82,1190.36 1073.82,1187.83 1073.91,1185.08C1074.02,1181.55 1072.59,1177.65 1070.27,1174.91C1067.78,1171.97 1064.11,1169.76 1059.69,1168.23C1054.5,1166.42 1048.24,1165.55 1041.71,1165.46ZM1041.67,1168.47C1047.85,1168.56 1053.78,1169.36 1058.71,1171.07C1062.57,1172.41 1065.8,1174.29 1067.97,1176.86C1069.52,1178.68 1070.57,1181.14 1070.84,1183.55C1071.1,1185.93 1070.6,1188.27 1068.83,1189.71C1067.16,1191.05 1063.08,1191.11 1058.11,1190.92C1048.99,1190.56 1037.1,1188.84 1030.08,1189C1027.74,1189.05 1024.91,1189.2 1022.33,1188.78C1020.75,1188.52 1019.26,1188.05 1018.11,1187.12C1015.98,1185.42 1015.14,1182.97 1015.21,1180.57C1015.28,1177.96 1016.4,1175.39 1018.2,1173.81C1020.41,1171.87 1023.51,1170.66 1026.77,1169.87C1032.38,1168.51 1038.45,1168.43 1041.67,1168.47Z" style="fill:rgb(38,45,56);"/>
        </g>
        <g transform="matrix(0.939934,-0.169558,0.235637,1.30623,-210.149,-171.644)">
            <path d="M1025.83,1161.76C1024.03,1167.9 1057.04,1175.43 1057.62,1165.58C1058.3,1154.13 1029.07,1150.65 1025.83,1161.76Z" style="fill:rgb(38,45,56);"/>
            <path d="M1023.96,1161.48C1023.55,1162.89 1024.31,1164.4 1026.14,1165.8C1029.71,1168.53 1037.67,1170.98 1044.8,1171.57C1052.64,1172.22 1059.24,1170.49 1059.53,1165.64C1059.9,1159.29 1052.27,1154.99 1043.81,1153.9C1035.08,1152.78 1025.83,1155.11 1023.96,1161.48ZM1027.69,1162.04C1029.11,1157.16 1036.45,1155.73 1043.14,1156.6C1049.74,1157.44 1056.02,1160.57 1055.72,1165.52C1055.53,1168.82 1050.56,1169.29 1045.23,1168.85C1039.92,1168.41 1034.06,1166.85 1030.48,1164.92C1028.72,1163.97 1027.39,1163.05 1027.69,1162.04Z" style="fill:rgb(38,45,56);"/>
        </g>
    </g>
    <g transform="matrix(0.945663,0,0,0.929747,-641.575,-751.699)">
        <g transform="matrix(1.25817,0,0,1.3565,-316.71,-423.983)">
            <path d="M1229.68,1046.91C1202.76,1039.43 1170.58,1038.38 1144.75,1059.98C1091.3,1104.66 1123.07,1187.7 1186.18,1207.81C1208.32,1214.86 1238.69,1210.74 1258.44,1196.92C1320.35,1153.6 1295.95,1065.31 1229.68,1046.91Z" style="fill:white;"/>
            <clipPath id="_clip4">
                <path d="M1229.68,1046.91C1202.76,1039.43 1170.58,1038.38 1144.75,1059.98C1091.3,1104.66 1123.07,1187.7 1186.18,1207.81C1208.32,1214.86 1238.69,1210.74 1258.44,1196.92C1320.35,1153.6 1295.95,1065.31 1229.68,1046.91Z"/>
            </clipPath>
            <g clip-path="url(#_clip4)">
                <g transform="matrix(0.872195,0,0,0.831309,128.549,177.106)">
                    <path d="M1231.22,1038.69C1314.52,1063.85 1327.56,1134.64 1296.41,1182.81C1260.38,1238.53 1148.23,1204.3 1137.66,1155.55L1118.36,1264.52L1372.79,1274.17L1390.89,1144.63L1355.7,1017.6C1355.7,1017.6 1146.6,1013.13 1231.22,1038.69Z" style="fill-opacity:0.06;"/>
                </g>
            </g>
            <path d="M1230.06,1045.7C1215.93,1041.68 1200.35,1039.43 1184.96,1041.2C1170.53,1042.86 1156.27,1048.05 1143.46,1058.61C1115.65,1081.51 1109.95,1114.56 1119.39,1144.41C1128.73,1173.93 1152.94,1200.27 1185.14,1210.73C1196.79,1214.49 1210.64,1215.32 1224.16,1213.3C1237.39,1211.33 1250.28,1206.63 1260.47,1199.5C1291.77,1177.19 1301.5,1143.84 1294.91,1113.49C1288.19,1082.57 1264.53,1054.85 1230.06,1045.7ZM1229.3,1048.12C1262.12,1057.64 1284.14,1084.64 1289.93,1114.4C1295.48,1142.89 1286.06,1173.97 1256.41,1194.34C1247.07,1200.88 1235.22,1205.11 1223.09,1206.96C1210.68,1208.85 1197.95,1208.26 1187.23,1204.89C1156.72,1195.37 1133.69,1170.69 1124.48,1142.95C1115.12,1114.78 1120.03,1083.41 1146.03,1061.35C1158.1,1051.12 1171.64,1046 1185.37,1044.25C1200.33,1042.34 1215.51,1044.38 1229.3,1048.12Z" style="fill:rgb(38,45,56);"/>
        </g>
        <g transform="matrix(1.42135,0,0,0.774093,-38.8994,239.993)">
            <ellipse cx="899.8" cy="1086.89" rx="16.372" ry="29.47" style="fill:rgb(38,45,56);"/>
            <path d="M899.8,1053.46C894.74,1053.31 890.13,1056.88 886.734,1062.71C883.19,1068.8 881.004,1077.39 880.938,1086.89C880.9,1096.47 883.045,1105.18 886.557,1111.42C889.959,1117.47 894.648,1121.16 899.8,1121.14C904.938,1121.07 909.59,1117.33 912.967,1111.27C916.44,1105.04 918.582,1096.4 918.54,1086.89C918.49,1077.44 916.318,1068.9 912.81,1062.82C909.438,1056.98 904.849,1053.37 899.8,1053.46ZM899.8,1061.38C903.68,1061.45 907.181,1064.33 909.725,1068.91C912.278,1073.51 913.842,1079.89 913.805,1086.89C913.774,1093.84 912.142,1100.09 909.569,1104.57C907.042,1108.96 903.591,1111.64 899.8,1111.59C896.025,1111.57 892.614,1108.82 890.109,1104.41C887.571,1099.95 885.946,1093.78 885.919,1086.89C885.87,1079.94 887.41,1073.61 889.932,1069.02C892.457,1064.43 895.932,1061.5 899.8,1061.38Z" style="fill:rgb(38,45,56);"/>
        </g>
        <g transform="matrix(0.84684,0,0,0.481289,465.596,542.146)">
            <ellipse cx="899.8" cy="1086.89" rx="16.372" ry="29.47" style="fill:white;"/>
        </g>
    </g>
    <g transform="matrix(1.02198,0,0,0.98596,-1030.62,-802.905)">
        <g transform="matrix(-1.25817,0,0,1.3565,2717.71,-423.983)">
            <path d="M1229.68,1046.91C1202.76,1039.43 1170.58,1038.38 1144.75,1059.98C1091.3,1104.66 1123.07,1187.7 1186.18,1207.81C1208.32,1214.86 1238.69,1210.74 1258.44,1196.92C1320.35,1153.6 1295.95,1065.31 1229.68,1046.91Z" style="fill:white;"/>
            <clipPath id="_clip5">
                <path d="M1229.68,1046.91C1202.76,1039.43 1170.58,1038.38 1144.75,1059.98C1091.3,1104.66 1123.07,1187.7 1186.18,1207.81C1208.32,1214.86 1238.69,1210.74 1258.44,1196.92C1320.35,1153.6 1295.95,1065.31 1229.68,1046.91Z"/>
            </clipPath>
            <g clip-path="url(#_clip5)">
                <g transform="matrix(0.872195,0,0,0.831309,128.549,177.106)">
                    <path d="M1218.51,1039.68C1307.51,1051.24 1328.94,1119.73 1310,1165.01C1284.62,1225.66 1177.11,1224.51 1139.33,1170.99L1229.13,1299.07L1372.79,1274.17L1390.89,1144.63L1355.7,1017.6C1355.7,1017.6 1130.69,1028.27 1218.51,1039.68Z" style="fill-opacity:0.06;"/>
                </g>
            </g>
            <path d="M1230.02,1045.77C1264.36,1054.9 1287.93,1082.5 1294.67,1113.29C1301.32,1143.65 1291.63,1177.06 1260.29,1199.36C1250.13,1206.48 1237.27,1211.16 1224.07,1213.13C1210.62,1215.13 1196.83,1214.31 1185.23,1210.57C1153.19,1200.16 1129.07,1174.01 1119.67,1144.66C1110.11,1114.77 1115.72,1081.63 1143.57,1058.67C1156.36,1048.11 1170.62,1042.93 1185.05,1041.28C1200.4,1039.52 1215.93,1041.77 1230.02,1045.77ZM1229.34,1048.06C1215.55,1044.31 1200.37,1042.26 1185.42,1044.15C1171.63,1045.9 1158.04,1051.02 1145.92,1061.28C1119.8,1083.43 1114.9,1114.96 1124.37,1143.24C1133.64,1170.93 1156.67,1195.53 1187.13,1205.05C1197.89,1208.44 1210.65,1209.03 1223.09,1207.14C1235.29,1205.29 1247.19,1201.05 1256.59,1194.47C1286.35,1174.01 1295.75,1142.77 1290.08,1114.17C1284.2,1084.46 1262.13,1057.55 1229.34,1048.06Z" style="fill:rgb(38,45,56);"/>
        </g>
        <g transform="matrix(1.42135,0,0,0.774093,-96.2861,249.695)">
            <ellipse cx="899.8" cy="1086.89" rx="16.372" ry="29.47" style="fill:rgb(38,45,56);"/>
            <path d="M899.8,1053.69C894.821,1053.55 890.283,1057.05 886.931,1062.76C883.377,1068.81 881.185,1077.39 881.124,1086.89C881.089,1096.46 883.244,1105.16 886.769,1111.36C890.128,1117.28 894.737,1120.88 899.8,1120.86C904.85,1120.81 909.425,1117.14 912.761,1111.22C916.25,1105.02 918.401,1096.4 918.363,1086.89C918.318,1077.44 916.138,1068.91 912.619,1062.86C909.287,1057.13 904.769,1053.6 899.8,1053.69ZM899.8,1061.16C903.704,1061.23 907.233,1064.09 909.807,1068.68C912.412,1073.33 914.016,1079.78 913.982,1086.89C913.953,1093.95 912.287,1100.28 909.664,1104.81C907.106,1109.23 903.623,1111.91 899.8,1111.86C895.991,1111.85 892.545,1109.09 890.007,1104.67C887.417,1100.15 885.758,1093.89 885.733,1086.89C885.688,1079.83 887.27,1073.42 889.845,1068.79C892.402,1064.18 895.906,1061.27 899.8,1061.16Z" style="fill:rgb(38,45,56);"/>
        </g>
        <g transform="matrix(0.84684,0,0,0.481289,408.209,551.847)">
            <ellipse cx="899.8" cy="1086.89" rx="16.372" ry="29.47" style="fill:white;"/>
        </g>
    </g>
    <g transform="matrix(1.22794,0,0,1.22794,-309.374,-255.93)">
        <path d="M556.788,541.26C622.817,521.669 704.969,457.853 704.969,457.853C704.969,457.853 736.025,516.415 775.067,543.922C760.596,676.378 655.657,731.32 655.657,731.32C650.412,734.144 565.244,625.097 556.788,541.26Z" style="fill:rgb(0,245,131);"/>
        <clipPath id="_clip6">
            <path d="M556.788,541.26C622.817,521.669 704.969,457.853 704.969,457.853C704.969,457.853 736.025,516.415 775.067,543.922C760.596,676.378 655.657,731.32 655.657,731.32C650.412,734.144 565.244,625.097 556.788,541.26Z"/>
        </clipPath>
        <g clip-path="url(#_clip6)">
            <g transform="matrix(1.26413,-0.387381,0.387586,1.40355,-561.978,-295.984)">
                <g transform="matrix(1,0,0,1,-49.3119,-1.86083)">
                    <path d="M744.778,838.689C744.778,838.689 750.361,803.566 754.315,800.309C758.269,797.053 801.301,799.844 806.883,804.031C812.466,808.218 812.466,833.106 812.466,841.48C812.466,849.854 807.349,872.882 801.068,879.394C794.788,885.907 750.826,879.86 747.57,876.371C744.313,872.882 744.778,838.689 744.778,838.689Z" style="fill:rgb(0,245,131);"/>
                    <path d="M743.115,838.43C743.105,838.495 743.099,838.561 743.098,838.627C743.098,838.627 742.985,854.04 743.896,865.266C744.205,869.071 744.635,872.404 745.218,874.534C745.57,875.817 746.023,876.729 746.473,877.206C746.974,877.737 748.2,878.395 750.058,878.982C755.814,880.8 768.43,882.76 779.794,883.297C785.717,883.577 791.301,883.472 795.41,882.777C798.516,882.252 800.82,881.35 801.986,880.13C804.661,877.339 807.156,871.633 809.12,865.281C811.84,856.487 813.593,846.462 813.585,841.508C813.595,836.1 813.604,823.84 812.14,814.642C811.273,809.195 809.766,804.803 807.636,803.195C804.835,801.078 792.827,799.152 780.797,798.247C772.601,797.63 764.406,797.441 759.227,797.871C756.213,798.121 754.127,798.686 753.334,799.332C752.815,799.755 752.23,800.594 751.672,801.799C750.701,803.897 749.676,807.245 748.687,811.094C745.752,822.518 743.115,838.43 743.115,838.43ZM746.457,838.849C746.432,840.177 746.19,854.545 746.925,865.154C747.175,868.773 747.533,871.945 748.064,873.975C748.256,874.707 748.413,875.261 748.666,875.535C748.849,875.733 749.258,875.901 749.805,876.119C750.834,876.531 752.27,876.958 754.006,877.383C760.342,878.932 770.534,880.423 779.868,880.938C785.566,881.252 790.942,881.207 794.903,880.569C797.346,880.176 799.225,879.61 800.15,878.659C802.691,876.04 805.013,870.642 806.895,864.657C809.592,856.079 811.339,846.291 811.347,841.452C811.337,836.104 811.328,823.98 809.834,814.892C809.055,810.154 807.994,806.256 806.131,804.867C805.355,804.289 803.761,803.787 801.637,803.289C796.551,802.095 788.606,801.149 780.665,800.614C772.647,800.074 764.633,799.953 759.575,800.419C757.417,800.618 755.86,800.818 755.297,801.287C754.978,801.552 754.694,802.115 754.357,802.865C753.453,804.876 752.52,808.085 751.621,811.77C748.974,822.61 746.664,837.502 746.457,838.849Z" style="fill:rgb(14,58,37);"/>
                </g>
                <g transform="matrix(1,0,0,1,-45.032,-1.48866)">
                    <path d="M756.411,841.505C762.859,842.308 769.315,842.793 775.781,843.099C780.3,843.313 784.823,843.448 789.35,843.569C790.512,843.6 791.674,843.647 792.836,843.651C793.613,843.654 794.385,843.625 795.162,843.613C795.362,843.62 795.528,843.478 795.53,843.296C795.533,843.114 795.372,842.96 795.171,842.952C794.446,842.886 793.727,842.804 793.001,842.756C790.109,842.564 787.214,842.502 784.323,842.397C778.901,842.2 773.485,842.028 768.073,841.688C764.214,841.446 760.357,841.137 756.502,840.7C756.257,840.671 756.037,840.828 756.012,841.05C755.986,841.272 756.165,841.476 756.411,841.505Z" style="fill:rgb(14,58,37);"/>
                </g>
                <g transform="matrix(1.3381,0.0949354,-0.13189,1.85896,-208.815,-780.24)">
                    <ellipse cx="793.579" cy="814.295" rx="4.768" ry="2.559" style="fill:rgb(14,58,37);"/>
                    <path d="M793.578,811.666C792.315,811.66 791.162,811.914 790.291,812.333C789.291,812.815 788.664,813.515 788.656,814.293C788.65,815.077 789.272,815.786 790.273,816.278C791.146,816.707 792.307,816.969 793.582,816.971C794.857,816.969 796.019,816.707 796.892,816.278C797.89,815.787 798.51,815.079 798.504,814.296C798.496,813.515 797.867,812.813 796.862,812.331C795.992,811.913 794.839,811.66 793.578,811.666ZM793.581,811.806C794.786,811.812 795.882,812.063 796.705,812.47C797.622,812.923 798.199,813.573 798.191,814.293C798.186,815.01 797.601,815.651 796.682,816.096C795.86,816.495 794.771,816.737 793.577,816.735C792.385,816.737 791.298,816.496 790.477,816.099C789.557,815.654 788.971,815.013 788.966,814.296C788.958,813.575 789.535,812.926 790.452,812.471C791.276,812.063 792.374,811.812 793.581,811.806Z" style="fill:rgb(14,58,37);"/>
                </g>
                <g transform="matrix(1.3381,0.0949354,-0.13189,1.85896,-208.112,-768.955)">
                    <ellipse cx="793.579" cy="814.295" rx="4.768" ry="2.559" style="fill:rgb(14,58,37);"/>
                    <path d="M793.578,811.666C792.315,811.66 791.162,811.914 790.291,812.333C789.291,812.815 788.664,813.515 788.656,814.293C788.65,815.077 789.272,815.786 790.273,816.278C791.146,816.707 792.307,816.969 793.582,816.971C794.857,816.969 796.019,816.707 796.892,816.278C797.89,815.787 798.51,815.079 798.504,814.296C798.496,813.515 797.867,812.813 796.862,812.331C795.992,811.913 794.839,811.66 793.578,811.666ZM793.581,811.806C794.786,811.812 795.882,812.063 796.705,812.47C797.622,812.923 798.199,813.573 798.191,814.293C798.186,815.01 797.601,815.651 796.682,816.096C795.86,816.495 794.771,816.737 793.577,816.735C792.385,816.737 791.298,816.496 790.477,816.099C789.557,815.654 788.971,815.013 788.966,814.296C788.958,813.575 789.535,812.926 790.452,812.471C791.276,812.063 792.374,811.812 793.581,811.806Z" style="fill:rgb(14,58,37);"/>
                </g>
                <g transform="matrix(1.3381,0.0949354,-0.13189,1.85896,-207.519,-757.559)">
                    <ellipse cx="793.579" cy="814.295" rx="4.768" ry="2.559" style="fill:rgb(14,58,37);"/>
                    <path d="M793.578,811.666C792.315,811.66 791.162,811.914 790.291,812.333C789.291,812.815 788.664,813.515 788.656,814.293C788.65,815.077 789.272,815.786 790.273,816.278C791.146,816.707 792.307,816.969 793.582,816.971C794.857,816.969 796.019,816.707 796.892,816.278C797.89,815.787 798.51,815.079 798.504,814.296C798.496,813.515 797.867,812.813 796.862,812.331C795.992,811.913 794.839,811.66 793.578,811.666ZM793.581,811.806C794.786,811.812 795.882,812.063 796.705,812.47C797.622,812.923 798.199,813.573 798.191,814.293C798.186,815.01 797.601,815.651 796.682,816.096C795.86,816.495 794.771,816.737 793.577,816.735C792.385,816.737 791.298,816.496 790.477,816.099C789.557,815.654 788.971,815.013 788.966,814.296C788.958,813.575 789.535,812.926 790.452,812.471C791.276,812.063 792.374,811.812 793.581,811.806Z" style="fill:rgb(14,58,37);"/>
                </g>
                <g transform="matrix(1.20614,0.0055365,-0.00759979,1.65563,-203.767,-502.583)">
                    <ellipse cx="793.579" cy="814.295" rx="4.768" ry="2.559" style="fill:rgb(14,58,37);"/>
                    <path d="M793.576,811.657C792.316,811.65 791.165,811.902 790.293,812.318C789.281,812.801 788.648,813.507 788.639,814.292C788.632,815.084 789.264,815.802 790.279,816.297C791.153,816.723 792.313,816.984 793.585,816.986C794.858,816.984 796.019,816.723 796.893,816.296C797.902,815.802 798.528,815.087 798.521,814.298C798.512,813.509 797.873,812.8 796.854,812.315C795.983,811.9 794.833,811.65 793.576,811.657ZM793.583,811.815C794.778,811.821 795.865,812.069 796.684,812.472C797.603,812.924 798.183,813.572 798.174,814.291C798.168,815.007 797.58,815.646 796.66,816.089C795.841,816.483 794.76,816.722 793.574,816.72C792.393,816.723 791.316,816.486 790.499,816.094C789.577,815.653 788.989,815.013 788.983,814.298C788.975,813.577 789.553,812.929 790.471,812.476C791.292,812.071 792.383,811.821 793.583,811.815Z" style="fill:rgb(14,58,37);"/>
                </g>
                <g transform="matrix(1.28887,0.128456,-0.162292,1.62837,-160.665,-568.399)">
                    <ellipse cx="793.579" cy="814.295" rx="4.768" ry="2.559" style="fill:rgb(14,58,37);"/>
                    <path d="M793.578,811.656C792.356,811.65 791.235,811.887 790.375,812.282C789.321,812.767 788.659,813.489 788.651,814.294C788.645,815.104 789.302,815.836 790.357,816.333C791.219,816.739 792.347,816.985 793.581,816.987C794.816,816.985 795.945,816.739 796.807,816.333C797.86,815.837 798.516,815.105 798.51,814.296C798.501,813.489 797.837,812.765 796.78,812.28C795.92,811.886 794.8,811.649 793.578,811.656ZM793.58,811.815C794.749,811.822 795.816,812.059 796.63,812.446C797.585,812.899 798.193,813.558 798.186,814.294C798.18,815.025 797.565,815.674 796.609,816.117C795.796,816.494 794.736,816.721 793.578,816.719C792.421,816.721 791.362,816.495 790.55,816.12C789.593,815.677 788.977,815.027 788.971,814.296C788.964,813.56 789.571,812.9 790.526,812.447C791.341,812.059 792.409,811.822 793.58,811.815Z" style="fill:rgb(14,58,37);"/>
                </g>
                <g transform="matrix(1.30819,0.0326824,-0.0414088,1.65748,-292.354,-507.233)">
                    <ellipse cx="793.579" cy="814.295" rx="4.768" ry="2.559" style="fill:rgb(14,58,37);"/>
                    <path d="M793.577,811.657C792.353,811.651 791.232,811.888 790.372,812.284C789.32,812.768 788.66,813.489 788.652,814.292C788.646,815.103 789.306,815.836 790.362,816.332C791.224,816.737 792.351,816.983 793.584,816.986C794.819,816.984 795.949,816.737 796.811,816.33C797.86,815.835 798.514,815.105 798.508,814.297C798.499,813.49 797.834,812.766 796.775,812.28C795.916,811.887 794.797,811.65 793.577,811.657ZM793.582,811.814C794.75,811.821 795.816,812.058 796.63,812.443C797.587,812.896 798.195,813.556 798.188,814.292C798.182,815.023 797.567,815.673 796.611,816.117C795.798,816.494 794.736,816.723 793.575,816.721C792.419,816.723 791.362,816.497 790.549,816.122C789.591,815.68 788.975,815.029 788.969,814.297C788.962,813.561 789.569,812.901 790.524,812.447C791.34,812.059 792.409,811.821 793.582,811.814Z" style="fill:rgb(14,58,37);"/>
                </g>
                <g transform="matrix(1.3381,0.0949354,-0.13189,1.85896,-238.855,-759.134)">
                    <ellipse cx="793.579" cy="814.295" rx="4.768" ry="2.559" style="fill:rgb(14,58,37);"/>
                    <path d="M793.578,811.666C792.315,811.66 791.162,811.914 790.291,812.333C789.291,812.815 788.664,813.515 788.656,814.293C788.65,815.077 789.272,815.786 790.273,816.278C791.146,816.707 792.307,816.969 793.582,816.971C794.857,816.969 796.019,816.707 796.892,816.278C797.89,815.787 798.51,815.079 798.504,814.296C798.496,813.515 797.867,812.813 796.862,812.331C795.992,811.913 794.839,811.66 793.578,811.666ZM793.581,811.806C794.786,811.812 795.882,812.063 796.705,812.47C797.622,812.923 798.199,813.573 798.191,814.293C798.186,815.01 797.601,815.651 796.682,816.096C795.86,816.495 794.771,816.737 793.577,816.735C792.385,816.737 791.298,816.496 790.477,816.099C789.557,815.654 788.971,815.013 788.966,814.296C788.958,813.575 789.535,812.926 790.452,812.471C791.276,812.063 792.374,811.812 793.581,811.806Z" style="fill:rgb(14,58,37);"/>
                </g>
                <g transform="matrix(1.3381,0.0949354,-0.13189,1.85896,-237.19,-770.926)">
                    <ellipse cx="793.579" cy="814.295" rx="4.768" ry="2.559" style="fill:rgb(14,58,37);"/>
                    <path d="M793.578,811.666C792.315,811.66 791.162,811.914 790.291,812.333C789.291,812.815 788.664,813.515 788.656,814.293C788.65,815.077 789.272,815.786 790.273,816.278C791.146,816.707 792.307,816.969 793.582,816.971C794.857,816.969 796.019,816.707 796.892,816.278C797.89,815.787 798.51,815.079 798.504,814.296C798.496,813.515 797.867,812.813 796.862,812.331C795.992,811.913 794.839,811.66 793.578,811.666ZM793.581,811.806C794.786,811.812 795.882,812.063 796.705,812.47C797.622,812.923 798.199,813.573 798.191,814.293C798.186,815.01 797.601,815.651 796.682,816.096C795.86,816.495 794.771,816.737 793.577,816.735C792.385,816.737 791.298,816.496 790.477,816.099C789.557,815.654 788.971,815.013 788.966,814.296C788.958,813.575 789.535,812.926 790.452,812.471C791.276,812.063 792.374,811.812 793.581,811.806Z" style="fill:rgb(14,58,37);"/>
                </g>
                <g transform="matrix(1.3381,0.0949354,-0.13189,1.85896,-235.782,-782.192)">
                    <ellipse cx="793.579" cy="814.295" rx="4.768" ry="2.559" style="fill:rgb(14,58,37);"/>
                    <path d="M793.578,811.666C792.315,811.66 791.162,811.914 790.291,812.333C789.291,812.815 788.664,813.515 788.656,814.293C788.65,815.077 789.272,815.786 790.273,816.278C791.146,816.707 792.307,816.969 793.582,816.971C794.857,816.969 796.019,816.707 796.892,816.278C797.89,815.787 798.51,815.079 798.504,814.296C798.496,813.515 797.867,812.813 796.862,812.331C795.992,811.913 794.839,811.66 793.578,811.666ZM793.581,811.806C794.786,811.812 795.882,812.063 796.705,812.47C797.622,812.923 798.199,813.573 798.191,814.293C798.186,815.01 797.601,815.651 796.682,816.096C795.86,816.495 794.771,816.737 793.577,816.735C792.385,816.737 791.298,816.496 790.477,816.099C789.557,815.654 788.971,815.013 788.966,814.296C788.958,813.575 789.535,812.926 790.452,812.471C791.276,812.063 792.374,811.812 793.581,811.806Z" style="fill:rgb(14,58,37);"/>
                </g>
            </g>
            <g transform="matrix(0.814375,0,0,0.814375,111.281,110.305)">
                <path d="M913.686,583.469C873.765,542.051 839.239,467.193 833.521,507.977C824.07,575.385 746.005,595.254 702.994,617.175C630.311,610.513 567.839,582.905 533.364,554.844L646.309,919.361L913.686,583.469Z" style="fill:rgb(11,160,67);fill-opacity:0.45;"/>
            </g>
        </g>
        <path d="M555.641,537.396C553.786,537.946 552.583,539.738 552.777,541.664C556.311,575.016 571.795,612.264 589.676,645.02C609.842,681.959 633.003,713.177 645.194,726.523C648.842,730.516 651.655,732.988 653.205,733.799C654.949,734.713 656.303,734.42 657.094,733.99C657.063,734.006 703.987,709.218 739.745,653.179C757.699,625.042 772.922,589.044 777.855,544.227L776.682,541.629C765.188,533.476 754.418,522.568 744.962,511.302C722.748,484.835 707.781,456.361 707.781,456.361C707.341,455.531 706.556,454.937 705.637,454.74C704.718,454.543 703.758,454.762 703.016,455.339C703.016,455.339 663.597,485.678 617.488,510.658C597.231,521.632 575.678,531.567 555.641,537.396ZM703.982,462.624C694.007,470.215 659.897,495.517 621.014,517.09C601.453,527.942 580.688,537.846 561.15,544.119C564.136,569.328 573.881,596.681 586.078,622.413C606.556,665.615 633.948,704.264 648.341,720.798C651.127,723.999 654.294,726.898 655.486,727.959C663.03,723.74 703.601,699.519 735.173,650.255C752.572,623.107 767.157,588.34 772.095,545.25C760.671,537.016 749.934,526.242 740.46,515.107C722.236,493.687 708.703,470.939 703.982,462.624Z" style="fill:rgb(14,58,37);"/>
    </g>
</svg>
