<!--?xml version="1.0" encoding="UTF-8" standalone="no"?-->
<!-- Created with Inkscape (http://www.inkscape.org/) -->

<svg xmlns:osb="http://www.openswatchbook.org/uri/2009/osb" xmlns:dc="http://purl.org/dc/elements/1.1/" xmlns:cc="http://creativecommons.org/ns#" xmlns:rdf="http://www.w3.org/1999/02/22-rdf-syntax-ns#" xmlns:svg="http://www.w3.org/2000/svg" xmlns="http://www.w3.org/2000/svg" xmlns:xlink="http://www.w3.org/1999/xlink" xmlns:sodipodi="http://sodipodi.sourceforge.net/DTD/sodipodi-0.dtd" xmlns:inkscape="http://www.inkscape.org/namespaces/inkscape" width="134.43036mm" height="200.72574mm" viewBox="0 0 476.32805 711.23293" id="svg4273" version="1.1" inkscape:version="0.92.1 r15371" sodipodi:docname="king.svg" style="enable-background:new">
  <defs id="defs4275">
    
    
    
    
    
    
    
    
    
    
    
    <inkscape:path-effect effect="skeletal" id="path-effect5924" is_visible="true" pattern="m 58,289.5 h 1" copytype="single_stretched" prop_scale="1" scale_y_rel="false" spacing="0" normal_offset="0" tang_offset="0" prop_units="false" vertical_pattern="false" fuse_tolerance="0" pattern-nodetypes="cc"></inkscape:path-effect>
    <inkscape:path-effect effect="skeletal" id="path-effect5904" is_visible="true" pattern="M 69,289 C 112.55049,120.90047 112.47815,38.898644 54.740115,70.710678" copytype="repeated" prop_scale="1" scale_y_rel="false" spacing="0" normal_offset="0" tang_offset="0" prop_units="false" vertical_pattern="false" fuse_tolerance="0" pattern-nodetypes="cc"></inkscape:path-effect>
    
    
    
    
    
    
    <clipPath clipPathUnits="userSpaceOnUse" id="clipPath7080">
      <path style="color:#000000;clip-rule:nonzero;display:inline;overflow:visible;opacity:1;isolation:auto;mix-blend-mode:normal;color-interpolation:sRGB;color-interpolation-filters:linearRGB;solid-color:#000000;solid-opacity:1;fill:#000000;fill-opacity:1;fill-rule:nonzero;stroke:none;stroke-width:5;stroke-linecap:butt;stroke-linejoin:miter;stroke-miterlimit:1;stroke-dasharray:5, 10;stroke-dashoffset:0;stroke-opacity:1;color-rendering:auto;image-rendering:auto;shape-rendering:auto;text-rendering:auto;enable-background:accumulate" d="m 385.04492,62.314453 c -3.79569,-0.02457 -7.63404,0.197782 -11.47461,0.679688 -13.71739,1.721229 -22.0111,4.669385 -32.11133,11.414062 -16.08722,10.742633 -17.58981,10.345162 39.42188,10.449219 30.98994,0.05656 52.05433,0.658539 54.66211,1.5625 5.84791,2.027122 6.13611,1.161518 1.31055,-3.931641 C 424.8245,69.792182 405.54164,62.44711 385.04492,62.314453 Z m -4.87304,27.490235 c -15.8006,-0.0072 -31.50099,0.443381 -38.54297,1.357421 -14.56378,1.890361 -26.64697,5.490302 -27.72071,8.259766 -1.54859,3.994215 -3.20027,14.337155 -2.28125,14.285155 0.48294,-0.0273 5.0145,-0.98621 10.07032,-2.13086 21.50922,-4.86973 105.02911,-3.96665 123.74414,1.33789 11.63176,3.29688 12.4906,3.08215 11.3789,-2.84375 -1.97863,-10.546982 -2.58285,-11.1479 -14.42773,-14.371091 -6.10136,-1.660285 -16.48512,-3.686673 -23.07617,-4.501953 -7.44277,-0.920635 -23.34394,-1.385385 -39.14453,-1.392578 z m -1.0918,24.992192 c -18.63488,0.039 -36.6756,1.05983 -47.48242,3.14843 -21.97265,4.2466 -40.56182,14.42832 -65.43946,35.83985 -31.21328,26.86445 -57.79921,76.82091 -73.14843,137.45507 -7.72095,30.50014 -10.20962,49.33367 -10.97266,83.00391 -1.32605,58.51464 7.93306,100.72323 33.59961,153.16992 22.4714,45.91775 47.32958,77.42966 77.83984,98.67578 8.14721,5.6734 10.27173,6.4701 19.73633,7.39258 5.83363,0.56857 20.15305,3.50642 31.82031,6.52735 20.84562,5.3974 21.58016,5.48317 42.42578,4.97656 18.66852,-0.45371 23.58778,-1.12214 41.01172,-5.56445 10.88945,-2.7763 24.4775,-5.49634 30.19532,-6.04493 9.79907,-0.94017 11.01687,-1.45934 21.21289,-9.06054 40.11608,-29.90676 77.61908,-89.51133 95.67382,-152.05664 7.76024,-26.88305 9.67284,-42.39387 9.76954,-79.19532 0.0893,-33.98962 -0.66492,-43.16134 -6.38477,-77.52929 C 568.62875,253.59465 544.56852,200.50553 510.79492,165.17773 487.6878,141.00727 463.50337,125.39463 439.78516,119.33594 427.9801,116.3204 403.0392,114.74672 379.08008,114.79688 Z M 218.34375,553.58984 c -1.26184,-0.019 -6.81089,25.37961 -9.22461,42.22071 -4.4671,31.16797 -4.71087,94.28536 -0.5293,137.01757 1.0085,10.30608 2.23822,18.74024 2.73243,18.74024 0.49422,0 2.69548,-5.5691 4.89257,-12.375 10.13595,-31.39801 25.39741,-58.49311 42.67774,-75.77344 9.07005,-9.07004 23.68899,-19.86996 32.04687,-23.67383 2.139,-0.9735 3.85902,-2.14499 3.82422,-2.60351 -0.0348,-0.45851 -5.18237,-4.65145 -11.43945,-9.31836 -19.78821,-14.75924 -41.68968,-39.25008 -58.5,-65.41602 -3.11127,-4.84281 -6.02776,-8.81136 -6.48047,-8.81836 z m 331.62891,4.50196 c -1.39463,0.2818 -4.34957,4.04895 -11.44532,14.06445 -18.08838,25.53136 -34.41616,42.92773 -53.95117,57.48437 -6.31817,4.70804 -8.39588,6.98865 -7.07031,7.75977 29.80309,17.33726 45.43162,34.65208 61.23633,67.8457 7.34795,15.43242 15.14201,36.90088 17.24609,47.5 l 1.0293,5.18555 1,-6.5957 c 5.10364,-33.68705 6.21189,-108.14183 2.12304,-142.60352 -2.2407,-18.88519 -6.71936,-43.1596 -9.19921,-49.86328 -0.21391,-0.57824 -0.50388,-0.87128 -0.96875,-0.77734 z m -239.74024,82.75195 0.95313,7.63281 c 2.03035,16.26454 12.70359,39.33724 21.70117,46.90821 3.62241,3.04805 13.57903,6.23954 26.99414,8.65234 1.94455,0.34974 15.94584,0.43387 31.11328,0.1875 32.97018,-0.53556 42.13993,-2.40267 48.92188,-9.96289 9.28896,-10.3549 17.54687,-32.11093 17.54687,-46.22852 0,-6.52679 -0.14924,-6.77539 -4.08789,-6.77539 -2.24831,0 -10.36238,1.66818 -18.03125,3.70508 -41.06256,10.90648 -58.90816,11.29016 -88.89648,1.91406 -8.0182,-2.50696 -18.92239,-4.76982 -25.17969,-5.22656 z m 131.91797,59.73437 -10.20117,2.82618 c -28.02947,7.76737 -69.6348,6.87907 -100.01172,-2.13672 -2.6704,-0.79256 -5.1299,0.99551 -14.9668,10.88672 -13.02965,13.10159 -19.33067,23.94067 -20.40234,35.09375 l -0.65039,6.78125 7.58594,3.68164 c 9.10635,4.42028 20.98763,7.56187 35.24023,9.3164 5.79159,0.71297 28.66814,1.09766 50.83594,0.85547 44.16878,-0.48255 57.9401,-2.30473 74.41601,-9.84765 l 8.00196,-3.66211 -0.81055,-7.85157 c -1.42312,-13.78868 -10.67786,-29.82325 -23.92578,-41.45507 z" id="path7082" inkscape:connector-curvature="0"></path>
    </clipPath>
    
    
    
    
    
    
  </defs>
  <sodipodi:namedview id="base" pagecolor="#ffffff" bordercolor="#666666" borderopacity="1.0" inkscape:pageopacity="0.0" inkscape:pageshadow="2" inkscape:zoom="2.8284271" inkscape:cx="234.77444" inkscape:cy="310.26142" inkscape:document-units="px" inkscape:current-layer="layer6" showgrid="false" inkscape:snap-bbox="true" inkscape:bbox-nodes="true" inkscape:window-width="1920" inkscape:window-height="1017" inkscape:window-x="-8" inkscape:window-y="-8" inkscape:window-maximized="1" inkscape:snap-global="false" showguides="true" fit-margin-top="5" fit-margin-right="5" fit-margin-bottom="5" fit-margin-left="5">
    <inkscape:grid type="xygrid" id="grid5127" originx="-96.482406" originy="-189.74327"></inkscape:grid>
  </sodipodi:namedview>
  <metadata id="metadata4278">
    <rdf:rdf>
      <cc:work rdf:about="">
        <dc:format>image/svg+xml</dc:format>
        <dc:type rdf:resource="http://purl.org/dc/dcmitype/StillImage"></dc:type>
        <dc:title></dc:title>
      </cc:work>
    </rdf:rdf>
  </metadata>
  <g inkscape:groupmode="layer" id="layer5" inkscape:label="background" style="display:none" transform="translate(-96.482404,-151.386)">
    <rect style="color:#000000;clip-rule:nonzero;display:inline;overflow:visible;opacity:1;isolation:auto;mix-blend-mode:normal;color-interpolation:sRGB;color-interpolation-filters:linearRGB;solid-color:#000000;solid-opacity:1;fill:#d1e8f6;fill-opacity:1;fill-rule:nonzero;stroke:none;stroke-width:5.59482098;stroke-linecap:round;stroke-linejoin:miter;stroke-miterlimit:4;stroke-dasharray:none;stroke-dashoffset:0;stroke-opacity:1;color-rendering:auto;image-rendering:auto;shape-rendering:auto;text-rendering:auto;enable-background:accumulate" id="rect5147" width="590.05872" height="772.22345" x="32.533665" y="117.3988" inkscape:export-filename="F:\too-much-candy.png" inkscape:export-xdpi="113.23043" inkscape:export-ydpi="113.23043"></rect>
  </g>
  <g inkscape:groupmode="layer" id="layer9" inkscape:label="gopher" style="display:inline" transform="translate(-96.482404,-151.386)">
    <g inkscape:groupmode="layer" id="layer23" inkscape:label="gopher-limbs" style="display:inline">
      <g id="g4634" transform="matrix(-0.00794229,-0.86490487,1.1892648,0.12741372,-262.0945,1060.6397)" style="display:inline;opacity:1;enable-background:new">
        <path sodipodi:nodetypes="sssssssssssssssss" inkscape:connector-curvature="0" id="path4636" d="m 423.50332,581.83521 c -0.004,4.40048 -1.19837,7.58856 -3.37524,9.82844 -2.17687,2.23987 -5.33154,3.55156 -9.14619,4.44292 -3.81465,0.89135 -8.28246,1.39523 -13.05675,1.83828 -4.77428,0.44304 -9.85163,0.79076 -14.95001,1.09928 -5.09838,0.30851 -9.94541,0.34741 -14.40217,0.0862 -4.45676,-0.26122 -8.52354,-0.79908 -11.99271,-1.71189 -3.46915,-0.91282 -6.33736,-2.21356 -8.3562,-4.09288 -2.01885,-1.87935 -3.18709,-4.34475 -3.25466,-7.51083 -0.0676,-3.16607 0.9983,-5.4859 2.92534,-7.0838 1.92703,-1.5979 4.71248,-2.46394 8.09977,-2.84688 3.38729,-0.38293 7.37282,-0.28336 11.77044,-0.16051 4.39762,0.12284 9.21051,0.23456 14.33166,-0.12202 5.12115,-0.35659 10.27171,-1.47349 15.16022,-2.54099 4.88852,-1.06749 9.50395,-2.05149 13.43823,-2.27114 3.9343,-0.21967 7.17754,0.32322 9.39823,2.04598 2.22069,1.72276 3.41425,4.59936 3.41004,8.99986 z" style="color:#000000;clip-rule:nonzero;display:inline;overflow:visible;opacity:1;isolation:auto;mix-blend-mode:normal;color-interpolation:sRGB;color-interpolation-filters:linearRGB;solid-color:#000000;solid-opacity:1;fill:#e1d6b9;fill-opacity:1;fill-rule:nonzero;stroke:none;stroke-width:10;stroke-linecap:butt;stroke-linejoin:miter;stroke-miterlimit:4;stroke-dasharray:none;stroke-dashoffset:0;stroke-opacity:1;color-rendering:auto;image-rendering:auto;shape-rendering:auto;text-rendering:auto;enable-background:accumulate"></path>
        <path sodipodi:nodetypes="csscsscssssssssssssssssssssccsssc" inkscape:connector-curvature="0" id="path4638" d="m 411.91406,568.54883 c -3.75011,-0.0271 -8.08701,0.53975 -12.76172,1.28711 -5.34251,0.85413 -11.10706,1.92059 -17.00976,2.32617 -5.9027,0.40562 -11.41103,0.38326 -16.44727,0.41406 -5.03624,0.0309 -9.6045,0.1607 -13.50781,0.85938 -3.9033,0.69867 -7.13503,1.96743 -9.4082,3.96875 -2.27316,2.00131 -3.58535,4.71676 -3.65235,8.17578 -0.067,3.45901 1.21821,6.3073 3.54297,8.58008 2.32476,2.27278 5.68789,3.9795 9.76172,5.25 4.07385,1.27051 8.85237,2.11894 14.05664,2.59765 5.20427,0.47871 10.83381,0.56134 16.70313,0.22266 5.86931,-0.33868 11.47146,-0.78653 16.60547,-1.34961 5.13399,-0.56309 9.79334,-1.22365 13.70703,-2.34375 1.48913,-0.4262 2.86677,-0.9287 4.12695,-1.51953 2.54507,-1.19325 2.05015,-6.17249 -0.0996,-4.54102 -1.99172,1.51153 -4.14364,1.68162 -7.15735,2.35061 -3.67269,0.81527 -8.18136,0.99111 -12.55008,1.3428 -4.3687,0.35167 -8.7789,1.78431 -13.31332,2.07736 -4.53444,0.29304 -8.86787,0.32801 -12.93181,0.0702 -4.06396,-0.25785 -7.85651,-0.78075 -11.12475,-1.64296 -3.26823,-0.86221 -5.99695,-2.08037 -7.8846,-3.81399 -1.88765,-1.73365 -2.92537,-3.9871 -2.97865,-6.80086 -0.0533,-2.81374 0.90176,-4.8192 2.66881,-6.10562 1.76704,-1.28641 5.61732,-0.58475 8.69196,-0.71399 3.07463,-0.12925 6.90624,-0.54484 10.78772,-0.41733 3.88147,0.12754 6.54592,-0.48119 11.04844,-1.2139 4.50252,-0.73264 9.15212,-2.3434 13.88736,-3.72101 4.73523,-1.37761 9.22461,-2.34259 13.00861,-2.55385 0.473,-0.0264 0.93707,-0.0422 1.38868,-0.0449 1.16046,-0.007 2.25007,0.0442 3.25,0.23633 1.15313,0.22156 2.31543,-2.86146 -0.83789,-2.92773 -0.51177,-0.0108 -1.03459,-0.045 -1.57032,-0.0488 z" style="color:#000000;clip-rule:nonzero;display:inline;overflow:visible;opacity:1;isolation:auto;mix-blend-mode:normal;color-interpolation:sRGB;color-interpolation-filters:linearRGB;solid-color:#000000;solid-opacity:1;fill:#394655;fill-opacity:1;fill-rule:nonzero;stroke:none;stroke-width:10;stroke-linecap:butt;stroke-linejoin:miter;stroke-miterlimit:4;stroke-dasharray:none;stroke-dashoffset:0;stroke-opacity:1;color-rendering:auto;image-rendering:auto;shape-rendering:auto;text-rendering:auto;enable-background:accumulate"></path>
      </g>
      <g style="display:inline;opacity:1;enable-background:new" transform="matrix(0.00794229,-0.86490487,-1.1892648,0.12741372,951.7609,1063.4522)" id="g4696">
        <path style="color:#000000;clip-rule:nonzero;display:inline;overflow:visible;opacity:1;isolation:auto;mix-blend-mode:normal;color-interpolation:sRGB;color-interpolation-filters:linearRGB;solid-color:#000000;solid-opacity:1;fill:#e1d6b9;fill-opacity:1;fill-rule:nonzero;stroke:none;stroke-width:10;stroke-linecap:butt;stroke-linejoin:miter;stroke-miterlimit:4;stroke-dasharray:none;stroke-dashoffset:0;stroke-opacity:1;color-rendering:auto;image-rendering:auto;shape-rendering:auto;text-rendering:auto;enable-background:accumulate" d="m 423.50332,581.83521 c -0.004,4.40048 -1.19837,7.58856 -3.37524,9.82844 -2.17687,2.23987 -5.33154,3.55156 -9.14619,4.44292 -3.81465,0.89135 -8.28246,1.39523 -13.05675,1.83828 -4.77428,0.44304 -9.85163,0.79076 -14.95001,1.09928 -5.09838,0.30851 -9.94541,0.34741 -14.40217,0.0862 -4.45676,-0.26122 -8.52354,-0.79908 -11.99271,-1.71189 -3.46915,-0.91282 -6.33736,-2.21356 -8.3562,-4.09288 -2.01885,-1.87935 -3.18709,-4.34475 -3.25466,-7.51083 -0.0676,-3.16607 0.9983,-5.4859 2.92534,-7.0838 1.92703,-1.5979 4.71248,-2.46394 8.09977,-2.84688 3.38729,-0.38293 7.37282,-0.28336 11.77044,-0.16051 4.39762,0.12284 9.21051,0.23456 14.33166,-0.12202 5.12115,-0.35659 10.27171,-1.47349 15.16022,-2.54099 4.88852,-1.06749 9.50395,-2.05149 13.43823,-2.27114 3.9343,-0.21967 7.17754,0.32322 9.39823,2.04598 2.22069,1.72276 3.41425,4.59936 3.41004,8.99986 z" id="path4692" inkscape:connector-curvature="0" sodipodi:nodetypes="sssssssssssssssss"></path>
        <path style="color:#000000;clip-rule:nonzero;display:inline;overflow:visible;opacity:1;isolation:auto;mix-blend-mode:normal;color-interpolation:sRGB;color-interpolation-filters:linearRGB;solid-color:#000000;solid-opacity:1;fill:#394655;fill-opacity:1;fill-rule:nonzero;stroke:none;stroke-width:10;stroke-linecap:butt;stroke-linejoin:miter;stroke-miterlimit:4;stroke-dasharray:none;stroke-dashoffset:0;stroke-opacity:1;color-rendering:auto;image-rendering:auto;shape-rendering:auto;text-rendering:auto;enable-background:accumulate" d="m 411.91406,568.54883 c -3.75011,-0.0271 -8.08701,0.53975 -12.76172,1.28711 -5.34251,0.85413 -11.10706,1.92059 -17.00976,2.32617 -5.9027,0.40562 -11.41103,0.38326 -16.44727,0.41406 -5.03624,0.0309 -9.6045,0.1607 -13.50781,0.85938 -3.9033,0.69867 -7.13503,1.96743 -9.4082,3.96875 -2.27316,2.00131 -3.58535,4.71676 -3.65235,8.17578 -0.067,3.45901 1.21821,6.3073 3.54297,8.58008 2.32476,2.27278 5.68789,3.9795 9.76172,5.25 4.07385,1.27051 8.85237,2.11894 14.05664,2.59765 5.20427,0.47871 10.83381,0.56134 16.70313,0.22266 5.86931,-0.33868 11.47146,-0.78653 16.60547,-1.34961 5.13399,-0.56309 9.79334,-1.22365 13.70703,-2.34375 1.48913,-0.4262 2.86677,-0.9287 4.12695,-1.51953 2.54507,-1.19325 2.05015,-6.17249 -0.0996,-4.54102 -1.99172,1.51153 -4.14364,1.68162 -7.15735,2.35061 -3.67269,0.81527 -8.18136,0.99111 -12.55008,1.3428 -4.3687,0.35167 -8.7789,1.78431 -13.31332,2.07736 -4.53444,0.29304 -8.86787,0.32801 -12.93181,0.0702 -4.06396,-0.25785 -7.85651,-0.78075 -11.12475,-1.64296 -3.26823,-0.86221 -5.99695,-2.08037 -7.8846,-3.81399 -1.88765,-1.73365 -2.92537,-3.9871 -2.97865,-6.80086 -0.0533,-2.81374 0.90176,-4.8192 2.66881,-6.10562 1.76704,-1.28641 5.61732,-0.58475 8.69196,-0.71399 3.07463,-0.12925 6.90624,-0.54484 10.78772,-0.41733 3.88147,0.12754 6.54592,-0.48119 11.04844,-1.2139 4.50252,-0.73264 9.15212,-2.3434 13.88736,-3.72101 4.73523,-1.37761 9.22461,-2.34259 13.00861,-2.55385 0.473,-0.0264 0.93707,-0.0422 1.38868,-0.0449 1.16046,-0.007 2.25007,0.0442 3.25,0.23633 1.15313,0.22156 2.31543,-2.86146 -0.83789,-2.92773 -0.51177,-0.0108 -1.03459,-0.045 -1.57032,-0.0488 z" id="path4694" inkscape:connector-curvature="0" sodipodi:nodetypes="csscsscssssssssssssssssssssccsssc"></path>
      </g>
    </g>
    <g inkscape:groupmode="layer" id="layer18" inkscape:label="gopher-body" style="display:inline">
      <path style="color:#000000;clip-rule:nonzero;display:inline;overflow:visible;opacity:1;isolation:auto;mix-blend-mode:normal;color-interpolation:sRGB;color-interpolation-filters:linearRGB;solid-color:#000000;solid-opacity:1;fill:#394655;fill-opacity:1;fill-rule:nonzero;stroke:none;stroke-width:10;stroke-linecap:round;stroke-linejoin:miter;stroke-miterlimit:4;stroke-dasharray:none;stroke-dashoffset:0;stroke-opacity:1;color-rendering:auto;image-rendering:auto;shape-rendering:auto;text-rendering:auto;enable-background:accumulate" d="m 516.64098,550.68203 c 17.45886,85.78924 26.61599,137.49314 -8.44652,197.82413 -27.30777,46.98765 -63.51782,25.52041 -115.52604,30.21264 -52.00821,4.69221 -138.92597,40.3291 -179.45254,-1.62139 -51.68411,-53.50008 -74.12692,-124.96821 -45.64168,-214.26068 22.1275,-69.36292 -32.35408,-134.36704 1.93607,-183.01381 34.29016,-48.64676 88.73153,-79.27625 153.65508,-83.70077 64.92357,-4.42454 126.72803,18.24443 172.47005,63.30526 45.74204,45.06082 6.69169,120.91911 21.00558,191.25462 z" id="path4893" inkscape:connector-curvature="0" sodipodi:nodetypes="sssssssss"></path>
      <path style="color:#000000;clip-rule:nonzero;display:inline;overflow:visible;opacity:1;isolation:auto;mix-blend-mode:normal;color-interpolation:sRGB;color-interpolation-filters:linearRGB;solid-color:#000000;solid-opacity:1;fill:#96d6ff;fill-opacity:1;fill-rule:nonzero;stroke:none;stroke-width:10;stroke-linecap:round;stroke-linejoin:miter;stroke-miterlimit:4;stroke-dasharray:none;stroke-dashoffset:0;stroke-opacity:1;color-rendering:auto;image-rendering:auto;shape-rendering:auto;text-rendering:auto;enable-background:accumulate" d="m 511.12196,553.99714 c 22.90939,88.09022 14.61179,149.959 -17.70975,199.18984 -32.32153,49.23084 -53.8334,13.24387 -103.07549,17.62552 -49.2421,4.38165 -130.60439,37.03294 -170.71927,-2.60629 -40.11492,-39.63921 -69.68113,-128.69746 -47.22295,-202.6073 20.1059,-66.16852 -27.70826,-136.03587 4.92116,-182.53756 32.6294,-46.5017 88.38701,-74.24229 150.16618,-78.37922 61.77918,-4.13691 116.56735,14.23188 160.31464,57.42959 43.74734,43.19772 6.25287,126.23854 23.32548,191.88542 z" id="ellipse4895" inkscape:connector-curvature="0" sodipodi:nodetypes="sssssssss"></path>
    </g>
    <g inkscape:groupmode="layer" id="layer4" inkscape:label="gopher-shadow" style="display:inline;opacity:0.05899999;">
      <path style="opacity:1;fill:#000000;fill-opacity:1;stroke:none;stroke-width:5;stroke-linecap:round;stroke-linejoin:round;stroke-miterlimit:4;stroke-dasharray:none;stroke-opacity:1" d="m 154.05469,241.62305 c -8.28969,-0.19555 -16.63866,2.55879 -22.20117,8.92187 -7.98743,8.43605 -8.21266,21.65847 -3.25586,31.67774 2.55063,6.16551 8.61612,11.27401 15.5957,10.59375 7.88575,0.22543 16.6532,-0.0784 23.97656,0.23047 -12.13434,13.43804 -24.84314,27.78773 -28.78125,46.01367 -2.91906,11.23349 -1.7344,22.95998 -1.75195,34.42968 1.21476,18.78681 5.45374,37.21185 8.07812,55.82422 3.05471,19.164 5.16541,38.79057 3.23828,58.12891 0.89487,3.30745 5.42315,3.36849 7.95118,5.15625 21.89285,10.08889 43.92533,20.22242 66.44336,28.98242 -1.29903,-16.66426 -11.71558,-32.95588 -15.45786,-46.67759 -8.48528,-31.1127 -14.85021,-84.14622 -14.14311,-111.72338 0.70674,-27.56292 28.26015,-78.468 50.87734,-93.31395 -5.25703,-1.46325 -19.56641,-2.67184 -24.42481,-5.31633 -2.99614,-1.24054 -5.28223,-4.55551 -8.53125,-4.60742 -4.33956,2.67037 -9.04356,5.01491 -12.91016,8.36914 -10.71665,-8.79876 -20.63618,-19.34319 -33.70312,-24.65625 -3.4767,-1.246 -7.23196,-1.94432 -11,-2.0332 z" transform="matrix(0.93749999,0,0,0.93749999,35.458208,86.501485)" id="path4782" inkscape:connector-curvature="0" sodipodi:nodetypes="cccccccccccsscccccc"></path>
      <path style="display:inline;opacity:1;fill:#000000;fill-opacity:0.98897059;stroke:none;stroke-width:4.6875;stroke-linecap:round;stroke-linejoin:round;stroke-miterlimit:4;stroke-dasharray:none;stroke-opacity:1;enable-background:new" d="m 221.08321,380.03212 c 15,-1.40625 61.03231,4.34528 101.01562,-2.10937 45.07625,-7.27683 64.5653,-21.85857 70.3125,-26.71876 23.55919,-19.92309 27.42187,-35.85937 27.42187,-35.85937 l -123.74999,-15.9375 -40.3125,21.5625 -28.125,32.34375 z" id="path4973" inkscape:connector-curvature="0" sodipodi:nodetypes="cssccccc"></path>
      <path style="display:inline;opacity:1;fill:#000000;fill-opacity:1;stroke:none;stroke-width:4.6875;stroke-linecap:round;stroke-miterlimit:4;stroke-dasharray:none;stroke-opacity:1;enable-background:new" d="m 232.78124,545.82984 c 7.01219,30.1784 66.20966,38.54747 72.71513,43.65145 8.53842,-3.83044 91.64822,-32.30065 134.25667,-51.20261 20.15578,-8.94151 66.75422,-16.72592 66.75422,-16.72592 l 1.18609,12.21795 -203.20312,69.375 -80.625,-26.95312 z" id="path5356" inkscape:connector-curvature="0" sodipodi:nodetypes="ccsccccc"></path>
    </g>
    <g inkscape:groupmode="layer" id="layer1" inkscape:label="robe" style="display:inline">
      <path style="display:inline;opacity:1;fill:#468aa9;fill-opacity:1;stroke:#1d4455;stroke-width:4.6875;stroke-linecap:round;stroke-miterlimit:4;stroke-dasharray:none;stroke-opacity:1;enable-background:new" d="m 168.77209,550.28537 c -32.47843,55.00396 0.97795,137.96444 -15.75851,247.72134 130.99304,-2.11868 328.16504,16.61545 388.73059,-9.23366 -15.23344,-79.73142 14.07318,-188.07831 -20.1514,-255.0605 -108.49674,11.12298 -157.19433,73.84674 -223.50919,69.75564 -67.74674,-4.17943 -84.46614,-36.03625 -129.31149,-53.18282 z" id="path4601" inkscape:connector-curvature="0" sodipodi:nodetypes="ccccsc"></path>
      <path style="display:inline;opacity:1;fill:#000000;fill-opacity:0.13602941;stroke:none;stroke-width:5;stroke-linecap:round;stroke-linejoin:round;stroke-miterlimit:4;stroke-dasharray:none;stroke-opacity:1;enable-background:new" d="m 515.81445,478.07227 c -0.15145,10e-4 -0.30868,0.0139 -0.4707,0.0391 -33.42015,4.00624 -66.31124,12.77633 -97.05078,26.56445 -28.83924,12.17313 -56.2051,27.63073 -85.43945,38.62305 -21.32659,8.0801 -44.42309,10.94064 -66.96875,7.44726 -23.15052,-2.56879 -45.43762,-10.77175 -65.375,-22.75781 -18.71351,-10.56199 -36.09127,-23.96481 -56.34571,-31.5039 -4.25738,0.95393 -4.8739,6.62855 -6.83398,9.89648 -5.28904,12.62457 -7.23573,26.76195 -8.41797,40.32226 l -0.93555,31.64844 4.02907,82.13133 0.93026,52.36175 49.31997,7.77841 c -10.53477,-42.75675 -34.02181,-60.24414 -26.19979,-154.51791 34.33397,13.45231 45.11365,24.47366 85.83846,32.5433 -6.30375,52.60978 -3.80014,89.08888 -2.41992,131.65039 l -109.19922,-9.89649 c -0.68661,11.55694 -1.84689,23.07309 -3.6582,34.48633 0.9289,4.21547 6.632,2.40705 9.73242,2.94727 70.80065,0.14597 141.55301,3.2748 212.33008,4.60351 39.20589,-0.18161 78.44485,0.54877 117.625,-1.10742 22.2315,-1.87729 44.7173,-3.87297 66.21484,-10.13281 3.1163,-0.85516 7.41669,-3.08335 5.83594,-7.03711 -1.27424,-8.35675 -2.18099,-16.73424 -2.81445,-25.12695 l -217.34375,21.0332 -2.82813,-132.22852 c 11.78447,17.82542 157.23814,-49.78533 219.48828,-62.18164 -1.7025,-21.77683 -5.61658,-43.28703 -14.70117,-63.31054 -0.95452,-1.72632 -2.07006,-4.2927 -4.3418,-4.27539 z" id="path4886" inkscape:connector-curvature="0" sodipodi:nodetypes="cccccccccccccccccccccccccccccc" transform="matrix(0.93749999,0,0,0.93749999,35.458208,86.501485)"></path>
      <path style="opacity:1;fill:#000000;fill-opacity:0.13602941;stroke:none;stroke-width:5;stroke-linecap:round;stroke-linejoin:round;stroke-miterlimit:4;stroke-dasharray:none;stroke-opacity:1" d="m 332.93359,615.77148 c 1.20266,33.54753 2.77825,67.04987 2.53125,100.62696 0.39796,2.35518 -1.09444,5.84797 1.5,7.19726 23.15112,-0.22792 46.32575,-0.5603 69.4668,-1.58203 -17.86093,-10.00809 -33.75316,-27.66532 -41.21113,-34.27095 -8.27646,-7.33058 -22.36739,-40.02018 -32.28692,-71.97124 z" id="path4904" inkscape:connector-curvature="0" sodipodi:nodetypes="ccccsc" transform="matrix(0.93749999,0,0,0.93749999,35.458208,86.501485)"></path>
      <path style="opacity:1;fill:#3d7892;fill-opacity:1;stroke:none;stroke-width:4.6875;stroke-linecap:round;stroke-miterlimit:4;stroke-dasharray:none;stroke-opacity:1" d="m 166.91209,664.57206 c 2.8125,3.86719 4.10156,5.39063 9.375,3.28125 5.27344,-2.10937 7.38281,-3.16406 7.38281,-3.16406 0,0 14.60876,16.25853 22.14844,17.46094 11.16853,1.78113 14.64844,-7.61719 14.64844,-7.61719 0,0 -30.9375,-39.375 -33.04688,-39.02344 -2.10937,0.35156 -20.50781,29.0625 -20.50781,29.0625 z" id="path5431" inkscape:connector-curvature="0" sodipodi:nodetypes="cccscsc"></path>
    </g>
    <g inkscape:groupmode="layer" id="layer8" inkscape:label="border" style="display:inline">
      <path style="display:inline;opacity:1;fill:#468aa9;fill-opacity:1;stroke:#1d4455;stroke-width:4.68749952;stroke-linecap:round;stroke-linejoin:round;stroke-miterlimit:4;stroke-dasharray:none;stroke-opacity:1;enable-background:new" d="m 141.778,758.13203 c -6.61151,10.63044 -7.66517,26.95491 -0.95026,37.52063 2.94423,4.63264 9.78758,5.19596 15.0917,6.63945 28.53662,7.76613 80.01315,13.45011 86.13458,13.67417 79.23673,2.90032 187.56005,-0.51586 204.83466,-2.5046 17.27461,-1.98874 71.75607,-14.58408 81.05778,-18.56155 9.30172,-3.97748 19.41521,-4.9483 22.58987,-12.59534 2.17238,-5.23278 4.15906,-27.69191 -1.32881,-39.77476 -2.00486,-4.41417 -7.30849,-10.60661 -10.63053,-9.94369 -3.32203,0.66291 -24.08041,20.61343 -75.74251,27.84233 -52.51652,7.34846 -205.19473,5.75194 -233.87164,0.66291 -29.04863,-5.155 -69.68225,-10.07122 -73.6687,-10.07122 -3.98644,0 -10.8305,2.79351 -13.51614,7.11167 z" id="path4639" inkscape:connector-curvature="0" sodipodi:nodetypes="sssssssscssss"></path>
      <path style="opacity:1;fill:#000000;fill-opacity:0.13602941;stroke:none;stroke-width:4.6875;stroke-linecap:round;stroke-linejoin:round;stroke-miterlimit:4;stroke-dasharray:none;stroke-opacity:1" d="m 275.69258,766.98524 -9.84374,-2.34374 c 1.06201,18.93309 5.18371,34.4699 12.25492,50.02829 l 22.57798,-0.11008 z" id="path4894" inkscape:connector-curvature="0" sodipodi:nodetypes="ccccc"></path>
      <path style="display:inline;opacity:1;fill:#468aa9;fill-opacity:1;stroke:#1d4455;stroke-width:4.6875;stroke-linecap:round;stroke-linejoin:round;stroke-miterlimit:4;stroke-dasharray:none;stroke-opacity:1;enable-background:new" d="m 275.68115,616.07945 c -0.7791,0 -19.00266,128.29011 5.38617,188.10144 1.839,4.50997 8.95766,17.37934 8.95766,17.37934 16.29746,1.36483 32.37301,0.7325 48.3593,-0.70313 0,0 8.34469,-14.33336 8.9743,-19.99078 6.12261,-55.01497 -3.62114,-175.12361 -1.65728,-178.9864 1.20172,-2.3637 -37.78601,-24.52776 -37.78601,-24.52776 l -19.22447,2.65165 z" id="path4641" inkscape:connector-curvature="0" sodipodi:nodetypes="csccssccc"></path>
      <path style="opacity:1;fill:#000000;fill-opacity:0.13602941;stroke:none;stroke-width:4.6875;stroke-linecap:round;stroke-linejoin:round;stroke-miterlimit:4;stroke-dasharray:none;stroke-opacity:1" d="m 274.46211,643.05947 12.83203,2.62838 c 0,0 7.17209,-25.84745 9.83787,-29.95592 0.58593,-0.46875 8.15559,-4.56584 11.25588,-4.14564 0.11719,0.58594 10.24542,18.773 13.5312,26.95313 2.0628,5.13543 4.01858,11.28064 5.36464,11.74007 2.50327,0.85439 16.67574,-2.08804 16.67574,-2.08804 l -0.58594,-9.49219 c 0,0 -26.31376,-30.03433 -26.43095,-30.73745 -0.11719,-0.70313 -11.71875,-10.07813 -11.71875,-10.07813 l -13.00781,9.02344 -17.45282,33.05102 z" id="path4896" inkscape:connector-curvature="0" sodipodi:nodetypes="ccccssccccccc"></path>
      <path style="display:inline;opacity:1;fill:#468aa9;fill-opacity:1;stroke:#1d4455;stroke-width:4.6875;stroke-linecap:round;stroke-linejoin:round;stroke-miterlimit:4;stroke-dasharray:none;stroke-opacity:1;enable-background:new" d="m 161.55196,539.40712 c -8.55821,11.12929 -16.25819,26.39806 -17.34375,45 41.92047,8.48585 93.66418,46.64506 142.96875,56.71875 6.83313,-20.86874 16.37359,-32.71303 25.78125,-45 -53.64412,-9.34313 -104.84975,-35.56292 -151.40625,-56.71875 z" id="path4621" inkscape:connector-curvature="0" sodipodi:nodetypes="ccccc"></path>
      <path sodipodi:nodetypes="ccccc" inkscape:connector-curvature="0" id="path4623" d="m 519.84517,525.25932 c 16.24152,12.6679 26.01636,31.53911 27.4879,52.71274 -56.82553,9.65901 -148.29513,53.56244 -215.13021,65.0288 -6.51226,-16.96952 -13.09493,-31.69132 -29.08855,-47.93994 72.71759,-10.63481 141.90218,-65.4085 216.73086,-69.8016 z" style="display:inline;opacity:1;fill:#468aa9;fill-opacity:1;stroke:#1d4455;stroke-width:4.6875;stroke-linecap:round;stroke-linejoin:round;stroke-miterlimit:4;stroke-dasharray:none;stroke-opacity:1;enable-background:new"></path>
      <path style="opacity:1;fill:#000000;fill-opacity:0.13602941;stroke:none;stroke-width:4.59070826;stroke-linecap:round;stroke-linejoin:round;stroke-miterlimit:4;stroke-dasharray:none;stroke-opacity:1" d="m 155.52273,752.71603 c -6.206,0.20726 -12.17346,4.13049 -14.47421,9.83055 -4.09136,9.03088 -4.74274,19.78697 -0.95324,29.01964 1.36019,3.34337 3.87726,6.43008 7.60771,7.28952 26.32128,7.32698 53.51031,11.09664 80.63482,14.2472 12.22241,1.35069 24.53865,1.74407 36.82797,1.97143 -37.41817,-11.50991 -103.16319,-24.68124 -108.35275,-62.34769 -0.43004,-0.0143 -0.86011,-0.0205 -1.2903,-0.0106 z" id="path4909" inkscape:connector-curvature="0" sodipodi:nodetypes="cccccccc"></path>
      <path style="opacity:1;fill:#000000;fill-opacity:0.13602941;stroke:none;stroke-width:4.60873985;stroke-linecap:round;stroke-linejoin:round;stroke-miterlimit:4;stroke-dasharray:none;stroke-opacity:1" d="m 350.73855,768.11898 c -0.54374,1.36602 -0.26373,3.31768 -0.47665,4.69067 -0.17758,9.90914 -0.66244,19.90675 -2.1322,29.74557 -1.06178,3.96336 -3.29214,7.4257 -4.7265,11.1949 -0.12877,2.6507 3.30956,1.93579 5.0849,1.94004 31.57198,-0.77584 63.18882,-0.90328 94.70101,-3.13542 14.42582,-1.272 28.54279,-4.67289 42.67859,-7.62479 13.76376,-3.17697 27.63813,-6.10539 41.0485,-10.54644 6.38011,-2.64417 13.52645,-3.8656 19.20254,-7.9312 0.90632,-0.71574 1.62192,-1.54251 2.20316,-2.44242 -52.62883,9.694 -189.481,17.05161 -197.58335,-15.89091 z" id="path4911" inkscape:connector-curvature="0" sodipodi:nodetypes="ccccccccccc"></path>
      <path style="opacity:1;fill:#000000;fill-opacity:0.13602941;stroke:none;stroke-width:5;stroke-linecap:round;stroke-linejoin:round;stroke-miterlimit:4;stroke-dasharray:none;stroke-opacity:1" d="m 254.62178,593.67329 c -0.48615,2.4726 -0.21534,4.03928 -0.7652,6.2004 -1.91598,21.18697 -3.762,41.54936 -3.68168,62.83487 -0.30414,26.2429 0.8103,52.0642 6.1001,77.83832 2.50639,11.76397 5.6633,22.50744 11.57266,33.05273 1.76322,2.90766 2.4988,6.5867 5.02343,8.92187 9.38238,0.14412 18.36376,0.63716 27.76953,0.47461 -20.37045,-34.714 -41.61535,-108.96269 -40.25517,-188.42046 -1.9072,-0.39824 -3.81988,-0.75554 -5.76367,-0.90234 z" id="path4913" inkscape:connector-curvature="0" sodipodi:nodetypes="ccccccccc" transform="matrix(0.93749999,0,0,0.93749999,35.458208,86.501485)"></path>
      <path style="opacity:1;fill:#000000;fill-opacity:0.13602941;stroke:none;stroke-width:5;stroke-linecap:round;stroke-linejoin:round;stroke-miterlimit:4;stroke-dasharray:none;stroke-opacity:1" d="m 135.5332,484.44141 c -0.15066,-0.007 -0.30489,-4.2e-4 -0.46289,0.0254 -2.54542,1.26413 -3.54967,4.33261 -5.23437,6.48632 -6.95692,11.01272 -11.57456,23.60889 -12.86914,36.59376 -0.45962,2.4357 1.87774,3.89763 4.01367,4.07812 24.66408,6.32962 47.25736,18.42804 70.12891,29.27734 3.9418,1.86825 7.88924,3.74937 11.84374,5.62305 -22.43278,-18.64292 -48.07529,-46.78045 -58.64648,-78.23633 -1.94707,-0.89304 -3.89407,-1.7941 -5.8418,-2.68164 -0.98513,-0.33789 -1.87701,-1.11534 -2.93164,-1.16601 z" id="path4915" inkscape:connector-curvature="0" transform="matrix(0.93749999,0,0,0.93749999,35.458208,86.501485)"></path>
      <path style="opacity:1;fill:#000000;fill-opacity:0.13602941;stroke:none;stroke-width:5;stroke-linecap:round;stroke-linejoin:round;stroke-miterlimit:4;stroke-dasharray:none;stroke-opacity:1" d="m 301.43164,540.09766 c -3.58701,0.79358 -7.18055,1.56591 -10.76367,2.38086 -2.21405,0.83667 -1.38136,3.4239 0.002,4.61132 11.02622,12.14499 18.68333,26.58646 24.65235,41.74219 0.67372,1.79011 1.70763,4.44338 4.15234,3.63086 37.74057,-7.23848 73.95852,-20.25376 110.13867,-32.9707 -17.59868,0.98817 -37.39812,0.64243 -58.0293,-2.56446 -34.71474,-5.39602 -56.38337,-11.06252 -70.15234,-16.83007 z" id="path4917" inkscape:connector-curvature="0" transform="matrix(0.93749999,0,0,0.93749999,35.458208,86.501485)"></path>
    </g>
    <g inkscape:groupmode="layer" id="layer7" inkscape:label="garnish" style="display:inline">
      <path id="path4879" d="m 525.52901,559.61855 a 6.6083715,5.2825464 70.602806 0 0 -1.41175,0.24353 6.6083715,5.2825464 70.602806 0 0 -2.78869,7.98706 6.6083715,5.2825464 70.602806 0 0 7.17773,4.47876 6.6083715,5.2825464 70.602806 0 0 2.7887,-7.98706 6.6083715,5.2825464 70.602806 0 0 -5.76599,-4.72229 z m -14.2511,4.3103 a 6.6083715,5.2825464 70.602806 0 0 -1.41358,0.2417 6.6083715,5.2825464 70.602806 0 0 -2.7887,7.98706 6.6083715,5.2825464 70.602806 0 0 7.17774,4.47877 6.6083715,5.2825464 70.602806 0 0 2.78869,-7.98706 6.6083715,5.2825464 70.602806 0 0 -5.76415,-4.72047 z m -14.3335,2.70813 a 6.6083715,5.2825464 70.602806 0 0 -1.41358,0.2417 6.6083715,5.2825464 70.602806 0 0 -2.78686,7.98707 6.6083715,5.2825464 70.602806 0 0 7.1759,4.47875 6.6083715,5.2825464 70.602806 0 0 2.7887,-7.98706 6.6083715,5.2825464 70.602806 0 0 -5.76416,-4.72046 z m -339.8236,0.66284 a 5.2825466,6.6083718 19.397195 0 0 -5.76417,4.72046 5.2825466,6.6083718 19.397195 0 0 2.7887,7.98706 5.2825466,6.6083718 19.397195 0 0 7.17774,-4.47875 5.2825466,6.6083718 19.397195 0 0 -2.7887,-7.98706 5.2825466,6.6083718 19.397195 0 0 -1.41357,-0.24171 z m 325.84533,4.03382 a 6.6083715,5.2825464 70.602806 0 0 -1.41358,0.2417 6.6083715,5.2825464 70.602806 0 0 -2.78686,7.98889 6.6083715,5.2825464 70.602806 0 0 7.17773,4.47876 6.6083715,5.2825464 70.602806 0 0 2.78686,-7.9889 6.6083715,5.2825464 70.602806 0 0 -5.76415,-4.72045 z m -311.92382,0.60608 a 5.2825466,6.6083718 19.397195 0 0 -5.76417,4.72046 5.2825466,6.6083718 19.397195 0 0 2.7887,7.98889 5.2825466,6.6083718 19.397195 0 0 7.17591,-4.47876 5.2825466,6.6083718 19.397195 0 0 -2.78687,-7.9889 5.2825466,6.6083718 19.397195 0 0 -1.41357,-0.24169 z m 13.37219,2.547 a 5.2825466,6.6083718 19.397195 0 0 -5.76417,4.72229 5.2825466,6.6083718 19.397195 0 0 2.78687,7.98706 5.2825466,6.6083718 19.397195 0 0 7.17774,-4.47876 5.2825466,6.6083718 19.397195 0 0 -2.78687,-7.98707 5.2825466,6.6083718 19.397195 0 0 -1.41357,-0.24352 z m 283.30443,1.01806 a 6.6083715,5.2825464 70.602806 0 0 -1.41357,0.24353 6.6083715,5.2825464 70.602806 0 0 -2.78686,7.98706 6.6083715,5.2825464 70.602806 0 0 7.17773,4.47876 6.6083715,5.2825464 70.602806 0 0 2.78686,-7.98706 6.6083715,5.2825464 70.602806 0 0 -5.76416,-4.72229 z m -16.84753,5.02991 a 6.6083715,5.2825464 70.602806 0 0 -1.41357,0.24169 6.6083715,5.2825464 70.602806 0 0 -2.78687,7.98706 6.6083715,5.2825464 70.602806 0 0 7.17773,4.47877 6.6083715,5.2825464 70.602806 0 0 2.78687,-7.98706 6.6083715,5.2825464 70.602806 0 0 -5.76416,-4.72046 z m -251.56494,0.36438 a 5.2825466,6.6083718 19.397195 0 0 -5.76415,4.72046 5.2825466,6.6083718 19.397195 0 0 2.78686,7.98889 5.2825466,6.6083718 19.397195 0 0 7.17773,-4.47876 5.2825466,6.6083718 19.397195 0 0 -2.78686,-7.9889 5.2825466,6.6083718 19.397195 0 0 -1.41358,-0.24169 z m 13.59375,6.09375 a 5.2825466,6.6083718 19.397195 0 0 -5.76415,4.72046 5.2825466,6.6083718 19.397195 0 0 2.78685,7.98889 5.2825466,6.6083718 19.397195 0 0 7.17774,-4.47876 5.2825466,6.6083718 19.397195 0 0 -2.78686,-7.9889 5.2825466,6.6083718 19.397195 0 0 -1.41358,-0.24169 z m 221.92382,1.16455 a 6.6083715,5.2825464 70.602806 0 0 -1.41173,0.2417 6.6083715,5.2825464 70.602806 0 0 -2.7887,7.98889 6.6083715,5.2825464 70.602806 0 0 7.17774,4.47876 6.6083715,5.2825464 70.602806 0 0 2.78686,-7.98889 6.6083715,5.2825464 70.602806 0 0 -5.76417,-4.72046 z m -12.37792,7.92114 a 6.6083715,5.2825464 70.602806 0 0 -1.41174,0.24353 6.6083715,5.2825464 70.602806 0 0 -2.7887,7.98706 6.6083715,5.2825464 70.602806 0 0 7.17773,4.47876 6.6083715,5.2825464 70.602806 0 0 2.7887,-7.98706 6.6083715,5.2825464 70.602806 0 0 -5.76599,-4.72229 z m -196.05102,0.72144 a 5.2825466,6.6083718 19.397195 0 0 -5.76416,4.72046 5.2825466,6.6083718 19.397195 0 0 2.78869,7.98706 5.2825466,6.6083718 19.397195 0 0 7.17774,-4.47877 5.2825466,6.6083718 19.397195 0 0 -2.7887,-7.98706 5.2825466,6.6083718 19.397195 0 0 -1.41357,-0.24169 z m 180.4724,4.58313 a 6.6083715,5.2825464 70.602806 0 0 -1.41174,0.24169 6.6083715,5.2825464 70.602806 0 0 -2.7887,7.98707 6.6083715,5.2825464 70.602806 0 0 7.17774,4.47876 6.6083715,5.2825464 70.602806 0 0 2.78869,-7.98706 6.6083715,5.2825464 70.602806 0 0 -5.76599,-4.72046 z m -69.6057,1.98852 a 6.6083715,5.2825464 70.602806 0 0 -1.41175,0.2417 6.6083715,5.2825464 70.602806 0 0 -2.7887,7.98706 6.6083715,5.2825464 70.602806 0 0 7.17774,4.47876 6.6083715,5.2825464 70.602806 0 0 2.7887,-7.98706 6.6083715,5.2825464 70.602806 0 0 -5.76599,-4.72046 z m -59.82239,1.05103 a 5.2825466,6.6083718 19.397195 0 0 -5.76417,4.72046 5.2825466,6.6083718 19.397195 0 0 2.7887,7.98889 5.2825466,6.6083718 19.397195 0 0 7.17773,-4.47876 5.2825466,6.6083718 19.397195 0 0 -2.78869,-7.98889 5.2825466,6.6083718 19.397195 0 0 -1.41357,-0.2417 z m -24.19556,1.6571 a 5.2825466,6.6083718 19.397195 0 0 -5.76416,4.72046 5.2825466,6.6083718 19.397195 0 0 2.78687,7.98889 5.2825466,6.6083718 19.397195 0 0 7.17773,-4.47876 5.2825466,6.6083718 19.397195 0 0 -2.78687,-7.98889 5.2825466,6.6083718 19.397195 0 0 -1.41357,-0.2417 z m 134.06799,1.60035 a 6.6083715,5.2825464 70.602806 0 0 -1.41174,0.24169 6.6083715,5.2825464 70.602806 0 0 -2.7887,7.98889 6.6083715,5.2825464 70.602806 0 0 7.17774,4.47876 6.6083715,5.2825464 70.602806 0 0 2.7887,-7.98889 6.6083715,5.2825464 70.602806 0 0 -5.766,-4.72045 z m -22.86987,2.98278 a 6.6083715,5.2825464 70.602806 0 0 -1.41358,0.24353 6.6083715,5.2825464 70.602806 0 0 -2.78686,7.98707 6.6083715,5.2825464 70.602806 0 0 7.17774,4.47875 6.6083715,5.2825464 70.602806 0 0 2.78686,-7.98706 6.6083715,5.2825464 70.602806 0 0 -5.76416,-4.72229 z m -61.66443,50.29358 a 13.195862,13.195862 0 0 0 -13.19458,13.19641 13.195862,13.195862 0 0 0 13.19458,13.19641 13.195862,13.195862 0 0 0 13.19642,-13.19641 13.195862,13.195862 0 0 0 -13.19642,-13.19641 z m -2.33277,51.04981 a 13.195862,13.195862 0 0 0 -13.19458,13.19641 13.195862,13.195862 0 0 0 13.19458,13.1964 13.195862,13.195862 0 0 0 13.19642,-13.1964 13.195862,13.195862 0 0 0 -13.19642,-13.19641 z m 234.40064,44.98718 a 9.3188917,7.4492594 89.054289 0 0 -7.29492,9.44092 9.3188917,7.4492594 89.054289 0 0 7.60253,9.19372 9.3188917,7.4492594 89.054289 0 0 7.29493,-9.44092 9.3188917,7.4492594 89.054289 0 0 -7.60254,-9.19372 z m -226.6626,7.38097 a 13.195862,13.195862 0 0 0 -13.19458,13.19459 13.195862,13.195862 0 0 0 13.19458,13.19641 13.195862,13.195862 0 0 0 13.19641,-13.19641 13.195862,13.195862 0 0 0 -13.19641,-13.19459 z m 207.44385,2.46278 a 9.3188917,7.4492594 89.054289 0 0 -7.29492,9.43909 9.3188917,7.4492594 89.054289 0 0 7.60253,9.19555 9.3188917,7.4492594 89.054289 0 0 7.29493,-9.44092 9.3188917,7.4492594 89.054289 0 0 -7.60254,-9.19372 z m -363.91113,2.57812 a 7.4492593,9.3188916 0.94571065 0 0 -7.60254,9.19373 7.4492593,9.3188916 0.94571065 0 0 7.29493,9.44092 7.4492593,9.3188916 0.94571065 0 0 7.60253,-9.19373 7.4492593,9.3188916 0.94571065 0 0 -7.29492,-9.44092 z m 340.00488,5.39063 a 9.3188917,7.4492594 89.054289 0 0 -7.29492,9.44092 9.3188917,7.4492594 89.054289 0 0 7.60254,9.19372 9.3188917,7.4492594 89.054289 0 0 7.29492,-9.44092 9.3188917,7.4492594 89.054289 0 0 -7.60254,-9.19372 z m -317.97363,0.9375 a 7.4492593,9.3188916 0.94571065 0 0 -7.60254,9.19372 7.4492593,9.3188916 0.94571065 0 0 7.29493,9.44092 7.4492593,9.3188916 0.94571065 0 0 7.60253,-9.19372 7.4492593,9.3188916 0.94571065 0 0 -7.29492,-9.44092 z m 26.71875,3.28125 a 7.4492593,9.3188916 0.94571065 0 0 -7.60254,9.19372 7.4492593,9.3188916 0.94571065 0 0 7.29493,9.44092 7.4492593,9.3188916 0.94571065 0 0 7.60253,-9.19372 7.4492593,9.3188916 0.94571065 0 0 -7.29492,-9.44092 z m 260.78613,0.9375 a 9.3188917,7.4492594 89.054289 0 0 -7.29492,9.43909 9.3188917,7.4492594 89.054289 0 0 7.60254,9.19555 9.3188917,7.4492594 89.054289 0 0 7.29492,-9.44092 9.3188917,7.4492594 89.054289 0 0 -7.60254,-9.19372 z m -229.84863,3.28125 a 7.4492593,9.3188916 0.94571065 0 0 -7.60254,9.19372 7.4492593,9.3188916 0.94571065 0 0 7.29493,9.44092 7.4492593,9.3188916 0.94571065 0 0 7.60253,-9.19373 7.4492593,9.3188916 0.94571065 0 0 -7.29492,-9.44091 z m 194.22363,0.46875 a 9.3188917,7.4492594 89.054289 0 0 -7.29492,9.43909 9.3188917,7.4492594 89.054289 0 0 7.60254,9.19555 9.3188917,7.4492594 89.054289 0 0 7.29492,-9.44092 9.3188917,7.4492594 89.054289 0 0 -7.60254,-9.19372 z M 259.7624,784.4153 a 7.4492593,9.3188916 0.94571065 0 0 -7.60253,9.19373 7.4492593,9.3188916 0.94571065 0 0 7.29492,9.44091 7.4492593,9.3188916 0.94571065 0 0 7.60253,-9.19372 7.4492593,9.3188916 0.94571065 0 0 -7.29492,-9.44092 z m 132.58301,0.70313 a 9.3188917,7.4492594 89.054289 0 0 -7.29492,9.43909 9.3188917,7.4492594 89.054289 0 0 7.60254,9.19555 9.3188917,7.4492594 89.054289 0 0 7.29492,-9.44092 9.3188917,7.4492594 89.054289 0 0 -7.60254,-9.19372 z m -31.875,0.46875 a 9.3188917,7.4492594 89.054289 0 0 -7.29492,9.44091 9.3188917,7.4492594 89.054289 0 0 7.60254,9.19373 9.3188917,7.4492594 89.054289 0 0 7.29492,-9.44092 9.3188917,7.4492594 89.054289 0 0 -7.60254,-9.19372 z" style="display:inline;opacity:1;fill:#5d5e00;fill-opacity:0.5;stroke:none;stroke-width:4.6875;stroke-linecap:round;stroke-linejoin:round;stroke-miterlimit:4;stroke-dasharray:none;stroke-opacity:1;enable-background:new" inkscape:connector-curvature="0"></path>
      <path style="display:inline;opacity:1;fill:#feff00;fill-opacity:1;stroke:none;stroke-width:5;stroke-linecap:round;stroke-linejoin:round;stroke-miterlimit:4;stroke-dasharray:none;stroke-opacity:1;enable-background:new" d="m 524.74219,503.4082 a 7.0489297,5.6347162 70.602806 0 0 -1.50586,0.25977 7.0489297,5.6347162 70.602806 0 0 -2.97461,8.51953 7.0489297,5.6347162 70.602806 0 0 7.65625,4.77734 7.0489297,5.6347162 70.602806 0 0 2.97461,-8.51953 7.0489297,5.6347162 70.602806 0 0 -6.15039,-5.03711 z m -15.20117,4.59766 a 7.0489297,5.6347162 70.602806 0 0 -1.50782,0.25781 7.0489297,5.6347162 70.602806 0 0 -2.97461,8.51953 7.0489297,5.6347162 70.602806 0 0 7.65625,4.77735 7.0489297,5.6347162 70.602806 0 0 2.97461,-8.51953 7.0489297,5.6347162 70.602806 0 0 -6.14843,-5.03516 z m -15.28907,2.88867 a 7.0489297,5.6347162 70.602806 0 0 -1.50781,0.25781 7.0489297,5.6347162 70.602806 0 0 -2.97266,8.51954 7.0489297,5.6347162 70.602806 0 0 7.6543,4.77734 7.0489297,5.6347162 70.602806 0 0 2.97461,-8.51953 7.0489297,5.6347162 70.602806 0 0 -6.14844,-5.03516 z m -362.47851,0.70703 a 5.6347164,7.04893 19.397195 0 0 -6.14844,5.03516 5.6347164,7.04893 19.397195 0 0 2.97461,8.51953 5.6347164,7.04893 19.397195 0 0 7.65625,-4.77734 5.6347164,7.04893 19.397195 0 0 -2.97461,-8.51953 5.6347164,7.04893 19.397195 0 0 -1.50781,-0.25782 z m 347.56836,4.30274 a 7.0489297,5.6347162 70.602806 0 0 -1.50782,0.25781 7.0489297,5.6347162 70.602806 0 0 -2.97265,8.52148 7.0489297,5.6347162 70.602806 0 0 7.65625,4.77735 7.0489297,5.6347162 70.602806 0 0 2.97265,-8.52149 7.0489297,5.6347162 70.602806 0 0 -6.14843,-5.03515 z m -332.71875,0.64648 a 5.6347164,7.04893 19.397195 0 0 -6.14844,5.03516 5.6347164,7.04893 19.397195 0 0 2.97461,8.52148 5.6347164,7.04893 19.397195 0 0 7.6543,-4.77734 5.6347164,7.04893 19.397195 0 0 -2.97266,-8.52149 5.6347164,7.04893 19.397195 0 0 -1.50781,-0.25781 z m 14.26367,2.7168 a 5.6347164,7.04893 19.397195 0 0 -6.14844,5.03711 5.6347164,7.04893 19.397195 0 0 2.97266,8.51953 5.6347164,7.04893 19.397195 0 0 7.65625,-4.77734 5.6347164,7.04893 19.397195 0 0 -2.97266,-8.51954 5.6347164,7.04893 19.397195 0 0 -1.50781,-0.25976 z m 302.1914,1.08594 a 7.0489297,5.6347162 70.602806 0 0 -1.50781,0.25976 7.0489297,5.6347162 70.602806 0 0 -2.97265,8.51953 7.0489297,5.6347162 70.602806 0 0 7.65625,4.77735 7.0489297,5.6347162 70.602806 0 0 2.97265,-8.51954 7.0489297,5.6347162 70.602806 0 0 -6.14844,-5.0371 z m -17.9707,5.36523 a 7.0489297,5.6347162 70.602806 0 0 -1.50781,0.25781 7.0489297,5.6347162 70.602806 0 0 -2.97266,8.51953 7.0489297,5.6347162 70.602806 0 0 7.65625,4.77735 7.0489297,5.6347162 70.602806 0 0 2.97266,-8.51953 7.0489297,5.6347162 70.602806 0 0 -6.14844,-5.03516 z m -268.33594,0.38867 a 5.6347164,7.04893 19.397195 0 0 -6.14843,5.03516 5.6347164,7.04893 19.397195 0 0 2.97265,8.52148 5.6347164,7.04893 19.397195 0 0 7.65625,-4.77734 5.6347164,7.04893 19.397195 0 0 -2.97265,-8.52149 5.6347164,7.04893 19.397195 0 0 -1.50782,-0.25781 z m 14.5,6.5 a 5.6347164,7.04893 19.397195 0 0 -6.14843,5.03516 5.6347164,7.04893 19.397195 0 0 2.97265,8.52148 5.6347164,7.04893 19.397195 0 0 7.65625,-4.77734 5.6347164,7.04893 19.397195 0 0 -2.97265,-8.52149 5.6347164,7.04893 19.397195 0 0 -1.50782,-0.25781 z m 236.71875,1.24219 a 7.0489297,5.6347162 70.602806 0 0 -1.50585,0.25781 7.0489297,5.6347162 70.602806 0 0 -2.97461,8.52149 7.0489297,5.6347162 70.602806 0 0 7.65625,4.77734 7.0489297,5.6347162 70.602806 0 0 2.97265,-8.52148 7.0489297,5.6347162 70.602806 0 0 -6.14844,-5.03516 z m -13.20312,8.44922 a 7.0489297,5.6347162 70.602806 0 0 -1.50586,0.25976 7.0489297,5.6347162 70.602806 0 0 -2.97461,8.51953 7.0489297,5.6347162 70.602806 0 0 7.65625,4.77735 7.0489297,5.6347162 70.602806 0 0 2.97461,-8.51953 7.0489297,5.6347162 70.602806 0 0 -6.15039,-5.03711 z m -209.12109,0.76953 a 5.6347164,7.04893 19.397195 0 0 -6.14844,5.03516 5.6347164,7.04893 19.397195 0 0 2.97461,8.51953 5.6347164,7.04893 19.397195 0 0 7.65625,-4.77735 5.6347164,7.04893 19.397195 0 0 -2.97461,-8.51953 5.6347164,7.04893 19.397195 0 0 -1.50781,-0.25781 z m 192.5039,4.88867 a 7.0489297,5.6347162 70.602806 0 0 -1.50586,0.25781 7.0489297,5.6347162 70.602806 0 0 -2.97461,8.51954 7.0489297,5.6347162 70.602806 0 0 7.65625,4.77734 7.0489297,5.6347162 70.602806 0 0 2.97461,-8.51953 7.0489297,5.6347162 70.602806 0 0 -6.15039,-5.03516 z m -74.24609,2.12109 a 7.0489297,5.6347162 70.602806 0 0 -1.50586,0.25782 7.0489297,5.6347162 70.602806 0 0 -2.97461,8.51953 7.0489297,5.6347162 70.602806 0 0 7.65625,4.77734 7.0489297,5.6347162 70.602806 0 0 2.97461,-8.51953 7.0489297,5.6347162 70.602806 0 0 -6.15039,-5.03516 z m -63.81055,1.1211 a 5.6347164,7.04893 19.397195 0 0 -6.14844,5.03516 5.6347164,7.04893 19.397195 0 0 2.97461,8.52148 5.6347164,7.04893 19.397195 0 0 7.65625,-4.77734 5.6347164,7.04893 19.397195 0 0 -2.97461,-8.52149 5.6347164,7.04893 19.397195 0 0 -1.50781,-0.25781 z m -25.80859,1.76758 a 5.6347164,7.04893 19.397195 0 0 -6.14844,5.03515 5.6347164,7.04893 19.397195 0 0 2.97266,8.52149 5.6347164,7.04893 19.397195 0 0 7.65625,-4.77735 5.6347164,7.04893 19.397195 0 0 -2.97266,-8.52148 5.6347164,7.04893 19.397195 0 0 -1.50781,-0.25781 z m 143.00586,1.70703 a 7.0489297,5.6347162 70.602806 0 0 -1.50586,0.25781 7.0489297,5.6347162 70.602806 0 0 -2.97461,8.52148 7.0489297,5.6347162 70.602806 0 0 7.65625,4.77735 7.0489297,5.6347162 70.602806 0 0 2.97461,-8.52149 7.0489297,5.6347162 70.602806 0 0 -6.15039,-5.03515 z m -24.39453,3.18164 a 7.0489297,5.6347162 70.602806 0 0 -1.50782,0.25976 7.0489297,5.6347162 70.602806 0 0 -2.97265,8.51954 7.0489297,5.6347162 70.602806 0 0 7.65625,4.77734 7.0489297,5.6347162 70.602806 0 0 2.97265,-8.51953 7.0489297,5.6347162 70.602806 0 0 -6.14843,-5.03711 z m -65.7754,53.64648 a 14.075586,14.075586 0 0 0 -14.07421,14.07617 14.075586,14.075586 0 0 0 14.07421,14.07618 14.075586,14.075586 0 0 0 14.07618,-14.07618 14.075586,14.075586 0 0 0 -14.07618,-14.07617 z m -2.48828,54.45313 a 14.075586,14.075586 0 0 0 -14.07422,14.07617 14.075586,14.075586 0 0 0 14.07422,14.07617 14.075586,14.075586 0 0 0 14.07618,-14.07617 14.075586,14.075586 0 0 0 -14.07618,-14.07617 z m 250.02735,47.98633 a 9.9401513,7.9458768 89.054289 0 0 -7.78125,10.07031 9.9401513,7.9458768 89.054289 0 0 8.10937,9.80664 9.9401513,7.9458768 89.054289 0 0 7.78125,-10.07031 9.9401513,7.9458768 89.054289 0 0 -8.10937,-9.80664 z m -241.77344,7.87304 a 14.075586,14.075586 0 0 0 -14.07422,14.07422 14.075586,14.075586 0 0 0 14.07422,14.07617 14.075586,14.075586 0 0 0 14.07617,-14.07617 14.075586,14.075586 0 0 0 -14.07617,-14.07422 z m 221.27344,2.62696 a 9.9401513,7.9458768 89.054289 0 0 -7.78125,10.06836 9.9401513,7.9458768 89.054289 0 0 8.10937,9.80859 9.9401513,7.9458768 89.054289 0 0 7.78125,-10.07031 9.9401513,7.9458768 89.054289 0 0 -8.10937,-9.80664 z m -388.17188,2.75 a 7.9458767,9.9401511 0.94571065 0 0 -8.10937,9.80664 7.9458767,9.9401511 0.94571065 0 0 7.78125,10.07031 7.9458767,9.9401511 0.94571065 0 0 8.10937,-9.80664 7.9458767,9.9401511 0.94571065 0 0 -7.78125,-10.07031 z m 362.67188,5.75 a 9.9401513,7.9458768 89.054289 0 0 -7.78125,10.07031 9.9401513,7.9458768 89.054289 0 0 8.10937,9.80664 9.9401513,7.9458768 89.054289 0 0 7.78125,-10.07031 9.9401513,7.9458768 89.054289 0 0 -8.10937,-9.80664 z m -339.17188,1 a 7.9458767,9.9401511 0.94571065 0 0 -8.10937,9.80664 7.9458767,9.9401511 0.94571065 0 0 7.78125,10.07031 7.9458767,9.9401511 0.94571065 0 0 8.10937,-9.80664 7.9458767,9.9401511 0.94571065 0 0 -7.78125,-10.07031 z m 28.5,3.5 a 7.9458767,9.9401511 0.94571065 0 0 -8.10937,9.80664 7.9458767,9.9401511 0.94571065 0 0 7.78125,10.07031 7.9458767,9.9401511 0.94571065 0 0 8.10937,-9.80664 7.9458767,9.9401511 0.94571065 0 0 -7.78125,-10.07031 z m 278.17188,1 a 9.9401513,7.9458768 89.054289 0 0 -7.78125,10.06836 9.9401513,7.9458768 89.054289 0 0 8.10937,9.80859 9.9401513,7.9458768 89.054289 0 0 7.78125,-10.07031 9.9401513,7.9458768 89.054289 0 0 -8.10937,-9.80664 z m -245.17188,3.5 a 7.9458767,9.9401511 0.94571065 0 0 -8.10937,9.80664 7.9458767,9.9401511 0.94571065 0 0 7.78125,10.07031 7.9458767,9.9401511 0.94571065 0 0 8.10937,-9.80664 7.9458767,9.9401511 0.94571065 0 0 -7.78125,-10.07031 z m 207.17188,0.5 a 9.9401513,7.9458768 89.054289 0 0 -7.78125,10.06836 9.9401513,7.9458768 89.054289 0 0 8.10937,9.80859 9.9401513,7.9458768 89.054289 0 0 7.78125,-10.07031 9.9401513,7.9458768 89.054289 0 0 -8.10937,-9.80664 z m -176.92188,0.75 a 7.9458767,9.9401511 0.94571065 0 0 -8.10937,9.80664 7.9458767,9.9401511 0.94571065 0 0 7.78125,10.07031 7.9458767,9.9401511 0.94571065 0 0 8.10937,-9.80664 7.9458767,9.9401511 0.94571065 0 0 -7.78125,-10.07031 z m 141.42188,0.75 a 9.9401513,7.9458768 89.054289 0 0 -7.78125,10.06836 9.9401513,7.9458768 89.054289 0 0 8.10937,9.80859 9.9401513,7.9458768 89.054289 0 0 7.78125,-10.07031 9.9401513,7.9458768 89.054289 0 0 -8.10937,-9.80664 z m -34,0.5 a 9.9401513,7.9458768 89.054289 0 0 -7.78125,10.07031 9.9401513,7.9458768 89.054289 0 0 8.10937,9.80664 9.9401513,7.9458768 89.054289 0 0 7.78125,-10.07031 9.9401513,7.9458768 89.054289 0 0 -8.10937,-9.80664 z" id="ellipse4733" inkscape:connector-curvature="0" transform="matrix(0.93749999,0,0,0.93749999,35.458208,86.501485)"></path>
    </g>
    <g inkscape:groupmode="layer" id="layer21" inkscape:label="gopher-ears" style="display:inline">
      <g id="g7429" transform="matrix(-1.9881831,0.21739677,0.21739677,1.9881831,2778.6314,119.86106)">
        <path sodipodi:nodetypes="sssssss" inkscape:connector-curvature="0" id="path7413" d="m 1173.5473,-22.321308 c -6.1478,-9.220068 -12.0021,-17.491969 -23.0557,-18.281223 -4.7865,-0.341771 -9.1976,1.209027 -11.9565,5.135408 -3.196,4.54846 -3.0519,9.435108 -1.0392,14.617009 2.2478,5.787283 9.4759,4.177614 13.0282,5.381728 10.222,3.464886 15.6786,0.501774 20.427,-1.421573 1.8535,-0.75074 4.4763,-2.611697 2.5962,-5.431349 z" style="fill:#394655;fill-rule:evenodd;stroke:none;stroke-width:1px;stroke-linecap:butt;stroke-linejoin:miter;stroke-opacity:1"></path>
        <path style="fill:#96d6ff;fill-rule:evenodd;stroke:none;stroke-width:1px;stroke-linecap:butt;stroke-linejoin:miter;stroke-opacity:1" d="m 1174.4096,-18.762444 c -5.4808,-8.219784 -13.3104,-19.891443 -23.1648,-20.595071 -4.2672,-0.304692 -8.4497,1.20286 -10.9093,4.703268 -2.8493,4.054998 -2.7208,8.411494 -0.9265,13.031211 2.004,5.159421 7.904,3.883049 11.2317,4.21271 8.6248,0.854435 10.7056,7.27582 18.0588,1.957659 1.4446,-1.044784 7.3862,-0.796029 5.7101,-3.309777 z" id="path7415" inkscape:connector-curvature="0" sodipodi:nodetypes="sssssss"></path>
        <path sodipodi:nodetypes="scccccssccss" inkscape:connector-curvature="0" id="path7421" d="m 1151.0309,-30.810547 c -0.8736,-0.0416 -1.5703,0.02813 -2.1178,0.144531 -0.5477,0.116405 -0.9439,0.279762 -1.2096,0.421875 -0.2659,0.142114 -0.4317,0.291016 -0.4317,0.291016 -0.4844,0.458333 0.247,0.654566 0.7313,0.196233 0,0 0.031,-0.03861 0.215,-0.136719 0.1834,-0.09811 0.4829,-0.2561 0.9457,-0.324219 1.6224,-0.238779 2.6699,-0.104086 5.0507,0.519914 5.2164,1.367156 7.4651,6.899088 7.4651,6.899088 0.2688,0.652198 1.2407,0.186248 0.9005,-0.431641 0,0 -2.6417,-5.555575 -8.3759,-7.058593 -1.2497,-0.327563 -2.2997,-0.479889 -3.1733,-0.521485 z" style="color:#000000;font-style:normal;font-variant:normal;font-weight:normal;font-stretch:normal;font-size:medium;line-height:normal;font-family:sans-serif;text-indent:0;text-align:start;text-decoration:none;text-decoration-line:none;text-decoration-style:solid;text-decoration-color:#000000;letter-spacing:normal;word-spacing:normal;text-transform:none;writing-mode:lr-tb;direction:ltr;baseline-shift:baseline;text-anchor:start;white-space:normal;clip-rule:nonzero;display:inline;overflow:visible;opacity:1;isolation:auto;mix-blend-mode:normal;color-interpolation:sRGB;color-interpolation-filters:linearRGB;solid-color:#000000;solid-opacity:1;fill:#394655;fill-opacity:1;fill-rule:evenodd;stroke:none;stroke-width:1px;stroke-linecap:round;stroke-linejoin:miter;stroke-miterlimit:4;stroke-dasharray:none;stroke-dashoffset:0;stroke-opacity:1;color-rendering:auto;image-rendering:auto;shape-rendering:auto;text-rendering:auto;enable-background:accumulate"></path>
        <path sodipodi:nodetypes="cccsccc" inkscape:connector-curvature="0" id="path7423" d="m 1156.9902,-25.234375 c -0.6737,0.05062 -1.2809,0.154069 -1.7793,0.357422 -0.4983,0.203352 -0.9613,0.569941 -1.0234,1.132812 -0.074,0.66363 0.2319,0.0483 0.3932,-0.15736 1.7239,-2.197543 6.0276,-0.477609 6.4974,-0.08678 0.6562,0.1198 0.8359,-0.864575 0.1797,-0.984375 -1.3106,-0.238742 -2.9201,-0.362949 -4.2676,-0.261719 z" style="color:#000000;font-style:normal;font-variant:normal;font-weight:normal;font-stretch:normal;font-size:medium;line-height:normal;font-family:sans-serif;text-indent:0;text-align:start;text-decoration:none;text-decoration-line:none;text-decoration-style:solid;text-decoration-color:#000000;letter-spacing:normal;word-spacing:normal;text-transform:none;writing-mode:lr-tb;direction:ltr;baseline-shift:baseline;text-anchor:start;white-space:normal;clip-rule:nonzero;display:inline;overflow:visible;opacity:1;isolation:auto;mix-blend-mode:normal;color-interpolation:sRGB;color-interpolation-filters:linearRGB;solid-color:#000000;solid-opacity:1;fill:#394655;fill-opacity:1;fill-rule:evenodd;stroke:none;stroke-width:1px;stroke-linecap:round;stroke-linejoin:miter;stroke-miterlimit:4;stroke-dasharray:none;stroke-dashoffset:0;stroke-opacity:1;color-rendering:auto;image-rendering:auto;shape-rendering:auto;text-rendering:auto;enable-background:accumulate"></path>
      </g>
      <g transform="matrix(1.9881831,-0.21739677,0.21739677,1.9881831,-2102.1827,643.08036)" id="g7435">
        <path style="fill:#394655;fill-rule:evenodd;stroke:none;stroke-width:1px;stroke-linecap:butt;stroke-linejoin:miter;stroke-opacity:1" d="m 1173.5473,-22.321308 c -6.1478,-9.220068 -12.0021,-17.491969 -23.0557,-18.281223 -4.7865,-0.341771 -9.1976,1.209027 -11.9565,5.135408 -3.196,4.54846 -3.0519,9.435108 -1.0392,14.617009 2.2478,5.787283 9.313,4.865607 13.0282,5.381728 10.0069,1.390182 15.7726,0.857918 20.427,-1.421573 1.7959,-0.879553 4.4763,-2.611697 2.5962,-5.431349 z" id="path7437" inkscape:connector-curvature="0" sodipodi:nodetypes="sssssss"></path>
        <path sodipodi:nodetypes="sssssss" inkscape:connector-curvature="0" id="path7439" d="m 1174.7592,-21.142068 c -7.5368,-6.387588 -13.66,-17.511819 -23.5144,-18.215447 -4.2672,-0.304692 -8.4497,1.20286 -10.9093,4.703268 -2.8493,4.054998 -2.7208,8.411494 -0.9265,13.031211 2.004,5.159421 8.2791,4.562621 11.6148,4.797865 15.7136,1.108183 12.5237,3.716641 14.2362,3.469601 1.7645,-0.254549 11.9397,-5.71804 9.4992,-7.786498 z" style="fill:#96d6ff;fill-rule:evenodd;stroke:none;stroke-width:1px;stroke-linecap:butt;stroke-linejoin:miter;stroke-opacity:1"></path>
        <path style="color:#000000;font-style:normal;font-variant:normal;font-weight:normal;font-stretch:normal;font-size:medium;line-height:normal;font-family:sans-serif;text-indent:0;text-align:start;text-decoration:none;text-decoration-line:none;text-decoration-style:solid;text-decoration-color:#000000;letter-spacing:normal;word-spacing:normal;text-transform:none;writing-mode:lr-tb;direction:ltr;baseline-shift:baseline;text-anchor:start;white-space:normal;clip-rule:nonzero;display:inline;overflow:visible;opacity:1;isolation:auto;mix-blend-mode:normal;color-interpolation:sRGB;color-interpolation-filters:linearRGB;solid-color:#000000;solid-opacity:1;fill:#394655;fill-opacity:1;fill-rule:evenodd;stroke:none;stroke-width:1px;stroke-linecap:round;stroke-linejoin:miter;stroke-miterlimit:4;stroke-dasharray:none;stroke-dashoffset:0;stroke-opacity:1;color-rendering:auto;image-rendering:auto;shape-rendering:auto;text-rendering:auto;enable-background:accumulate" d="m 1151.0309,-30.810547 c -0.7754,-0.08616 -1.5571,-0.170099 -2.3366,-0.136719 -0.5437,0.02329 -1.1081,0.03828 -1.6158,0.234375 -0.1619,0.06253 -0.4603,0.119844 -0.4317,0.291016 0.042,0.248942 0.4818,0.234479 0.7313,0.196233 0.084,-0.01287 0.1348,-0.10891 0.215,-0.136719 0.428,-0.148313 0.8991,-0.148064 1.3519,-0.136719 1.7762,0.0445 2.8887,0.177164 5.2695,0.801164 5.2164,1.367156 7.4651,6.899088 7.4651,6.899088 0.2688,0.652198 1.2407,0.186248 0.9005,-0.431641 0,0 -2.6417,-5.555575 -8.3759,-7.058593 -1.2497,-0.327563 -2.1079,-0.403101 -3.1733,-0.521485 z" id="path7441" inkscape:connector-curvature="0" sodipodi:nodetypes="ssssssssccss"></path>
        <path style="color:#000000;font-style:normal;font-variant:normal;font-weight:normal;font-stretch:normal;font-size:medium;line-height:normal;font-family:sans-serif;text-indent:0;text-align:start;text-decoration:none;text-decoration-line:none;text-decoration-style:solid;text-decoration-color:#000000;letter-spacing:normal;word-spacing:normal;text-transform:none;writing-mode:lr-tb;direction:ltr;baseline-shift:baseline;text-anchor:start;white-space:normal;clip-rule:nonzero;display:inline;overflow:visible;opacity:1;isolation:auto;mix-blend-mode:normal;color-interpolation:sRGB;color-interpolation-filters:linearRGB;solid-color:#000000;solid-opacity:1;fill:#394655;fill-opacity:1;fill-rule:evenodd;stroke:none;stroke-width:1px;stroke-linecap:round;stroke-linejoin:miter;stroke-miterlimit:4;stroke-dasharray:none;stroke-dashoffset:0;stroke-opacity:1;color-rendering:auto;image-rendering:auto;shape-rendering:auto;text-rendering:auto;enable-background:accumulate" d="m 1156.9902,-25.234375 c -0.6737,0.05062 -1.2809,0.154069 -1.7793,0.357422 -0.4983,0.203352 -0.9613,0.569941 -1.0234,1.132812 -0.074,0.66363 0.2319,0.0483 0.3932,-0.15736 1.7239,-2.197543 6.0276,-0.477609 6.4974,-0.08678 0.6562,0.1198 0.8359,-0.864575 0.1797,-0.984375 -1.3106,-0.238742 -2.9201,-0.362949 -4.2676,-0.261719 z" id="path7443" inkscape:connector-curvature="0" sodipodi:nodetypes="cccsccc"></path>
      </g>
    </g>
    <g inkscape:groupmode="layer" id="layer3" inkscape:label="robe-sleeves" style="display:inline">
      <path style="opacity:1;fill:#3d7892;fill-opacity:1;stroke:none;stroke-width:4.6875;stroke-linecap:round;stroke-miterlimit:4;stroke-dasharray:none;stroke-opacity:1" d="m 443.17594,639.12721 c 0,0 -8.22299,8.40738 -8.2864,9.61222 -0.16573,3.14884 5.63475,12.09816 5.63475,12.09816 0,0 -13.80083,10.82768 -14.25262,16.57282 -0.50688,6.44563 2.98311,12.59534 8.61787,13.42398 5.63475,0.82864 23.36766,-14.91553 23.36766,-14.91553 0,0 6.96058,3.48028 10.44088,2.81738 3.48029,-0.66292 15.74417,-11.93244 15.74417,-11.93244 z" id="path5429" inkscape:connector-curvature="0" sodipodi:nodetypes="cscsscccc"></path>
      <g style="display:inline;enable-background:new" transform="matrix(0.40354495,-0.4157633,0.50653551,0.62078362,-0.7416354,463.32084)" id="g4756">
        <path style="color:#000000;clip-rule:nonzero;display:inline;overflow:visible;opacity:1;isolation:auto;mix-blend-mode:normal;color-interpolation:sRGB;color-interpolation-filters:linearRGB;solid-color:#000000;solid-opacity:1;fill:#e1d6b9;fill-opacity:1;fill-rule:nonzero;stroke:none;stroke-width:10;stroke-linecap:butt;stroke-linejoin:miter;stroke-miterlimit:4;stroke-dasharray:none;stroke-dashoffset:0;stroke-opacity:1;color-rendering:auto;image-rendering:auto;shape-rendering:auto;text-rendering:auto;enable-background:accumulate" d="m 423.50332,581.83521 c -0.004,4.40048 -1.19837,7.58856 -3.37524,9.82844 -2.17687,2.23987 -5.33154,3.55156 -9.14619,4.44292 -3.81465,0.89135 -8.28246,1.39523 -13.05675,1.83828 -4.77428,0.44304 -9.85163,0.79076 -14.95001,1.09928 -5.09838,0.30851 -9.94541,0.34741 -14.40217,0.0862 -4.45676,-0.26122 -8.52354,-0.79908 -11.99271,-1.71189 -3.46915,-0.91282 -6.33736,-2.21356 -8.3562,-4.09288 -2.01885,-1.87935 -3.18709,-4.34475 -3.25466,-7.51083 -0.0676,-3.16607 0.9983,-5.4859 2.92534,-7.0838 1.92703,-1.5979 4.71248,-2.46394 8.09977,-2.84688 3.38729,-0.38293 7.37282,-0.28336 11.77044,-0.16051 4.39762,0.12284 9.21051,0.23456 14.33166,-0.12202 5.12115,-0.35659 10.27171,-1.47349 15.16022,-2.54099 4.88852,-1.06749 9.50395,-2.05149 13.43823,-2.27114 3.9343,-0.21967 7.17754,0.32322 9.39823,2.04598 2.22069,1.72276 3.41425,4.59936 3.41004,8.99986 z" id="path4752" inkscape:connector-curvature="0" sodipodi:nodetypes="sssssssssssssssss"></path>
        <path style="color:#000000;clip-rule:nonzero;display:inline;overflow:visible;opacity:1;isolation:auto;mix-blend-mode:normal;color-interpolation:sRGB;color-interpolation-filters:linearRGB;solid-color:#000000;solid-opacity:1;fill:#394655;fill-opacity:1;fill-rule:nonzero;stroke:none;stroke-width:10;stroke-linecap:butt;stroke-linejoin:miter;stroke-miterlimit:4;stroke-dasharray:none;stroke-dashoffset:0;stroke-opacity:1;color-rendering:auto;image-rendering:auto;shape-rendering:auto;text-rendering:auto;enable-background:accumulate" d="m 411.91406,568.54883 c -3.75011,-0.0271 -8.08701,0.53975 -12.76172,1.28711 -5.34251,0.85413 -11.10706,1.92059 -17.00976,2.32617 -5.9027,0.40562 -11.41103,0.38326 -16.44727,0.41406 -5.03624,0.0309 -9.6045,0.1607 -13.50781,0.85938 -3.9033,0.69867 -7.13503,1.96743 -9.4082,3.96875 -2.27316,2.00131 -3.58535,4.71676 -3.65235,8.17578 -0.067,3.45901 1.21821,6.3073 3.54297,8.58008 2.32476,2.27278 5.68789,3.9795 9.76172,5.25 4.07385,1.27051 8.85237,2.11894 14.05664,2.59765 5.20427,0.47871 10.83381,0.56134 16.70313,0.22266 5.86931,-0.33868 11.47146,-0.78653 16.60547,-1.34961 5.13399,-0.56309 9.79334,-1.22365 13.70703,-2.34375 1.48913,-0.4262 2.86677,-0.9287 4.12695,-1.51953 2.54507,-1.19325 2.05015,-6.17249 -0.0996,-4.54102 -1.99172,1.51153 -4.55969,2.50355 -7.57031,3.20703 -3.66893,0.85731 -7.96668,1.34146 -12.5586,1.76758 -4.59191,0.42612 -9.47527,0.75991 -14.3789,1.05664 -4.90363,0.29673 -9.56506,0.33523 -13.85156,0.084 -4.28652,-0.25124 -8.19851,-0.76855 -11.53516,-1.64649 -3.33664,-0.87795 -6.09539,-2.12996 -8.03711,-3.9375 -1.94173,-1.80756 -3.06587,-4.17751 -3.13086,-7.22265 -0.065,-3.04513 0.96102,-5.2776 2.81445,-6.81446 1.85342,-1.53686 4.53117,-2.36997 7.78907,-2.73828 3.2579,-0.36831 7.09262,-0.27244 11.32226,-0.1543 4.22963,0.11816 8.85767,0.22578 13.7832,-0.11718 4.92553,-0.34297 9.88026,-1.41664 14.58204,-2.44336 4.70178,-1.02671 9.13982,-1.97234 12.92382,-2.1836 0.473,-0.0264 0.93707,-0.0422 1.38868,-0.0449 1.16046,-0.007 2.25007,0.0442 3.25,0.23633 1.15313,0.22156 2.31543,-2.86146 -0.83789,-2.92773 -0.51177,-0.0108 -1.03459,-0.045 -1.57032,-0.0488 z" id="path4754" inkscape:connector-curvature="0" sodipodi:nodetypes="ssscsscssssssssssssssssssssccsss"></path>
      </g>
      <path style="opacity:1;fill:#468aa9;fill-opacity:1;stroke:#1d4455;stroke-width:4.6875;stroke-linecap:round;stroke-linejoin:round;stroke-miterlimit:4;stroke-dasharray:none;stroke-opacity:1" d="m 438.52978,645.67292 c 4.98677,9.92999 18.02816,20.48687 32.81418,28.50524 l 18.893,-16.24135 c 10.8887,-28.0776 -0.1227,-31.95086 -39.11184,-26.84796 z" id="path4653" inkscape:connector-curvature="0" sodipodi:nodetypes="ccccc"></path>
      <circle r="4.5878439" cy="654.46912" cx="462.36469" id="circle4678" style="display:inline;opacity:1;fill:#feff00;fill-opacity:1;stroke:none;stroke-width:4.6875;stroke-linecap:round;stroke-linejoin:round;stroke-miterlimit:4;stroke-dasharray:none;stroke-opacity:1;enable-background:new"></circle>
      <circle style="display:inline;opacity:1;fill:#feff00;fill-opacity:1;stroke:none;stroke-width:4.6875;stroke-linecap:round;stroke-linejoin:round;stroke-miterlimit:4;stroke-dasharray:none;stroke-opacity:1;enable-background:new" id="circle4683" cx="470.89502" cy="662.10156" r="4.5878439"></circle>
      <g id="g4656" transform="matrix(-0.44879961,-0.36645129,-0.43156526,0.67505701,625.06407,403.9235)" style="display:inline;enable-background:new">
        <path sodipodi:nodetypes="sssssssssssssssss" inkscape:connector-curvature="0" id="path4652" d="m 423.50332,581.83521 c -0.004,4.40048 -1.19837,7.58856 -3.37524,9.82844 -2.17687,2.23987 -5.33154,3.55156 -9.14619,4.44292 -3.81465,0.89135 -8.28246,1.39523 -13.05675,1.83828 -4.77428,0.44304 -9.85163,0.79076 -14.95001,1.09928 -5.09838,0.30851 -9.94541,0.34741 -14.40217,0.0862 -4.45676,-0.26122 -8.52354,-0.79908 -11.99271,-1.71189 -3.46915,-0.91282 -6.33736,-2.21356 -8.3562,-4.09288 -2.01885,-1.87935 -3.18709,-4.34475 -3.25466,-7.51083 -0.0676,-3.16607 0.9983,-5.4859 2.92534,-7.0838 1.92703,-1.5979 4.71248,-2.46394 8.09977,-2.84688 3.38729,-0.38293 7.37282,-0.28336 11.77044,-0.16051 4.39762,0.12284 9.21051,0.23456 14.33166,-0.12202 5.12115,-0.35659 10.27171,-1.47349 15.16022,-2.54099 4.88852,-1.06749 9.50395,-2.05149 13.43823,-2.27114 3.9343,-0.21967 7.17754,0.32322 9.39823,2.04598 2.22069,1.72276 3.41425,4.59936 3.41004,8.99986 z" style="color:#000000;clip-rule:nonzero;display:inline;overflow:visible;opacity:1;isolation:auto;mix-blend-mode:normal;color-interpolation:sRGB;color-interpolation-filters:linearRGB;solid-color:#000000;solid-opacity:1;fill:#e1d6b9;fill-opacity:1;fill-rule:nonzero;stroke:none;stroke-width:10;stroke-linecap:butt;stroke-linejoin:miter;stroke-miterlimit:4;stroke-dasharray:none;stroke-dashoffset:0;stroke-opacity:1;color-rendering:auto;image-rendering:auto;shape-rendering:auto;text-rendering:auto;enable-background:accumulate"></path>
        <path sodipodi:nodetypes="ssscsscssssssssssssssssssssccsss" inkscape:connector-curvature="0" id="path4654" d="m 411.91406,568.54883 c -3.75011,-0.0271 -8.08701,0.53975 -12.76172,1.28711 -5.34251,0.85413 -11.10706,1.92059 -17.00976,2.32617 -5.9027,0.40562 -11.41103,0.38326 -16.44727,0.41406 -5.03624,0.0309 -9.6045,0.1607 -13.50781,0.85938 -3.9033,0.69867 -7.13503,1.96743 -9.4082,3.96875 -2.27316,2.00131 -3.58535,4.71676 -3.65235,8.17578 -0.067,3.45901 1.21821,6.3073 3.54297,8.58008 2.32476,2.27278 5.68789,3.9795 9.76172,5.25 4.07385,1.27051 8.85237,2.11894 14.05664,2.59765 5.20427,0.47871 10.83381,0.56134 16.70313,0.22266 5.86931,-0.33868 11.47146,-0.78653 16.60547,-1.34961 5.13399,-0.56309 9.79334,-1.22365 13.70703,-2.34375 1.48913,-0.4262 2.86677,-0.9287 4.12695,-1.51953 2.54507,-1.19325 2.05015,-6.17249 -0.0996,-4.54102 -1.99172,1.51153 -4.55969,2.50355 -7.57031,3.20703 -3.66893,0.85731 -7.96668,1.34146 -12.5586,1.76758 -4.59191,0.42612 -9.47527,0.75991 -14.3789,1.05664 -4.90363,0.29673 -9.56506,0.33523 -13.85156,0.084 -4.28652,-0.25124 -8.19851,-0.76855 -11.53516,-1.64649 -3.33664,-0.87795 -6.09539,-2.12996 -8.03711,-3.9375 -1.94173,-1.80756 -3.06587,-4.17751 -3.13086,-7.22265 -0.065,-3.04513 0.96102,-5.2776 2.81445,-6.81446 1.85342,-1.53686 4.53117,-2.36997 7.78907,-2.73828 3.2579,-0.36831 7.09262,-0.27244 11.32226,-0.1543 4.22963,0.11816 8.85767,0.22578 13.7832,-0.11718 4.92553,-0.34297 9.88026,-1.41664 14.58204,-2.44336 4.70178,-1.02671 9.13982,-1.97234 12.92382,-2.1836 0.473,-0.0264 0.93707,-0.0422 1.38868,-0.0449 1.16046,-0.007 2.25007,0.0442 3.25,0.23633 1.15313,0.22156 2.31543,-2.86146 -0.83789,-2.92773 -0.51177,-0.0108 -1.03459,-0.045 -1.57032,-0.0488 z" style="color:#000000;clip-rule:nonzero;display:inline;overflow:visible;opacity:1;isolation:auto;mix-blend-mode:normal;color-interpolation:sRGB;color-interpolation-filters:linearRGB;solid-color:#000000;solid-opacity:1;fill:#394655;fill-opacity:1;fill-rule:nonzero;stroke:none;stroke-width:10;stroke-linecap:butt;stroke-linejoin:miter;stroke-miterlimit:4;stroke-dasharray:none;stroke-dashoffset:0;stroke-opacity:1;color-rendering:auto;image-rendering:auto;shape-rendering:auto;text-rendering:auto;enable-background:accumulate"></path>
      </g>
      <path sodipodi:nodetypes="ccccc" inkscape:connector-curvature="0" id="path5423" d="m 204.9006,646.07708 c -6.45304,7.52255 -20.01308,13.85478 -34.53712,17.61429 l -11.368,-18.12347 c 2.79228,-22.91695 8.34916,-25.31875 38.14029,-14.8248 z" style="opacity:1;fill:#3d7892;fill-opacity:1;stroke:#1d4455;stroke-width:4.18098927;stroke-linecap:round;stroke-linejoin:round;stroke-miterlimit:4;stroke-dasharray:none;stroke-opacity:1"></path>
      <circle style="display:inline;opacity:1;fill:#feff00;fill-opacity:1;stroke:none;stroke-width:4.6875;stroke-linecap:round;stroke-linejoin:round;stroke-miterlimit:4;stroke-dasharray:none;stroke-opacity:1;enable-background:new" id="circle5425" cx="-185.38644" cy="648.37537" r="4.5878439" transform="scale(-1,1)"></circle>
      <circle r="4.5878439" cy="652.72656" cx="-174.74673" id="circle5427" style="display:inline;opacity:1;fill:#feff00;fill-opacity:1;stroke:none;stroke-width:4.6875;stroke-linecap:round;stroke-linejoin:round;stroke-miterlimit:4;stroke-dasharray:none;stroke-opacity:1;enable-background:new" transform="scale(-1,1)"></circle>
    </g>
    <g inkscape:groupmode="layer" id="layer22" inkscape:label="gopher-face" style="display:inline">
      <path style="color:#000000;clip-rule:nonzero;display:inline;overflow:visible;opacity:1;isolation:auto;mix-blend-mode:normal;color-interpolation:sRGB;color-interpolation-filters:linearRGB;solid-color:#000000;solid-opacity:1;fill:#394655;fill-opacity:1;fill-rule:nonzero;stroke:none;stroke-width:2;stroke-linecap:round;stroke-linejoin:miter;stroke-miterlimit:1;stroke-dasharray:none;stroke-dashoffset:0;stroke-opacity:1;color-rendering:auto;image-rendering:auto;shape-rendering:auto;text-rendering:auto;enable-background:accumulate" d="m 303.5859,519.66709 23.45188,-1.6893 c 3.61438,-0.26018 7.3883,2.41893 7.45612,6.02033 0.15185,8.0731 1.2799,12.73575 -0.50777,25.81748 -0.46597,3.40845 -4.35497,6.96373 -7.97733,7.06467 l -16.13419,0.44907 c -3.62252,0.10147 -7.53827,-2.6221 -7.33769,-6.24917 0.72413,-13.09712 -2.60709,-17.26498 -4.54349,-24.45335 -0.94482,-3.5075 1.97795,-6.70001 5.59247,-6.96034 z" id="rect8141" inkscape:connector-curvature="0" sodipodi:nodetypes="sssssssss"></path>
      <path sodipodi:nodetypes="sssssssss" inkscape:connector-curvature="0" id="path8144" d="m 305.9822,523.01962 19.28031,-1.38881 c 2.97187,-0.21423 5.96513,1.9927 6.1301,4.94958 0.39669,7.10248 2.12306,13.28964 0.49105,21.78767 -0.59832,3.11671 -1.82777,4.62486 -4.59773,5.72225 -5.81594,2.30417 -11.14431,1.02301 -16.67117,1.20088 -2.97785,0.0968 -6.29446,-1.96762 -6.12999,-4.94954 0.47263,-8.56686 -1.41246,-14.99381 -3.10039,-21.59966 -0.73927,-2.89344 1.62612,-5.50828 4.59773,-5.72233 z" style="color:#000000;clip-rule:nonzero;display:inline;overflow:visible;opacity:1;isolation:auto;mix-blend-mode:normal;color-interpolation:sRGB;color-interpolation-filters:linearRGB;solid-color:#000000;solid-opacity:1;fill:#ffffff;fill-opacity:1;fill-rule:nonzero;stroke:none;stroke-width:2;stroke-linecap:round;stroke-linejoin:miter;stroke-miterlimit:1;stroke-dasharray:none;stroke-dashoffset:0;stroke-opacity:1;color-rendering:auto;image-rendering:auto;shape-rendering:auto;text-rendering:auto;enable-background:accumulate"></path>
      <path style="color:#000000;clip-rule:nonzero;display:inline;overflow:visible;opacity:1;isolation:auto;mix-blend-mode:normal;color-interpolation:sRGB;color-interpolation-filters:linearRGB;solid-color:#000000;solid-opacity:1;fill:#394655;fill-opacity:1;fill-rule:nonzero;stroke:none;stroke-width:2;stroke-linecap:round;stroke-linejoin:miter;stroke-miterlimit:1;stroke-dasharray:none;stroke-dashoffset:0;stroke-opacity:1;color-rendering:auto;image-rendering:auto;shape-rendering:auto;text-rendering:auto;enable-background:accumulate" d="m 277.17142,514.98659 c 1.44828,16.49799 19.4141,19.39495 40.9282,17.04257 21.51415,-2.35249 37.77237,-9.35003 36.58561,-22.67297 -1.5636,-17.5524 -20.33646,-27.83013 -41.85062,-25.47772 -21.51412,2.35246 -37.48223,10.38737 -35.66319,31.10812 z" id="ellipse7450" inkscape:connector-curvature="0" sodipodi:nodetypes="sssss"></path>
      <path sodipodi:nodetypes="sssss" inkscape:connector-curvature="0" id="path8139" d="m 284.23803,514.11264 c 1.21586,13.84869 16.29655,16.28038 34.35585,14.30569 18.05925,-1.9746 31.70675,-7.84841 30.71061,-19.03193 -1.31259,-14.73381 -17.0709,-23.36104 -35.13012,-21.38637 -18.0593,1.97464 -31.46323,8.71923 -29.93634,26.11261 z" style="color:#000000;clip-rule:nonzero;display:inline;overflow:visible;opacity:1;isolation:auto;mix-blend-mode:normal;color-interpolation:sRGB;color-interpolation-filters:linearRGB;solid-color:#000000;solid-opacity:1;fill:#e1d6b9;fill-opacity:1;fill-rule:nonzero;stroke:none;stroke-width:2;stroke-linecap:round;stroke-linejoin:miter;stroke-miterlimit:1;stroke-dasharray:none;stroke-dashoffset:0;stroke-opacity:1;color-rendering:auto;image-rendering:auto;shape-rendering:auto;text-rendering:auto;enable-background:accumulate"></path>
      <path style="color:#000000;clip-rule:nonzero;display:inline;overflow:visible;opacity:1;isolation:auto;mix-blend-mode:normal;color-interpolation:sRGB;color-interpolation-filters:linearRGB;solid-color:#000000;solid-opacity:1;fill:#394655;fill-opacity:1;fill-rule:nonzero;stroke:none;stroke-width:2;stroke-linecap:round;stroke-linejoin:miter;stroke-miterlimit:1;stroke-dasharray:none;stroke-dashoffset:0;stroke-opacity:1;color-rendering:auto;image-rendering:auto;shape-rendering:auto;text-rendering:auto;enable-background:accumulate" d="m 289.94157,489.58268 a 16.086947,25.05694 83.759816 0 0 26.657,13.26809 16.086947,25.05694 83.759816 0 0 23.15997,-18.71526 16.086947,25.05694 83.759816 0 0 -26.65718,-13.26798 16.086947,25.05694 83.759816 0 0 -23.15979,18.71515 z" id="path7448" inkscape:connector-curvature="0"></path>
    </g>
    <g inkscape:groupmode="layer" id="layer10" inkscape:label="gopher-hands" style="display:inline"></g>
  </g>
  <g inkscape:groupmode="layer" id="layer20" inkscape:label="gopher-eyes" style="display:inline" transform="translate(-96.482404,-151.386)">
    <path style="color:#000000;clip-rule:nonzero;display:inline;overflow:visible;opacity:1;isolation:auto;mix-blend-mode:normal;color-interpolation:sRGB;color-interpolation-filters:linearRGB;solid-color:#000000;solid-opacity:1;fill:#394655;fill-opacity:1;fill-rule:nonzero;stroke:none;stroke-width:2.1915338;stroke-linecap:butt;stroke-linejoin:miter;stroke-miterlimit:1;stroke-dasharray:none;stroke-dashoffset:0;stroke-opacity:1;color-rendering:auto;image-rendering:auto;shape-rendering:auto;text-rendering:auto;enable-background:accumulate" d="m 340.98479,433.82123 c -1.4642,24.10284 8.84348,47.23167 25.8677,64.88699 17.02439,17.65533 40.81984,29.78434 67.30641,31.46538 26.48636,1.68108 50.66973,-7.44592 68.42459,-23.03659 17.75486,-15.59067 28.99853,-37.54148 30.45031,-61.62721 1.45157,-24.08582 -6.80168,-45.76693 -21.42856,-61.64185 -14.62689,-15.87477 -35.94713,-25.93815 -62.47806,-27.51251 -26.53092,-1.57445 -53.18743,5.49137 -73.28768,19.18919 -20.10047,13.69797 -33.39048,34.17368 -34.85471,58.2766 z" id="path7378" inkscape:connector-curvature="0" sodipodi:nodetypes="sssssssss"></path>
    <path style="color:#000000;clip-rule:nonzero;display:inline;overflow:visible;opacity:1;isolation:auto;mix-blend-mode:normal;color-interpolation:sRGB;color-interpolation-filters:linearRGB;solid-color:#000000;solid-opacity:1;fill:#ffffff;fill-opacity:1;fill-rule:nonzero;stroke:none;stroke-width:2.1915338;stroke-linecap:butt;stroke-linejoin:miter;stroke-miterlimit:1;stroke-dasharray:none;stroke-dashoffset:0;stroke-opacity:1;color-rendering:auto;image-rendering:auto;shape-rendering:auto;text-rendering:auto;enable-background:accumulate" d="m 347.25144,432.12949 c -1.65188,22.8135 7.81139,44.77776 23.69525,61.5682 15.88396,16.79048 38.22176,28.36618 63.13888,30.11591 24.91675,1.74979 47.71285,-6.69358 64.53945,-21.30521 16.82639,-14.6115 27.62478,-35.30335 29.26528,-58.10188 1.64067,-22.79848 -5.88877,-43.39158 -19.56886,-58.53235 -13.6802,-15.14078 -33.78628,-24.84373 -58.74054,-26.501 -24.95422,-1.6572 -49.98337,4.92757 -68.9686,17.79129 -18.98547,12.86374 -31.70873,32.15152 -33.36086,54.96504 z" id="circle7388" inkscape:connector-curvature="0" sodipodi:nodetypes="sssssssss"></path>
    <path style="color:#000000;clip-rule:nonzero;display:inline;overflow:visible;opacity:1;isolation:auto;mix-blend-mode:normal;color-interpolation:sRGB;color-interpolation-filters:linearRGB;solid-color:#000000;solid-opacity:1;fill:#394655;fill-opacity:1;fill-rule:nonzero;stroke:none;stroke-width:2;stroke-linecap:butt;stroke-linejoin:miter;stroke-miterlimit:1;stroke-dasharray:none;stroke-dashoffset:0;stroke-opacity:1;color-rendering:auto;image-rendering:auto;shape-rendering:auto;text-rendering:auto;enable-background:accumulate" d="m 117.2229,451.22769 c -0.31064,22.54768 9.4345,42.42019 25.24602,56.91167 15.81132,14.49141 37.6958,23.6152 61.92378,24.28156 24.22758,0.66625 46.22369,-7.26249 62.18647,-20.90451 15.96306,-13.64204 25.86144,-32.99173 26.15948,-55.52592 0.29801,-22.53411 -8.95078,-44.16967 -24.18744,-60.67539 -15.23658,-16.50575 -36.56524,-27.68836 -60.83669,-28.3439 -24.27164,-0.65557 -46.83831,9.32657 -63.324,24.96022 -16.48522,15.63371 -26.8568,36.74843 -27.16762,59.29627 z" id="ellipse7392" inkscape:connector-curvature="0" sodipodi:nodetypes="sssssssss"></path>
    <path style="color:#000000;clip-rule:nonzero;display:inline;overflow:visible;opacity:1;isolation:auto;mix-blend-mode:normal;color-interpolation:sRGB;color-interpolation-filters:linearRGB;solid-color:#000000;solid-opacity:1;fill:#ffffff;fill-opacity:1;fill-rule:nonzero;stroke:none;stroke-width:2;stroke-linecap:butt;stroke-linejoin:miter;stroke-miterlimit:1;stroke-dasharray:none;stroke-dashoffset:0;stroke-opacity:1;color-rendering:auto;image-rendering:auto;shape-rendering:auto;text-rendering:auto;enable-background:accumulate" d="m 122.86,447.25036 c -0.35735,21.1943 8.66317,39.91381 23.36207,53.58314 14.69941,13.66935 35.0805,22.30711 57.65725,23.00416 22.57687,0.69696 43.0844,-6.68793 57.99151,-19.46343 14.90736,-12.77554 24.19188,-30.9448 24.54566,-52.13116 0.35407,-21.18638 -8.20086,-41.52924 -22.37824,-57.01944 -14.1776,-15.49027 -34.06501,-25.96064 -56.68359,-26.64527 -22.6184,-0.68469 -43.64271,8.53386 -59.03005,23.11138 -15.38712,14.57754 -25.10712,34.36628 -25.46461,55.56062 z" id="ellipse7394" inkscape:connector-curvature="0" sodipodi:nodetypes="sssssssss"></path>
    <g id="g8223" transform="matrix(-1.9881831,0.21739677,0.21739677,1.9881831,2820.5749,88.139821)">
      <circle style="color:#000000;clip-rule:nonzero;display:inline;overflow:visible;opacity:1;isolation:auto;mix-blend-mode:normal;color-interpolation:sRGB;color-interpolation-filters:linearRGB;solid-color:#000000;solid-opacity:1;fill:#394655;fill-opacity:1;fill-rule:nonzero;stroke:none;stroke-width:2;stroke-linecap:butt;stroke-linejoin:miter;stroke-miterlimit:1;stroke-dasharray:none;stroke-dashoffset:0;stroke-opacity:1;color-rendering:auto;image-rendering:auto;shape-rendering:auto;text-rendering:auto;enable-background:accumulate" id="circle7404" cx="1334.4209" cy="32.280098" r="11.625"></circle>
      <circle r="8.125" cy="27.55175" cx="1340.2136" id="circle7406" style="color:#000000;clip-rule:nonzero;display:inline;overflow:visible;opacity:1;isolation:auto;mix-blend-mode:normal;color-interpolation:sRGB;color-interpolation-filters:linearRGB;solid-color:#000000;solid-opacity:1;fill:#ffffff;fill-opacity:1;fill-rule:nonzero;stroke:none;stroke-width:2;stroke-linecap:butt;stroke-linejoin:miter;stroke-miterlimit:1;stroke-dasharray:none;stroke-dashoffset:0;stroke-opacity:1;color-rendering:auto;image-rendering:auto;shape-rendering:auto;text-rendering:auto;enable-background:accumulate"></circle>
    </g>
    <g id="g8227" transform="matrix(-2.1785853,0.23821619,0.23821619,2.1785853,3020.8276,32.944826)">
      <circle r="11.625" cy="49.712078" cx="1183.7255" id="path7402" style="color:#000000;clip-rule:nonzero;display:inline;overflow:visible;opacity:1;isolation:auto;mix-blend-mode:normal;color-interpolation:sRGB;color-interpolation-filters:linearRGB;solid-color:#000000;solid-opacity:1;fill:#394655;fill-opacity:1;fill-rule:nonzero;stroke:none;stroke-width:2;stroke-linecap:butt;stroke-linejoin:miter;stroke-miterlimit:1;stroke-dasharray:none;stroke-dashoffset:0;stroke-opacity:1;color-rendering:auto;image-rendering:auto;shape-rendering:auto;text-rendering:auto;enable-background:accumulate"></circle>
      <circle style="color:#000000;clip-rule:nonzero;display:inline;overflow:visible;opacity:1;isolation:auto;mix-blend-mode:normal;color-interpolation:sRGB;color-interpolation-filters:linearRGB;solid-color:#000000;solid-opacity:1;fill:#ffffff;fill-opacity:1;fill-rule:nonzero;stroke:none;stroke-width:2;stroke-linecap:butt;stroke-linejoin:miter;stroke-miterlimit:1;stroke-dasharray:none;stroke-dashoffset:0;stroke-opacity:1;color-rendering:auto;image-rendering:auto;shape-rendering:auto;text-rendering:auto;enable-background:accumulate" id="circle7408" cx="1190.7738" cy="44.445545" r="8.125"></circle>
    </g>
  </g>
  <g inkscape:groupmode="layer" id="layer11" inkscape:label="gopher-eyes 1" transform="translate(-61.024196,-64.884515)">
    <g transform="translate(-33.168352,-84.19435)" style="display:inline;enable-background:new" id="g4943">
      <path inkscape:connector-curvature="0" id="path4776" d="m 372.56628,167.25174 c -22.76299,21.85746 -46.07111,44.47052 -60.82452,72.81648 -19.21986,-21.93476 -39.37447,-43.54376 -62.36074,-61.46756 -6.12693,-0.98906 -6.68115,7.02323 -5.62231,11.26163 -0.17031,19.2129 -0.40049,38.54181 -0.50321,57.80285 -21.34248,-6.46738 -42.42208,-13.8165 -63.97614,-19.57474 -5.67928,0.66188 -3.63617,7.76743 -0.32314,10.13098 21.94028,29.14471 41.03913,60.74223 56.30147,94.00346 16.07236,12.04074 37.32835,13.00437 56.61012,15.00946 40.22544,2.0911 83.2062,-1.99182 117.69744,-24.57969 4.94414,-3.38257 10.3677,-7.57442 9.90786,-14.22605 6.80114,-41.7746 26.58087,-79.99916 46.11048,-117.12965 3.05733,-5.55822 -5.28899,-6.93997 -8.28788,-3.61334 -13.30221,11.20654 -28.10781,20.57915 -41.86504,31.2862 -11.10514,8.16961 -22.23188,16.31073 -33.44658,24.32964 -3.50105,-22.43645 -2.86145,-45.39782 -3.21141,-68.09235 0.68091,-3.6689 -1.31433,-10.19473 -6.20638,-7.95733 z" style="opacity:1;fill:#ebec00;fill-opacity:1;stroke:none;stroke-width:4.6875;stroke-linecap:round;stroke-linejoin:round;stroke-miterlimit:4;stroke-dasharray:none;stroke-opacity:1"></path>
      <path sodipodi:nodetypes="cccccccscc" inkscape:connector-curvature="0" id="path4751" d="m 414.72454,313.32086 c -45.10072,41.2757 -154.90722,34.18768 -176.40618,16.50191 -22.39576,-51.34749 -59.16627,-98.01714 -59.16627,-98.01714 l 68.06159,21.26245 0.54391,-71.04099 c 21.90548,18.07625 43.51498,40.03954 64.87952,65.21988 16.0066,-33.28733 39.53446,-54.09254 61.99454,-76.6698 0,0 8.7e-4,82.29734 5.79986,78.69824 5.79902,-3.59911 82.04574,-60.05251 82.04574,-60.05251 0,0 -42.30664,72.06668 -47.75271,124.09796 z" style="opacity:1;fill:#feff00;fill-opacity:1;stroke:none;stroke-width:4.6875;stroke-linecap:round;stroke-linejoin:round;stroke-miterlimit:4;stroke-dasharray:none;stroke-opacity:1"></path>
      <path inkscape:connector-curvature="0" id="path4757" d="m 372.94147,172.25754 c -12.80985,12.80394 -25.87849,25.17671 -37.6578,39.69092 0.34941,33.9161 0.0997,74.61597 -2.57798,93.39605 -1.72789,12.11849 -3.65239,25.27533 -5.49832,37.82833 5.43313,-0.37803 10.89058,-0.91454 16.31576,-1.66042 5.60931,-28.27534 22.49143,-113.15368 24.84038,-122.18228 1.74371,-6.70222 3.97514,-29.92128 4.57796,-47.0726 z" style="opacity:1;fill:#feff76;fill-opacity:1;stroke:none;stroke-width:4.6875;stroke-linecap:round;stroke-linejoin:round;stroke-miterlimit:4;stroke-dasharray:none;stroke-opacity:1"></path>
      <path inkscape:connector-curvature="0" id="path4768" d="m 462.47647,189.22234 c 0,0 -14.34978,10.61478 -30.49089,22.51347 -15.78793,38.99411 -33.50401,88.61205 -42.34422,117.43817 9.53615,-4.21566 18.08823,-9.45266 25.08263,-15.85385 5.44606,-52.03129 47.75248,-124.09779 47.75248,-124.09779 z m -283.32398,42.58327 c 0,0 36.77021,46.6699 59.16596,98.01738 6.5736,5.40767 21.42458,9.81382 40.13612,12.16031 -9.76894,-24.28364 -21.84439,-57.79967 -32.46511,-89.29856 z" style="opacity:1;fill:#e1e107;fill-opacity:1;stroke:none;stroke-width:4.6875;stroke-linecap:round;stroke-linejoin:round;stroke-miterlimit:4;stroke-dasharray:none;stroke-opacity:1"></path>
    </g>
  </g>
  <g inkscape:groupmode="layer" id="layer6" inkscape:label="gopher-eye-shadow" style="display:inline;opacity:0.07000002;" transform="translate(-61.024196,-64.884515)">
    <path style="display:inline;opacity:1;fill:#010101;fill-opacity:1;stroke:none;stroke-width:5;stroke-linecap:round;stroke-linejoin:round;stroke-miterlimit:4;stroke-dasharray:none;stroke-opacity:1;enable-background:new" d="m 181.375,299.27734 c -1.38338,-0.0262 -2.76716,-0.0125 -4.15039,0.0156 -41.21994,1.28044 -78.966891,34.68934 -84.927735,75.55859 -1.102687,9.84458 -0.860747,19.99694 1.433594,29.66016 7.440841,29.58436 33.082221,52.37141 62.072261,60.14258 15.16814,4.23161 31.36509,4.54573 46.79493,1.59765 13.35248,-2.50518 26.11274,-8.37948 36.83007,-16.78906 C 182.30191,467.23445 121.87774,435.97246 117,398.09961 c -8.24346,-64.00585 56.72946,-94.54347 96.4668,-92.37109 -10.11499,-4.26373 -21.01402,-6.58832 -32.0918,-6.45118 z" transform="scale(0.93749999)" id="path4798" inkscape:connector-curvature="0" sodipodi:nodetypes="cccccccscc"></path>
    <path style="display:inline;opacity:1;fill:#030608;fill-opacity:1;stroke:none;stroke-width:5.01105738;stroke-linecap:round;stroke-linejoin:round;stroke-miterlimit:4;stroke-dasharray:none;stroke-opacity:1;enable-background:new" d="m 404.35042,271.08989 c -24.13211,0.0524 -48.48669,8.16322 -67.17557,23.56958 -16.25678,13.26211 -27.20584,33.46211 -27.22022,54.66359 -0.64706,26.74074 13.86012,52.1439 34.56456,68.38136 14.83255,11.64265 32.95912,19.52685 51.81354,21.15214 11.70544,0.0235 23.71826,0.54348 34.93255,-3.44314 15.93704,-4.73099 30.43681,-14.08432 41.43714,-26.50184 -62.44484,30.84393 -132.13314,-11.99804 -137.62008,-54.60095 -7.68471,-59.66749 44.08495,-84.5949 82.60807,-82.84883 -2.67171,-0.22783 -5.34752,-0.34928 -8.0177,-0.34647 -1.77355,-0.0367 -3.54847,-0.0376 -5.32229,-0.0254 z m 34.88362,4.80357 c 3.43971,1.42844 6.51542,3.17899 9.0982,5.25573 h 3.39812 c -4.01373,-2.07029 -8.19866,-3.8221 -12.49632,-5.25573 z" id="path4800" inkscape:connector-curvature="0"></path>
    <path style="opacity:1;fill:#000000;fill-opacity:1;stroke:none;stroke-width:5;stroke-linecap:round;stroke-miterlimit:4;stroke-dasharray:none;stroke-opacity:1" d="M 211.69141 364.69336 C 203.86683 369.02306 199.31593 376.00082 200.27344 386.9082 C 201.57035 401.68014 217.65472 404.2743 236.91797 402.16797 C 244.63289 401.32442 251.56812 399.79985 257.07227 397.52539 C 232.93708 396.29136 202.60469 388.91383 211.69141 364.69336 z " transform="matrix(0.93750001,0,0,0.93750001,61.024196,64.884515)" id="path5433"></path>
    <path style="display:inline;opacity:1;fill:#000000;fill-opacity:1;stroke:none;stroke-width:5;stroke-linecap:round;stroke-miterlimit:4;stroke-dasharray:none;stroke-opacity:1;enable-background:new" d="m 250.72852,402.24414 c -9.83179,0.53024 -22.39119,1.25068 -31.73438,1.96484 1.67105,6.46792 3.33873,12.93824 2.875,21.34375 -0.17543,3.18072 3.36269,5.38255 6.53906,5.2793 5.89532,-0.18973 11.57758,1.17653 17.78125,-1.28125 1.39444,-0.55244 2.4153,-1.20987 3.17969,-2.0918 -7.31093,1.55342 -16.06922,2.43882 -21.25,-0.99804 -3.67983,-2.44115 -3.98114,-12.52654 -0.70117,-15.56836 3.1412,-2.91315 12.40862,-2.52112 23.66992,-5.01953 -0.13496,-1.19974 -0.25429,-2.4086 -0.35937,-3.62891 z" transform="matrix(0.93750001,0,0,0.93750001,61.024196,64.884515)" id="path5444" inkscape:connector-curvature="0"></path>
    <path style="opacity:1;fill:#000000;fill-opacity:1;stroke:none;stroke-width:0.88388348;stroke-linecap:round;stroke-miterlimit:4;stroke-dasharray:none;stroke-opacity:1" d="M 66.693359 184.01758 C 63.600848 188.35553 61.690676 193.65556 61.835938 199.01758 C 61.753468 204.21884 63.576003 209.2528 65.839844 213.86328 C 67.402382 217.16479 70.221092 219.81834 73.677734 221.04102 C 79.587511 223.28332 86.010231 222.09316 92.146484 221.93164 C 98.486467 221.82174 104.86909 221.55106 111.18555 222.2168 C 114.58699 222.55537 118.13657 223.16779 120.87891 225.36328 C 121.95296 226.72122 123.76465 225.82945 124.96289 225.1582 C 126.94622 224.02213 128.88664 222.79862 130.76367 221.48242 C 121.50103 219.12373 108.12589 216.43114 93.337891 215.76758 C 70.504411 214.743 66.348583 203.87234 66.693359 184.01758 z " transform="matrix(0.93750001,0,0,0.93750001,61.024196,64.884515)" id="path5468"></path>
  </g>
  <g inkscape:groupmode="layer" id="layer2" inkscape:label="palette" sodipodi:insensitive="true" style="display:none" transform="translate(-96.482404,-151.386)">
    <rect style="color:#000000;clip-rule:nonzero;display:inline;overflow:visible;opacity:1;isolation:auto;mix-blend-mode:normal;color-interpolation:sRGB;color-interpolation-filters:linearRGB;solid-color:#000000;solid-opacity:1;fill:#554539;fill-opacity:1;fill-rule:nonzero;stroke:#000000;stroke-width:9.21052647;stroke-linecap:butt;stroke-linejoin:miter;stroke-miterlimit:4;stroke-dasharray:none;stroke-dashoffset:0;stroke-opacity:1;color-rendering:auto;image-rendering:auto;shape-rendering:auto;text-rendering:auto;enable-background:accumulate" id="rect4162" width="40.789474" height="40.789474" x="774.60529" y="11.967467"></rect>
    <rect y="11.967467" x="819.60529" height="40.789474" width="40.789474" id="rect4170" style="color:#000000;clip-rule:nonzero;display:inline;overflow:visible;opacity:1;isolation:auto;mix-blend-mode:normal;color-interpolation:sRGB;color-interpolation-filters:linearRGB;solid-color:#000000;solid-opacity:1;fill:#ffffff;fill-opacity:1;fill-rule:nonzero;stroke:#000000;stroke-width:9.21052742;stroke-linecap:butt;stroke-linejoin:miter;stroke-miterlimit:4;stroke-dasharray:none;stroke-dashoffset:0;stroke-opacity:1;color-rendering:auto;image-rendering:auto;shape-rendering:auto;text-rendering:auto;enable-background:accumulate"></rect>
    <rect style="color:#000000;clip-rule:nonzero;display:inline;overflow:visible;opacity:1;isolation:auto;mix-blend-mode:normal;color-interpolation:sRGB;color-interpolation-filters:linearRGB;solid-color:#000000;solid-opacity:1;fill:#bce8ff;fill-opacity:1;fill-rule:nonzero;stroke:#000000;stroke-width:9.21052647;stroke-linecap:butt;stroke-linejoin:miter;stroke-miterlimit:4;stroke-dasharray:none;stroke-dashoffset:0;stroke-opacity:1;color-rendering:auto;image-rendering:auto;shape-rendering:auto;text-rendering:auto;enable-background:accumulate" id="rect4208" width="40.789474" height="40.789474" x="774.60529" y="76.967461"></rect>
    <rect y="-117.75694" x="819.60529" height="40.789474" width="40.789474" id="rect4223" style="color:#000000;clip-rule:nonzero;display:inline;overflow:visible;opacity:1;isolation:auto;mix-blend-mode:normal;color-interpolation:sRGB;color-interpolation-filters:linearRGB;solid-color:#000000;solid-opacity:1;fill:#abccd9;fill-opacity:1;fill-rule:nonzero;stroke:#000000;stroke-width:9.21052647;stroke-linecap:butt;stroke-linejoin:miter;stroke-miterlimit:4;stroke-dasharray:none;stroke-dashoffset:0;stroke-opacity:1;color-rendering:auto;image-rendering:auto;shape-rendering:auto;text-rendering:auto;enable-background:accumulate" transform="scale(1,-1)"></rect>
    <rect style="color:#000000;clip-rule:nonzero;display:inline;overflow:visible;opacity:1;isolation:auto;mix-blend-mode:normal;color-interpolation:sRGB;color-interpolation-filters:linearRGB;solid-color:#000000;solid-opacity:1;fill:#c3b0cb;fill-opacity:1;fill-rule:nonzero;stroke:#000000;stroke-width:9.21052647;stroke-linecap:butt;stroke-linejoin:miter;stroke-miterlimit:4;stroke-dasharray:none;stroke-dashoffset:0;stroke-opacity:1;color-rendering:auto;image-rendering:auto;shape-rendering:auto;text-rendering:auto;enable-background:accumulate" id="rect4227" width="40.789474" height="40.789474" x="774.60529" y="121.96745"></rect>
    <rect y="121.96745" x="819.60529" height="40.789474" width="40.789474" id="rect4231" style="color:#000000;clip-rule:nonzero;display:inline;overflow:visible;opacity:1;isolation:auto;mix-blend-mode:normal;color-interpolation:sRGB;color-interpolation-filters:linearRGB;solid-color:#000000;solid-opacity:1;fill:#e1d0cb;fill-opacity:1;fill-rule:nonzero;stroke:#000000;stroke-width:9.21052647;stroke-linecap:butt;stroke-linejoin:miter;stroke-miterlimit:4;stroke-dasharray:none;stroke-dashoffset:0;stroke-opacity:1;color-rendering:auto;image-rendering:auto;shape-rendering:auto;text-rendering:auto;enable-background:accumulate"></rect>
    <rect style="color:#000000;clip-rule:nonzero;display:inline;overflow:visible;opacity:1;isolation:auto;mix-blend-mode:normal;color-interpolation:sRGB;color-interpolation-filters:linearRGB;solid-color:#000000;solid-opacity:1;fill:#f5c3d2;fill-opacity:1;fill-rule:nonzero;stroke:#000000;stroke-width:9.21052647;stroke-linecap:butt;stroke-linejoin:miter;stroke-miterlimit:4;stroke-dasharray:none;stroke-dashoffset:0;stroke-opacity:1;color-rendering:auto;image-rendering:auto;shape-rendering:auto;text-rendering:auto;enable-background:accumulate" id="rect4233" width="40.789474" height="40.789474" x="864.60535" y="121.96745"></rect>
    <rect y="166.96747" x="774.60529" height="40.789474" width="40.789474" id="rect4248" style="color:#000000;clip-rule:nonzero;display:inline;overflow:visible;opacity:1;isolation:auto;mix-blend-mode:normal;color-interpolation:sRGB;color-interpolation-filters:linearRGB;solid-color:#000000;solid-opacity:1;fill:#cec4ad;fill-opacity:1;fill-rule:nonzero;stroke:#000000;stroke-width:9.21052647;stroke-linecap:butt;stroke-linejoin:miter;stroke-miterlimit:4;stroke-dasharray:none;stroke-dashoffset:0;stroke-opacity:1;color-rendering:auto;image-rendering:auto;shape-rendering:auto;text-rendering:auto;enable-background:accumulate"></rect>
    <rect transform="scale(1,-1)" style="color:#000000;clip-rule:nonzero;display:inline;overflow:visible;opacity:1;isolation:auto;mix-blend-mode:normal;color-interpolation:sRGB;color-interpolation-filters:linearRGB;solid-color:#000000;solid-opacity:1;fill:#96d6ff;fill-opacity:1;fill-rule:nonzero;stroke:#000000;stroke-width:9.21052647;stroke-linecap:butt;stroke-linejoin:miter;stroke-miterlimit:4;stroke-dasharray:none;stroke-dashoffset:0;stroke-opacity:1;color-rendering:auto;image-rendering:auto;shape-rendering:auto;text-rendering:auto;enable-background:accumulate" id="rect4263" width="40.789474" height="40.789474" x="864.60535" y="-117.75694"></rect>
    <rect style="color:#000000;clip-rule:nonzero;display:inline;overflow:visible;opacity:1;isolation:auto;mix-blend-mode:normal;color-interpolation:sRGB;color-interpolation-filters:linearRGB;solid-color:#000000;solid-opacity:1;fill:#f2f2ce;fill-opacity:1;fill-rule:nonzero;stroke:#000000;stroke-width:9.21052647;stroke-linecap:butt;stroke-linejoin:miter;stroke-miterlimit:4;stroke-dasharray:none;stroke-dashoffset:0;stroke-opacity:1;color-rendering:auto;image-rendering:auto;shape-rendering:auto;text-rendering:auto;enable-background:accumulate" id="rect4267" width="40.789474" height="40.789474" x="819.60529" y="166.96747"></rect>
  </g>
</svg>
