<?xml version="1.0" encoding="UTF-8" standalone="no"?>
<!-- Created with Inkscape (http://www.inkscape.org/) -->

<svg
   xmlns:dc="http://purl.org/dc/elements/1.1/"
   xmlns:cc="http://creativecommons.org/ns#"
   xmlns:rdf="http://www.w3.org/1999/02/22-rdf-syntax-ns#"
   xmlns:svg="http://www.w3.org/2000/svg"
   xmlns="http://www.w3.org/2000/svg"
   xmlns:sodipodi="http://sodipodi.sourceforge.net/DTD/sodipodi-0.dtd"
   xmlns:inkscape="http://www.inkscape.org/namespaces/inkscape"
   width="771.09613"
   height="789.70612"
   viewBox="0 0 204.01918 208.94306"
   version="1.1"
   id="svg4627"
   inkscape:version="0.92.1 r15371"
   sodipodi:docname="batgopher.svg">
  <defs
     id="defs4621" />
  <sodipodi:namedview
     id="base"
     pagecolor="#ffffff"
     bordercolor="#666666"
     borderopacity="1.0"
     inkscape:pageopacity="0.0"
     inkscape:pageshadow="2"
     inkscape:zoom="0.35"
     inkscape:cx="418.11068"
     inkscape:cy="975.53648"
     inkscape:document-units="mm"
     inkscape:current-layer="layer1"
     showgrid="false"
     showguides="true"
     inkscape:guide-bbox="true"
     inkscape:snap-global="true"
     inkscape:snap-center="true"
     inkscape:window-width="1920"
     inkscape:window-height="1017"
     inkscape:window-x="1912"
     inkscape:window-y="-8"
     inkscape:window-maximized="1"
     fit-margin-top="30"
     units="px"
     fit-margin-left="30"
     fit-margin-bottom="30"
     fit-margin-right="30" />
  <metadata
     id="metadata4624">
    <rdf:RDF>
      <cc:Work
         rdf:about="">
        <dc:format>image/svg+xml</dc:format>
        <dc:type
           rdf:resource="http://purl.org/dc/dcmitype/StillImage" />
        <dc:title></dc:title>
      </cc:Work>
    </rdf:RDF>
  </metadata>
  <g
     inkscape:label="Layer 1"
     inkscape:groupmode="layer"
     id="layer1"
     transform="translate(-18.665306,-43.122186)">
    <path
       style="color:#000000;clip-rule:nonzero;display:inline;overflow:visible;visibility:visible;opacity:1;isolation:auto;mix-blend-mode:normal;color-interpolation:sRGB;color-interpolation-filters:linearRGB;solid-color:#000000;solid-opacity:1;fill:#525f98;fill-opacity:1;fill-rule:nonzero;stroke:none;stroke-width:5.64444399;stroke-linecap:round;stroke-linejoin:round;stroke-miterlimit:4;stroke-dasharray:none;stroke-dashoffset:0;stroke-opacity:1;color-rendering:auto;image-rendering:auto;shape-rendering:auto;text-rendering:auto;enable-background:accumulate"
       d="m -295.12444,45.620471 c 11.40519,1.497018 23.64883,9.132567 20.26233,18.742525 11.67342,0 22.99077,0.862134 26.62783,7.701338 l 0.95963,7.184575 9.79372,3.719669 V 51.257853 l -6.97219,1.159618 -2.93108,-1.917194 -1.80144,0.821137 -1.06712,1.503786 1.24437,2.537827 -0.20723,1.442808 c -8.77449,-1.956994 -12.40389,-6.585334 -12.40389,-11.185364 z"
       id="path5184"
       inkscape:connector-curvature="0" />
    <path
       style="color:#000000;clip-rule:nonzero;display:inline;overflow:visible;visibility:visible;opacity:1;isolation:auto;mix-blend-mode:normal;color-interpolation:sRGB;color-interpolation-filters:linearRGB;solid-color:#000000;solid-opacity:1;fill:#525f98;fill-opacity:1;fill-rule:nonzero;stroke:none;stroke-width:5.64444399;stroke-linecap:round;stroke-linejoin:round;stroke-miterlimit:4;stroke-dasharray:none;stroke-dashoffset:0;stroke-opacity:1;color-rendering:auto;image-rendering:auto;shape-rendering:auto;text-rendering:auto;enable-background:accumulate"
       d="m -256.32784,93.695572 -32.08745,0.472323 c 8.57037,2.158479 16.84533,8.282045 15.06523,18.647955 11.57484,0 21.64811,-0.66197 25.16229,3.02772 l 0.94154,7.0497 9.7653,3.70882 V 94.983865 l -6.95203,1.156518 -2.92282,-1.912028 -1.79576,0.819074 -1.06401,1.499131 1.24075,2.530594 -0.48421,3.372406 c -4.03519,-2.07575 -6.75836,-5.769113 -6.86883,-8.753988 z"
       id="path5257"
       inkscape:connector-curvature="0" />
    <path
       style="color:#000000;clip-rule:nonzero;display:inline;overflow:visible;visibility:visible;opacity:1;isolation:auto;mix-blend-mode:normal;color-interpolation:sRGB;color-interpolation-filters:linearRGB;solid-color:#000000;solid-opacity:1;fill:#525f98;fill-opacity:1;fill-rule:nonzero;stroke:none;stroke-width:5.64444399;stroke-linecap:round;stroke-linejoin:round;stroke-miterlimit:4;stroke-dasharray:none;stroke-dashoffset:0;stroke-opacity:1;color-rendering:auto;image-rendering:auto;shape-rendering:auto;text-rendering:auto;enable-background:accumulate"
       d="m -258.30602,139.05663 c -33.41299,8.78246 -21.04687,32.07162 -6.19652,33.54524 -5.27273,-6.34655 -0.13247,-13.08913 9.06456,-5.40071 1.43719,-4.86644 6.48764,-5.6853 8.16333,2.02934 l 9.79372,3.71966 v -31.7102 l -6.97219,1.1591 -2.93108,-1.9172 -1.80144,0.82114 -1.06712,1.50379 1.24437,2.53782 c -2.36799,12.94208 -16.25019,1.43157 -9.29763,-6.28798 z"
       id="path5265"
       inkscape:connector-curvature="0" />
    <path
       style="color:#000000;clip-rule:nonzero;display:inline;overflow:visible;visibility:visible;opacity:1;isolation:auto;mix-blend-mode:normal;color-interpolation:sRGB;color-interpolation-filters:linearRGB;solid-color:#000000;solid-opacity:1;fill:#525f98;fill-opacity:1;fill-rule:nonzero;stroke:none;stroke-width:5.64444399;stroke-linecap:round;stroke-linejoin:round;stroke-miterlimit:4;stroke-dasharray:none;stroke-dashoffset:0;stroke-opacity:1;color-rendering:auto;image-rendering:auto;shape-rendering:auto;text-rendering:auto;enable-background:accumulate"
       d="m -261.28516,183.25031 c -14.70868,2.66315 -21.69724,10.39983 -23.94996,21.24832 9.06658,-6.18698 20.64184,-1.15746 20.79666,6.98252 3.37327,-5.30799 12.28361,-7.42917 16.04967,-3.07992 l 1.11414,8.34419 9.79372,3.71967 v -31.71072 l -6.97219,1.15962 -2.93108,-1.9172 -1.80144,0.82114 -1.06712,1.50378 1.24437,2.53783 -0.50488,3.51658 c -12.93817,-0.54959 -18.23343,-8.48349 -11.77189,-13.12581 z"
       id="path5271"
       inkscape:connector-curvature="0" />
    <path
       style="color:#000000;clip-rule:nonzero;display:inline;overflow:visible;visibility:visible;opacity:1;isolation:auto;mix-blend-mode:normal;color-interpolation:sRGB;color-interpolation-filters:linearRGB;solid-color:#000000;solid-opacity:1;fill:#525f98;fill-opacity:1;fill-rule:nonzero;stroke:none;stroke-width:5.64444399;stroke-linecap:round;stroke-linejoin:round;stroke-miterlimit:4;stroke-dasharray:none;stroke-dashoffset:0;stroke-opacity:1;color-rendering:auto;image-rendering:auto;shape-rendering:auto;text-rendering:auto;enable-background:accumulate"
       d="m -264.7294,230.59471 c -14.16845,2.64721 -20.90062,11.98824 -24.66981,23.90706 6.53875,-9.1808 16.987,-10.85277 18.60868,-1.57354 13.39068,-6.85082 21.60396,-1.13962 23.51588,8.18141 l 9.79372,3.72018 V 233.1191 l -6.97219,1.15962 -2.93108,-1.91719 -1.80144,0.82113 -1.06712,1.50379 1.24437,2.53783 -0.21756,1.51515 c -4.14581,-0.65354 -8.19572,-1.20198 -13.48703,-3.11557 -1.15303,-1.81377 -1.74375,-3.46691 -2.01642,-5.02915 z"
       id="path5277"
       inkscape:connector-curvature="0" />
    <path
       style="color:#000000;clip-rule:nonzero;display:inline;overflow:visible;visibility:visible;opacity:1;isolation:auto;mix-blend-mode:normal;color-interpolation:sRGB;color-interpolation-filters:linearRGB;solid-color:#000000;solid-opacity:1;fill:#525f98;fill-opacity:1;fill-rule:nonzero;stroke:none;stroke-width:5.64444399;stroke-linecap:round;stroke-linejoin:round;stroke-miterlimit:4;stroke-dasharray:none;stroke-dashoffset:0;stroke-opacity:1;color-rendering:auto;image-rendering:auto;shape-rendering:auto;text-rendering:auto;enable-background:accumulate"
       d="m -180.21879,43.735831 c -5.92482,0.0078 -11.40032,0.739807 -16.63155,1.88464 11.40519,1.497018 23.64832,9.132567 20.26182,18.742525 11.3573,0 22.90479,0.517924 26.31518,7.159252 0.86964,1.693502 0.66905,3.597428 1.2728,5.080828 0.54638,1.342427 4.7812,3.719668 9.7932,3.719668 V 51.257853 c -4.63022,0 -6.97219,1.159618 -6.97219,1.159618 0,0 -1.7669,-1.828874 -2.93109,-1.917194 -0.6579,-0.04991 -1.58793,0.211674 -2.09651,0.632002 -0.4738,0.391586 -0.72198,1.080243 -0.77153,1.692921 -0.0759,0.939135 1.24437,2.537827 1.24437,2.537827 -0.0995,0.453663 -0.18116,0.937382 -0.2558,1.432473 -8.74001,-1.963108 -12.35532,-6.583323 -12.35532,-11.175029 -6.06802,-1.334413 -11.64561,-1.891488 -16.87338,-1.88464 z"
       id="path5283"
       inkscape:connector-curvature="0"
       sodipodi:nodetypes="sccsccccscccccs" />
    <path
       style="color:#000000;clip-rule:nonzero;display:inline;overflow:visible;visibility:visible;opacity:1;isolation:auto;mix-blend-mode:normal;color-interpolation:sRGB;color-interpolation-filters:linearRGB;solid-color:#000000;solid-opacity:1;fill:#525f98;fill-opacity:1;fill-rule:nonzero;stroke:none;stroke-width:5.64444399;stroke-linecap:round;stroke-linejoin:round;stroke-miterlimit:4;stroke-dasharray:none;stroke-dashoffset:0;stroke-opacity:1;color-rendering:auto;image-rendering:auto;shape-rendering:auto;text-rendering:auto;enable-background:accumulate"
       d="m -171.53044,92.950397 c -6.86657,-0.0077 -12.83856,0.562885 -18.61126,1.217498 8.57037,2.158479 16.84534,8.282045 15.06523,18.647955 6.30212,-3.66228 18.84011,-5.64507 23.86981,3.45796 4.2118,7.62275 8.80027,8.52425 11.99932,8.52425 V 94.983865 c -4.15842,0 -6.95152,1.156518 -6.95152,1.156518 0,0 -1.76201,-1.823964 -2.92282,-1.912028 -0.65598,-0.04977 -1.61938,0.140036 -2.12648,0.559139 -0.47243,0.390446 -0.68389,1.148172 -0.73329,1.759066 -0.0757,0.936403 1.24023,2.530594 1.24023,2.530594 0,0 -0.35963,1.696356 -0.58136,3.320726 -3.98106,-2.08486 -6.66159,-5.741719 -6.77116,-8.702308 -4.9145,-0.527561 -9.35675,-0.740564 -13.4767,-0.745175 z"
       id="path5289"
       inkscape:connector-curvature="0"
       sodipodi:nodetypes="sccscccccccccs" />
    <path
       style="color:#000000;clip-rule:nonzero;display:inline;overflow:visible;visibility:visible;opacity:1;isolation:auto;mix-blend-mode:normal;color-interpolation:sRGB;color-interpolation-filters:linearRGB;solid-color:#000000;solid-opacity:1;fill:#525f98;fill-opacity:1;fill-rule:nonzero;stroke:none;stroke-width:5.64444399;stroke-linecap:round;stroke-linejoin:round;stroke-miterlimit:4;stroke-dasharray:none;stroke-dashoffset:0;stroke-opacity:1;color-rendering:auto;image-rendering:auto;shape-rendering:auto;text-rendering:auto;enable-background:accumulate"
       d="m -160.03243,139.05663 c -33.413,8.78246 -21.04635,32.07162 -6.196,33.54524 -5.27273,-6.34655 -0.13248,-13.08913 9.06456,-5.40071 1.26816,-4.29413 4.06982,-4.38356 7.23263,0.2589 0.44719,0.65639 0.75828,1.39899 1.26453,2.0376 2.16926,2.73649 4.61223,3.4525 9.45937,3.4525 v -31.7102 c -4.35135,0 -6.97219,1.1591 -6.97219,1.1591 0,0 -1.7669,-1.82888 -2.93109,-1.9172 -0.6579,-0.0499 -1.47631,0.16724 -1.98489,0.58756 -0.4738,0.39159 -0.8336,1.12469 -0.88315,1.73737 -0.0759,0.93913 1.24437,2.53782 1.24437,2.53782 0,0 0.56026,2.15874 -0.26378,3.92718 -2.05247,5.52458 -16.10885,-2.75054 -9.03437,-10.21516 z"
       id="path5295"
       inkscape:connector-curvature="0"
       sodipodi:nodetypes="cccsscccccccccc" />
    <path
       style="color:#000000;clip-rule:nonzero;display:inline;overflow:visible;visibility:visible;opacity:1;isolation:auto;mix-blend-mode:normal;color-interpolation:sRGB;color-interpolation-filters:linearRGB;solid-color:#000000;solid-opacity:1;fill:#525f98;fill-opacity:1;fill-rule:nonzero;stroke:none;stroke-width:5.64444399;stroke-linecap:round;stroke-linejoin:round;stroke-miterlimit:4;stroke-dasharray:none;stroke-dashoffset:0;stroke-opacity:1;color-rendering:auto;image-rendering:auto;shape-rendering:auto;text-rendering:auto;enable-background:accumulate"
       d="m -160.7435,182.4948 c -16.2994,0.16344 -23.98941,11.11747 -26.21803,22.00383 9.06658,-6.18698 20.64184,-1.15746 20.79666,6.98252 3.92647,-6.17848 12.60684,-8.27674 15.3386,-1.06454 0.70513,1.86163 0.9408,3.68575 1.82573,4.99246 1.95809,2.89136 6.56101,2.78433 9.7932,2.78433 v -29.43903 c -4.74593,0 -6.97219,1.15962 -6.97219,1.15962 0,0 -1.7669,-1.82888 -2.93109,-1.9172 -0.6579,-0.0499 -1.57604,0.25923 -2.08462,0.67955 -0.4738,0.39159 -0.73387,1.03269 -0.78342,1.64537 -0.0759,0.93914 1.24437,2.53783 1.24437,2.53783 0,0 -0.38979,1.83033 -0.60875,3.51193 -12.66946,-0.65289 -15.84333,-9.24775 -9.40046,-13.87667 z"
       id="path5301"
       inkscape:connector-curvature="0"
       sodipodi:nodetypes="cccssccccccccc" />
    <path
       style="color:#000000;clip-rule:nonzero;display:inline;overflow:visible;visibility:visible;opacity:1;isolation:auto;mix-blend-mode:normal;color-interpolation:sRGB;color-interpolation-filters:linearRGB;solid-color:#000000;solid-opacity:1;fill:#525f98;fill-opacity:1;fill-rule:nonzero;stroke:none;stroke-width:5.64444399;stroke-linecap:round;stroke-linejoin:round;stroke-miterlimit:4;stroke-dasharray:none;stroke-dashoffset:0;stroke-opacity:1;color-rendering:auto;image-rendering:auto;shape-rendering:auto;text-rendering:auto;enable-background:accumulate"
       d="m -166.45581,230.59471 c -15.35158,0.87252 -21.07927,11.71946 -24.66929,23.90706 6.53875,-9.1808 16.98647,-10.85277 18.60816,-1.57354 13.39068,-6.85082 21.60447,-1.13962 23.5164,8.18141 3.02615,1.81184 6.32206,2.9763 9.7932,3.72018 V 233.1191 c -4.07312,0 -6.97219,1.15962 -6.97219,1.15962 0,0 -1.7669,-1.82888 -2.93109,-1.91719 -0.6579,-0.0499 -1.62307,0.30623 -2.13165,0.72657 -0.4738,0.39159 -0.68684,0.98567 -0.73639,1.59835 -0.0759,0.93914 1.24437,2.53783 1.24437,2.53783 l -0.21911,1.52342 c -3.89248,-0.17221 -7.5064,0.44884 -13.55266,-2.72283 -1.15303,-1.81377 -1.67709,-3.86792 -1.94975,-5.43016 z"
       id="path5307"
       inkscape:connector-curvature="0"
       sodipodi:nodetypes="cccccccccccccc" />
    <path
       style="color:#000000;clip-rule:nonzero;display:inline;overflow:visible;visibility:visible;opacity:1;isolation:auto;mix-blend-mode:normal;color-interpolation:sRGB;color-interpolation-filters:linearRGB;solid-color:#000000;solid-opacity:1;fill:#525f98;fill-opacity:1;fill-rule:nonzero;stroke:none;stroke-width:5.64444399;stroke-linecap:round;stroke-linejoin:round;stroke-miterlimit:4;stroke-dasharray:none;stroke-dashoffset:0;stroke-opacity:1;color-rendering:auto;image-rendering:auto;shape-rendering:auto;text-rendering:auto;enable-background:accumulate"
       d="m -254.76343,-9.2263099 -1.80101,0.82116 -1.06729,1.50378 1.24433,2.53797 -0.75459,5.25406039 2.48842,18.63155951 9.79337,3.719801 V -8.4684799 l -6.97195,1.15941 z"
       id="use5376"
       inkscape:connector-curvature="0"
       sodipodi:nodetypes="cccccccccc" />
    <path
       sodipodi:nodetypes="ccccccccccccccc"
       inkscape:connector-curvature="0"
       id="path5378"
       d="m -183.73256,-9.864302 -2.63949,1.203466 -1.56417,2.203873 1.82364,3.719552 -1.1059,7.700134 17.99968,13.985487 18.00021,-13.985487 -1.1059,-7.700134 1.82364,-3.719552 -1.56418,-2.203873 -2.63948,-1.203466 -4.29596,2.809835 -10.21833,-1.699192 -10.21779,1.699192 z"
       style="color:#000000;clip-rule:nonzero;display:inline;overflow:visible;visibility:visible;opacity:1;isolation:auto;mix-blend-mode:normal;color-interpolation:sRGB;color-interpolation-filters:linearRGB;solid-color:#000000;solid-opacity:1;fill:#525f98;fill-opacity:1;fill-rule:nonzero;stroke:none;stroke-width:5.64444447;stroke-linecap:round;stroke-linejoin:round;stroke-miterlimit:4;stroke-dasharray:none;stroke-dashoffset:0;stroke-opacity:1;color-rendering:auto;image-rendering:auto;shape-rendering:auto;text-rendering:auto;enable-background:accumulate" />
    <path
       style="color:#000000;clip-rule:nonzero;display:inline;overflow:visible;visibility:visible;opacity:1;isolation:auto;mix-blend-mode:normal;color-interpolation:sRGB;color-interpolation-filters:linearRGB;solid-color:#000000;solid-opacity:1;fill:#525f98;fill-opacity:1;fill-rule:nonzero;stroke:none;stroke-width:5.64444399;stroke-linecap:round;stroke-linejoin:round;stroke-miterlimit:4;stroke-dasharray:none;stroke-dashoffset:0;stroke-opacity:1;color-rendering:auto;image-rendering:auto;shape-rendering:auto;text-rendering:auto;enable-background:accumulate"
       d="m 61.1755,51.059686 -1.304201,0.594655 -0.773166,1.089019 0.901153,1.837858 -0.54638,3.804827 1.801932,13.492971 7.092464,2.693729 7.092089,-2.693729 1.802306,-13.492971 -0.546754,-3.804827 0.901153,-1.837858 -0.772791,-1.089019 -1.304202,-0.594655 -2.123024,1.388404 -5.048777,-0.839778 -5.049152,0.839778 z"
       id="path5386"
       inkscape:connector-curvature="0" />
    <path
       inkscape:connector-curvature="0"
       style="color:#000000;clip-rule:nonzero;display:inline;overflow:visible;visibility:visible;opacity:1;isolation:auto;mix-blend-mode:normal;color-interpolation:sRGB;color-interpolation-filters:linearRGB;solid-color:#000000;solid-opacity:1;fill:#525f98;fill-opacity:1;fill-rule:nonzero;stroke:none;stroke-width:5.64444399;stroke-linecap:round;stroke-linejoin:round;stroke-miterlimit:4;stroke-dasharray:none;stroke-dashoffset:0;stroke-opacity:1;color-rendering:auto;image-rendering:auto;shape-rendering:auto;text-rendering:auto;enable-background:accumulate"
       d="m 26.602806,85.379625 c 8.259468,1.084118 17.126128,6.613668 14.673675,13.573056 8.453716,0 16.649574,0.624345 19.283478,5.577189 l 0.69495,5.20297 7.092463,2.69373 7.092465,-2.69373 0.69495,-5.20297 C 78.768691,99.577026 86.964548,98.952681 95.418265,98.952681 92.965812,91.993293 101.83247,86.463743 110.09194,85.379625 H 85.828171 c 0,3.331273 -2.628362,6.683047 -8.982715,8.100273 l -0.150069,-1.044858 0.901154,-1.837859 -0.772792,-1.089017 -1.304575,-0.594657 -2.122649,1.388404 -5.049153,-0.839779 -5.049151,0.839779 -2.122648,-1.388404 -1.304578,0.594657 -0.77279,1.089017 0.901152,1.837859 -0.150067,1.044858 c -6.354355,-1.417226 -8.982715,-4.769 -8.982715,-8.100273 z"
       id="path5401" />
    <path
       inkscape:connector-curvature="0"
       style="color:#000000;clip-rule:nonzero;display:inline;overflow:visible;visibility:visible;opacity:1;isolation:auto;mix-blend-mode:normal;color-interpolation:sRGB;color-interpolation-filters:linearRGB;solid-color:#000000;solid-opacity:1;fill:#525f98;fill-opacity:1;fill-rule:nonzero;stroke:none;stroke-width:5.64444399;stroke-linecap:round;stroke-linejoin:round;stroke-miterlimit:4;stroke-dasharray:none;stroke-dashoffset:0;stroke-opacity:1;color-rendering:auto;image-rendering:auto;shape-rendering:auto;text-rendering:auto;enable-background:accumulate"
       d="m 54.698721,120.19489 -23.237249,0.34205 c 6.206534,1.56314 12.199137,5.99774 10.910015,13.50458 8.382326,0 15.677237,-0.47939 18.222153,2.19263 l 0.681852,5.10528 7.07188,2.68587 7.071882,-2.68587 0.681852,-5.10528 c 2.544916,-2.67202 9.839828,-2.19263 18.222152,-2.19263 -1.28912,-7.50684 4.703478,-11.94144 10.910012,-13.50458 l -23.237245,-0.34205 c -0.08,2.16161 -2.052082,4.83628 -4.974305,6.33951 l -0.350657,-2.44224 0.898533,-1.83262 -0.770545,-1.08565 -1.30046,-0.59316 -2.116663,1.38466 -5.034556,-0.83753 -5.034556,0.83753 -2.116661,-1.38466 -1.30046,0.59316 -0.770547,1.08565 0.898535,1.83262 -0.350657,2.44224 c -2.922223,-1.50323 -4.894303,-4.1779 -4.974305,-6.33951 z"
       id="path5403" />
    <path
       inkscape:connector-curvature="0"
       style="color:#000000;clip-rule:nonzero;display:inline;overflow:visible;visibility:visible;opacity:1;isolation:auto;mix-blend-mode:normal;color-interpolation:sRGB;color-interpolation-filters:linearRGB;solid-color:#000000;solid-opacity:1;fill:#525f98;fill-opacity:1;fill-rule:nonzero;stroke:none;stroke-width:5.64444399;stroke-linecap:round;stroke-linejoin:round;stroke-miterlimit:4;stroke-dasharray:none;stroke-dashoffset:0;stroke-opacity:1;color-rendering:auto;image-rendering:auto;shape-rendering:auto;text-rendering:auto;enable-background:accumulate"
       d="m 53.266158,153.04469 c -24.197188,6.36013 -15.241829,23.22579 -4.487428,24.29296 -3.818432,-4.59607 -0.09593,-9.47895 6.56442,-3.91111 1.040792,-3.5242 4.698249,-4.11721 5.911759,1.46962 l 7.092463,2.69373 7.092465,-2.69373 c 1.21351,-5.58683 4.870967,-4.99382 5.911757,-1.46962 6.660352,-5.56784 10.382854,-0.68496 6.564422,3.91111 10.754402,-1.06717 19.709764,-17.93283 -4.487428,-24.29296 5.03494,5.59039 -5.018336,13.92613 -6.733201,4.55367 l 0.901154,-1.83786 -0.772792,-1.08902 -1.304575,-0.59465 -2.122649,1.3884 -5.049153,-0.8394 -5.049151,0.8394 -2.122648,-1.3884 -1.304578,0.59465 -0.77279,1.08902 0.901152,1.83786 c -1.714863,9.37246 -11.768139,1.03672 -6.733199,-4.55367 z"
       id="path5405" />
    <path
       inkscape:connector-curvature="0"
       style="color:#000000;clip-rule:nonzero;display:inline;overflow:visible;visibility:visible;opacity:1;isolation:auto;mix-blend-mode:normal;color-interpolation:sRGB;color-interpolation-filters:linearRGB;solid-color:#000000;solid-opacity:1;fill:#525f98;fill-opacity:1;fill-rule:nonzero;stroke:none;stroke-width:5.64444399;stroke-linecap:round;stroke-linejoin:round;stroke-miterlimit:4;stroke-dasharray:none;stroke-dashoffset:0;stroke-opacity:1;color-rendering:auto;image-rendering:auto;shape-rendering:auto;text-rendering:auto;enable-background:accumulate"
       d="m 51.108704,185.0491 c -10.651806,1.92861 -15.712816,7.53139 -17.344202,15.38771 6.565882,-4.48052 14.948515,-0.83822 15.060632,5.05663 2.442872,-3.84396 8.895604,-5.38008 11.622929,-2.23042 l 0.806846,6.04274 7.092463,2.69373 7.092465,-2.69373 0.806846,-6.04274 c 2.727323,-3.14966 9.180057,-1.61354 11.622927,2.23042 0.112119,-5.89485 8.494749,-9.53715 15.06063,-5.05663 -1.63138,-7.85632 -6.692392,-13.4591 -17.3442,-15.38771 4.679351,3.3619 0.844603,9.10751 -8.525026,9.50552 l -0.365627,-2.54666 0.901154,-1.83786 -0.772792,-1.08902 -1.304575,-0.59465 -2.122649,1.3884 -5.049153,-0.83978 -5.049151,0.83978 -2.122648,-1.3884 -1.304578,0.59465 -0.77279,1.08902 0.901152,1.83786 -0.365625,2.54666 C 50.264103,194.15661 46.429354,188.411 51.108704,185.0491 Z"
       id="path5407" />
    <path
       inkscape:connector-curvature="0"
       style="color:#000000;clip-rule:nonzero;display:inline;overflow:visible;visibility:visible;opacity:1;isolation:auto;mix-blend-mode:normal;color-interpolation:sRGB;color-interpolation-filters:linearRGB;solid-color:#000000;solid-opacity:1;fill:#525f98;fill-opacity:1;fill-rule:nonzero;stroke:none;stroke-width:5.64444399;stroke-linecap:round;stroke-linejoin:round;stroke-miterlimit:4;stroke-dasharray:none;stroke-dashoffset:0;stroke-opacity:1;color-rendering:auto;image-rendering:auto;shape-rendering:auto;text-rendering:auto;enable-background:accumulate"
       d="m 48.614442,219.3352 c -10.26058,1.91707 -15.135918,8.68171 -17.865509,17.31314 4.735265,-6.6486 12.301733,-7.85942 13.47613,-1.13953 9.697331,-4.96127 15.645262,-0.82531 17.029846,5.92484 l 7.092463,2.69411 7.092465,-2.69411 c 1.384583,-6.75015 7.332516,-10.88611 17.029847,-5.92484 1.174395,-6.71989 8.740866,-5.50907 13.476126,1.13953 -2.72959,-8.63143 -7.604926,-15.39607 -17.865506,-17.31314 -0.197463,1.13135 -0.625249,2.32853 -1.460257,3.64204 -3.831887,1.38579 -6.764774,1.78296 -9.767107,2.25625 l -0.157553,-1.09725 0.901154,-1.83786 -0.772792,-1.08902 -1.304575,-0.59466 -2.122649,1.38841 -5.049153,-0.83978 -5.049151,0.83978 -2.122648,-1.38841 -1.304578,0.59466 -0.77279,1.08902 0.901152,1.83786 -0.157551,1.09725 c -3.002333,-0.47329 -5.93522,-0.87046 -9.767107,-2.25625 -0.835008,-1.31351 -1.262794,-2.51069 -1.460257,-3.64204 z"
       id="path5409" />
    <path
       style="color:#000000;clip-rule:nonzero;display:inline;overflow:visible;visibility:visible;opacity:1;isolation:auto;mix-blend-mode:normal;color-interpolation:sRGB;color-interpolation-filters:linearRGB;solid-color:#000000;solid-opacity:1;fill:#525f98;fill-opacity:1;fill-rule:nonzero;stroke:none;stroke-width:5.64444447;stroke-linecap:round;stroke-linejoin:round;stroke-miterlimit:4;stroke-dasharray:none;stroke-dashoffset:0;stroke-opacity:1;color-rendering:auto;image-rendering:auto;shape-rendering:auto;text-rendering:auto;enable-background:accumulate"
       d="m 162.49198,52.920236 -1.91148,0.871532 -1.13275,1.596012 1.32066,2.693644 -0.80088,5.576322 13.0351,10.12808 13.03548,-10.12808 -0.80087,-5.576322 1.32065,-2.693644 -1.13275,-1.596012 -1.91148,-0.871532 -3.11107,2.03484 -7.39996,-1.230529 -7.39957,1.230529 z"
       id="path4378"
       inkscape:connector-curvature="0"
       sodipodi:nodetypes="ccccccccccccccc" />
    <path
       inkscape:connector-curvature="0"
       style="color:#000000;clip-rule:nonzero;display:inline;overflow:visible;visibility:visible;opacity:1;isolation:auto;mix-blend-mode:normal;color-interpolation:sRGB;color-interpolation-filters:linearRGB;solid-color:#000000;solid-opacity:1;fill:#525f98;fill-opacity:1;fill-rule:nonzero;stroke:none;stroke-width:5.64444399;stroke-linecap:round;stroke-linejoin:round;stroke-miterlimit:4;stroke-dasharray:none;stroke-dashoffset:0;stroke-opacity:1;color-rendering:auto;image-rendering:auto;shape-rendering:auto;text-rendering:auto;enable-background:accumulate"
       d="m 143.30292,84.014796 c -4.29066,0.0057 -8.25593,0.535757 -12.04431,1.364829 8.25946,1.084118 17.12575,6.613668 14.6733,13.573056 8.22479,0 16.58731,0.375073 19.05706,5.184629 0.62978,1.2264 0.48451,2.6052 0.92174,3.67945 0.39568,0.97217 3.46247,2.69373 7.09209,2.69373 3.62961,0 6.69641,-1.72156 7.09209,-2.69373 0.43723,-1.07425 0.29195,-2.45305 0.92174,-3.67945 2.46975,-4.809556 10.83228,-5.184629 19.05706,-5.184629 -2.45245,-6.959388 6.41383,-12.488938 14.6733,-13.573056 -3.78837,-0.829072 -7.75365,-1.359178 -12.04431,-1.364829 -3.78587,-0.005 -7.82509,0.398467 -12.21946,1.364829 0,3.325245 -2.61815,6.671135 -8.94753,8.092788 -0.0541,-0.358537 -0.11319,-0.708837 -0.18525,-1.037373 0,0 0.95612,-1.157751 0.90115,-1.837859 -0.0359,-0.443691 -0.21561,-0.942407 -0.55873,-1.225987 -0.3683,-0.304395 -1.04182,-0.49383 -1.51826,-0.457687 -0.84309,0.06396 -2.12265,1.388404 -2.12265,1.388404 0,0 -1.69601,-0.839779 -5.04915,-0.839779 -3.35314,0 -5.04915,0.839779 -5.04915,0.839779 0,0 -1.27956,-1.324444 -2.12265,-1.388404 -0.47644,-0.03614 -1.14996,0.153292 -1.51826,0.457687 -0.34312,0.28358 -0.52285,0.782296 -0.55873,1.225987 -0.055,0.680108 0.90115,1.837859 0.90115,1.837859 -0.0721,0.328536 -0.13119,0.678836 -0.18525,1.037373 -6.32938,-1.421653 -8.94753,-4.767543 -8.94753,-8.092788 -4.39437,-0.966362 -8.43358,-1.369787 -12.21946,-1.364829 z"
       id="path5426" />
    <path
       inkscape:connector-curvature="0"
       style="color:#000000;clip-rule:nonzero;display:inline;overflow:visible;visibility:visible;opacity:1;isolation:auto;mix-blend-mode:normal;color-interpolation:sRGB;color-interpolation-filters:linearRGB;solid-color:#000000;solid-opacity:1;fill:#525f98;fill-opacity:1;fill-rule:nonzero;stroke:none;stroke-width:5.64444399;stroke-linecap:round;stroke-linejoin:round;stroke-miterlimit:4;stroke-dasharray:none;stroke-dashoffset:0;stroke-opacity:1;color-rendering:auto;image-rendering:auto;shape-rendering:auto;text-rendering:auto;enable-background:accumulate"
       d="m 149.5949,119.65525 c -4.97267,-0.006 -9.2975,0.40763 -13.478,0.88169 6.20653,1.56314 12.19914,5.99774 10.91001,13.50458 4.56391,-2.65217 13.64339,-4.08792 17.28583,2.50436 3.05012,5.52028 6.37336,6.17298 8.69006,6.17298 2.3167,0 5.63957,-0.6527 8.68969,-6.17298 3.64243,-6.59228 12.7223,-5.15653 17.2862,-2.50436 -1.28913,-7.50684 4.70348,-11.94144 10.91001,-13.50458 -4.1805,-0.47406 -8.50533,-0.88748 -13.478,-0.88169 -2.98361,0.003 -6.20062,0.15759 -9.75962,0.53964 -0.0794,2.14402 -2.02055,4.79226 -4.90358,6.30209 -0.16057,-1.17635 -0.42101,-2.40482 -0.42101,-2.40482 0,0 0.95298,-1.1545 0.89816,-1.83262 -0.0358,-0.44241 -0.18891,-0.99113 -0.53104,-1.27389 -0.36723,-0.30351 -1.06491,-0.44099 -1.53997,-0.40492 -0.84064,0.0638 -2.11666,1.38466 -2.11666,1.38466 0,0 -2.02272,-0.83753 -5.03418,-0.83753 -3.01147,0 -5.03418,0.83753 -5.03418,0.83753 0,0 -1.27602,-1.32088 -2.11666,-1.38466 -0.47506,-0.0361 -1.17274,0.10141 -1.53997,0.40492 -0.34213,0.28276 -0.49527,0.83148 -0.53104,1.27389 -0.0548,0.67812 0.89816,1.83262 0.89816,1.83262 0,0 -0.26044,1.22847 -0.42101,2.40482 -2.88303,-1.50983 -4.82423,-4.15807 -4.90358,-6.30209 -3.55901,-0.38205 -6.77601,-0.5363 -9.75962,-0.53964 z"
       id="path5428" />
    <path
       inkscape:connector-curvature="0"
       style="color:#000000;clip-rule:nonzero;display:inline;overflow:visible;visibility:visible;opacity:1;isolation:auto;mix-blend-mode:normal;color-interpolation:sRGB;color-interpolation-filters:linearRGB;solid-color:#000000;solid-opacity:1;fill:#525f98;fill-opacity:1;fill-rule:nonzero;stroke:none;stroke-width:5.64444399;stroke-linecap:round;stroke-linejoin:round;stroke-miterlimit:4;stroke-dasharray:none;stroke-dashoffset:0;stroke-opacity:1;color-rendering:auto;image-rendering:auto;shape-rendering:auto;text-rendering:auto;enable-background:accumulate"
       d="m 157.92159,153.04469 c -24.1972,6.36013 -15.24146,23.22579 -4.48706,24.29296 -3.81843,-4.59607 -0.0959,-9.47895 6.56442,-3.91111 0.91838,-3.10974 2.94731,-3.17451 5.23777,0.18749 0.32385,0.47535 0.54913,1.01313 0.91575,1.4756 1.57094,1.98173 3.3401,2.50026 6.85033,2.50026 3.51023,0 5.27939,-0.51853 6.85033,-2.50026 0.36662,-0.46247 0.5919,-1.00025 0.91575,-1.4756 2.29046,-3.362 4.31938,-3.29723 5.23777,-0.18749 6.66036,-5.56784 10.38285,-0.68496 6.56442,3.91111 10.7544,-1.06717 19.71014,-17.93283 -4.48705,-24.29296 5.12323,5.40577 -5.05635,11.39866 -6.54272,7.39784 -0.59676,-1.28068 -0.19086,-2.84417 -0.19086,-2.84417 0,0 0.95612,-1.15776 0.90115,-1.83786 -0.0359,-0.44369 -0.29644,-0.97459 -0.63956,-1.25817 -0.36831,-0.30439 -0.96099,-0.46164 -1.43743,-0.4255 -0.84309,0.064 -2.12265,1.3884 -2.12265,1.3884 0,0 -1.89797,-0.8394 -5.04915,-0.8394 -3.15118,0 -5.04915,0.8394 -5.04915,0.8394 0,0 -1.27956,-1.32444 -2.12265,-1.3884 -0.47644,-0.0361 -1.06912,0.12111 -1.43743,0.4255 -0.34312,0.28358 -0.60368,0.81448 -0.63956,1.25817 -0.055,0.6801 0.90115,1.83786 0.90115,1.83786 0,0 0.40552,1.56349 -0.19123,2.84417 -1.48637,4.00082 -11.66558,-1.99207 -6.54234,-7.39784 z"
       id="path5430" />
    <path
       inkscape:connector-curvature="0"
       style="color:#000000;clip-rule:nonzero;display:inline;overflow:visible;visibility:visible;opacity:1;isolation:auto;mix-blend-mode:normal;color-interpolation:sRGB;color-interpolation-filters:linearRGB;solid-color:#000000;solid-opacity:1;fill:#525f98;fill-opacity:1;fill-rule:nonzero;stroke:none;stroke-width:5.64444399;stroke-linecap:round;stroke-linejoin:round;stroke-miterlimit:4;stroke-dasharray:none;stroke-dashoffset:0;stroke-opacity:1;color-rendering:auto;image-rendering:auto;shape-rendering:auto;text-rendering:auto;enable-background:accumulate"
       d="m 157.40664,184.50197 c -11.80378,0.11836 -17.37278,8.0511 -18.98671,15.93484 6.56588,-4.48052 14.94851,-0.83822 15.06063,5.05663 2.84349,-4.47436 9.12969,-5.99388 11.10799,-0.77092 0.51064,1.34817 0.68131,2.66917 1.32216,3.61547 1.41802,2.09388 4.75139,2.01637 7.09209,2.01637 2.3407,0 5.67407,0.0775 7.09209,-2.01637 0.64085,-0.9463 0.81152,-2.2673 1.32216,-3.61547 1.9783,-5.22296 8.2645,-3.70344 11.10799,0.77092 0.11212,-5.89485 8.49475,-9.53715 15.06063,-5.05663 -1.61393,-7.88374 -7.18293,-15.81648 -18.98671,-15.93484 4.66583,3.35219 2.36736,9.57646 -6.80767,10.04928 -0.15857,-1.21779 -0.44085,-2.54329 -0.44085,-2.54329 0,0 0.95612,-1.15775 0.90115,-1.83786 -0.0359,-0.44369 -0.22421,-0.90797 -0.56733,-1.19156 -0.36831,-0.30439 -1.03322,-0.52825 -1.50966,-0.49211 -0.84309,0.064 -2.12265,1.3884 -2.12265,1.3884 0,0 -1.61222,-0.83978 -5.04915,-0.83978 -3.43693,0 -5.04915,0.83978 -5.04915,0.83978 0,0 -1.27956,-1.32444 -2.12265,-1.3884 -0.47644,-0.0361 -1.14135,0.18772 -1.50966,0.49211 -0.34312,0.28359 -0.53145,0.74787 -0.56733,1.19156 -0.055,0.68011 0.90115,1.83786 0.90115,1.83786 0,0 -0.28228,1.3255 -0.44085,2.54329 -9.17503,-0.47282 -11.4735,-6.69709 -6.80767,-10.04928 z"
       id="path5432" />
    <path
       inkscape:connector-curvature="0"
       style="color:#000000;clip-rule:nonzero;display:inline;overflow:visible;visibility:visible;opacity:1;isolation:auto;mix-blend-mode:normal;color-interpolation:sRGB;color-interpolation-filters:linearRGB;solid-color:#000000;solid-opacity:1;fill:#525f98;fill-opacity:1;fill-rule:nonzero;stroke:none;stroke-width:5.64444399;stroke-linecap:round;stroke-linejoin:round;stroke-miterlimit:4;stroke-dasharray:none;stroke-dashoffset:0;stroke-opacity:1;color-rendering:auto;image-rendering:auto;shape-rendering:auto;text-rendering:auto;enable-background:accumulate"
       d="m 153.26987,219.3352 c -11.11739,0.63187 -15.2653,8.48706 -17.86514,17.31314 4.73527,-6.6486 12.30136,-7.85942 13.47576,-1.13953 9.69733,-4.96127 15.64563,-0.82531 17.03022,5.92484 2.19149,1.31211 4.57834,2.15541 7.09209,2.69411 2.51375,-0.5387 4.9006,-1.382 7.09209,-2.69411 1.38459,-6.75015 7.33289,-10.88611 17.03022,-5.92484 1.1744,-6.71989 8.74049,-5.50907 13.47576,1.13953 -2.59984,-8.82608 -6.74775,-16.68127 -17.86514,-17.31314 -0.19746,1.13135 -0.57697,2.61894 -1.41198,3.93244 -4.37861,2.29688 -6.99576,1.84712 -9.81463,1.97183 l -0.15868,-1.10323 c 0,0 0.95612,-1.15775 0.90115,-1.83786 -0.0359,-0.4437 -0.19016,-0.87392 -0.53328,-1.15751 -0.3683,-0.3044 -1.06727,-0.5623 -1.54371,-0.52617 -0.84309,0.064 -2.12265,1.38841 -2.12265,1.38841 0,0 -2.09946,-0.83978 -5.04915,-0.83978 -2.94969,0 -5.04915,0.83978 -5.04915,0.83978 0,0 -1.27956,-1.32445 -2.12265,-1.38841 -0.47644,-0.0361 -1.17541,0.22177 -1.54371,0.52617 -0.34312,0.28359 -0.4974,0.71381 -0.53328,1.15751 -0.055,0.68011 0.90115,1.83786 0.90115,1.83786 l -0.15868,1.10323 c -2.81887,-0.12471 -5.43602,0.32505 -9.81463,-1.97183 -0.83501,-1.3135 -1.21452,-2.80109 -1.41198,-3.93244 z"
       id="path5434" />
  </g>
</svg>
