<?xml version="1.0" encoding="UTF-8" standalone="no"?><!DOCTYPE svg PUBLIC "-//W3C//DTD SVG 1.1//EN" "http://www.w3.org/Graphics/SVG/1.1/DTD/svg11.dtd"><svg width="100%" height="100%" viewBox="0 0 500 500" version="1.1" xmlns="http://www.w3.org/2000/svg" xmlns:xlink="http://www.w3.org/1999/xlink" xml:space="preserve" xmlns:serif="http://www.serif.com/" style="fill-rule:evenodd;clip-rule:evenodd;stroke-linecap:round;stroke-linejoin:round;stroke-miterlimit:1.5;"><path id="path4321" d="M181.318,292.841c-16.548,4.107 -3.153,29.31 -19.026,36.426c-14.579,6.535 -23.902,21.838 -38.572,30.025c-19.451,10.855 -37.803,14.345 -56.755,28.575c-9.232,6.932 -38.429,2.775 -39.306,14.375c44.982,-6.984 69.016,12.761 96.707,16.457c24.437,3.261 42.912,1.918 63.587,-6.004c71.775,-27.5 41.729,-89.397 41.449,-108.227c-14.156,-2.632 -34.389,-15.027 -48.084,-11.627Z" style="fill:#0c0c0c;"/><g id="hat-back"><path d="M197.256,61.011l4.255,59.169c29.333,-8.964 74.818,-8.612 121.891,-6.691c-2.756,-20.986 -0.31,-40.964 -6.507,-63.793c-22.167,-10.796 -99.12,-8.661 -119.639,11.315Z" style="fill:#0c0c0c;"/><clipPath id="_clip1"><path d="M197.256,61.011l4.255,59.169c29.333,-8.964 74.818,-8.612 121.891,-6.691c-2.756,-20.986 -0.31,-40.964 -6.507,-63.793c-22.167,-10.796 -99.12,-8.661 -119.639,11.315Z"/></clipPath><g clip-path="url(#_clip1)"><path d="M297.091,25.814l-18.353,-1.83c6.813,32.806 10.942,67.208 10.303,104.442l18.354,1.829c2.96,-35.449 0.08,-70.318 -10.304,-104.441Z" style="fill:#282c3f;"/></g><path d="M197.256,61.011l4.255,59.169c29.333,-8.964 74.818,-8.612 121.891,-6.691c-2.756,-20.986 -0.31,-40.964 -6.507,-63.793c-22.167,-10.796 -99.12,-8.661 -119.639,11.315Z" style="fill:none;stroke:#13172b;stroke-width:4.8px;"/><path d="M261.597,94.308c120.289,-27.794 161.804,-15.206 169.998,15.587c4.725,17.755 -73.03,50.391 -166.77,56.137c-93.46,5.729 -170.217,-8.002 -171.982,-23.872c-1.328,-11.945 16.903,-35.499 61.456,-38.639c35.338,-2.49 65.642,0.412 107.298,-9.213Z" style="fill:#0c0c0c;stroke:#13172b;stroke-width:4.84px;"/><path d="M183.966,186.235c-34.25,-4.514 -23.81,-16.178 -55.872,-0.478c-24.66,12.075 -34.236,8.272 -48.471,-1.912" style="fill:none;stroke:#0c0c0c;stroke-width:16px;stroke-linecap:butt;"/><path d="M181.649,187.725c-44.168,-7.15 -38.357,18.869 -52.304,28.409c-17.669,12.084 -48.102,9.119 -59.324,3.451" style="fill:none;stroke:#0c0c0c;stroke-width:16px;stroke-linecap:butt;"/></g><g id="gopher-body"><g id="g4537"><path id="path4539" d="M386.813,342.183c-0.809,2.023 -1.019,3.69 -0.754,5.092c0.265,1.402 0.996,2.547 1.969,3.634c0.972,1.087 2.175,2.132 3.462,3.211c1.287,1.078 2.669,2.17 4.103,3.215c1.433,1.045 2.871,1.898 4.267,2.53c1.397,0.633 2.748,1.058 3.979,1.216c1.231,0.157 2.342,0.042 3.263,-0.458c0.92,-0.5 1.648,-1.387 2.132,-2.752c0.484,-1.365 0.491,-2.542 0.1,-3.528c-0.392,-0.985 -1.183,-1.774 -2.223,-2.454c-1.039,-0.68 -2.321,-1.252 -3.658,-1.936c-1.336,-0.683 -2.719,-1.498 -4.029,-2.646c-1.311,-1.148 -2.418,-2.713 -3.49,-4.197c-1.072,-1.484 -2.13,-2.858 -3.214,-3.705c-1.083,-0.847 -2.176,-1.173 -3.183,-0.769c-1.006,0.404 -3.534,5.569 -2.724,3.547l0,0Z" style="fill:#e1d6b9;fill-rule:nonzero;"/><path id="path4541" d="M392.806,338.131c1.1,0.685 2.195,1.793 3.289,3.079c1.25,1.469 2.507,3.148 4.01,4.475c1.503,1.327 3.07,2.301 4.588,3.149c1.518,0.849 2.971,1.6 4.144,2.49c1.173,0.89 2.058,1.921 2.504,3.139c0.446,1.217 0.457,2.611 -0.042,4.139c-0.498,1.527 -1.34,2.579 -2.434,3.213c-1.093,0.634 -2.436,0.853 -3.924,0.758c-1.487,-0.095 -3.117,-0.498 -4.787,-1.156c-1.669,-0.659 -3.372,-1.586 -5.044,-2.771c-1.673,-1.184 -3.212,-2.401 -4.61,-3.58c-1.399,-1.179 -2.664,-2.307 -3.652,-3.499c-0.377,-0.454 -0.709,-0.921 -0.992,-1.407c-0.571,-0.983 0.493,-3.184 0.853,-2.063c0.333,1.04 0.93,1.944 1.692,2.805c0.928,1.05 2.078,2.059 3.312,3.099c1.233,1.04 2.56,2.092 3.936,3.099c1.375,1.008 2.754,1.83 4.093,2.441c1.339,0.611 2.634,1.022 3.814,1.176c1.18,0.153 2.245,0.044 3.126,-0.435c0.881,-0.478 1.577,-1.327 2.04,-2.637c0.463,-1.31 0.47,-2.442 0.095,-3.391c-0.374,-0.949 -1.129,-1.71 -2.121,-2.368c-0.993,-0.658 -2.217,-1.214 -3.497,-1.876c-1.279,-0.662 -2.606,-1.448 -3.867,-2.552c-1.261,-1.104 -2.33,-2.606 -3.36,-4.033c-1.029,-1.428 -2.039,-2.753 -3.07,-3.574c-0.129,-0.103 -0.258,-0.198 -0.387,-0.285c-0.332,-0.222 -0.659,-0.401 -0.99,-0.497c-0.382,-0.11 -0.135,-1.754 0.81,-1.205c0.154,0.089 0.379,0.431 0.471,0.267l0,0Z" style="fill:#394655;fill-rule:nonzero;"/></g><g id="g4640"><path id="path4642" d="M326.494,417.374c3.321,6.31 2.099,13.573 2.722,18.965c0.622,5.393 3.072,8.882 5.01,11.592c1.938,2.71 3.637,4.495 5.374,5.067c1.736,0.572 3.48,-0.049 5.389,-2.174c1.908,-2.125 2.675,-4.549 2.646,-7.322c-0.029,-2.773 -0.884,-5.88 -2.004,-9.615c-1.12,-3.734 -2.363,-8.135 -4.933,-12.971c-2.57,-4.835 -6.086,-10.495 -11.785,-16.068c-5.698,-5.573 -12.82,-9.968 -19.038,-13.558c-6.218,-3.59 -11.566,-6.388 -15.758,-8.449c-4.192,-2.06 -7.327,-3.366 -9.594,-3.936c-2.268,-0.571 -3.679,-0.416 -4.18,0.47c-0.501,0.886 0.25,2.359 2.301,4.341c2.052,1.981 5.464,4.474 10.272,7.465c4.807,2.991 11.124,6.447 17.484,10.673c6.359,4.225 12.774,9.21 16.094,15.52Z" style="fill:#394655;fill-rule:nonzero;"/><path id="path4644" d="M327.738,415.613c3.298,5.224 3.495,11.172 3.55,16.443c0.056,5.271 1.29,9.207 2.971,12.022c1.682,2.815 3.34,4.741 4.86,5.599c1.52,0.858 2.985,0.61 4.557,-1.123c1.573,-1.733 2.027,-3.861 1.741,-6.382c-0.286,-2.521 -1.305,-5.44 -2.372,-9.031c-1.068,-3.591 -2.146,-7.857 -4.443,-12.357c-2.296,-4.5 -5.576,-9.49 -10.288,-14.298c-4.711,-4.808 -10.497,-8.658 -15.736,-11.808c-5.238,-3.15 -9.921,-5.619 -13.633,-7.497c-3.713,-1.877 -6.519,-3.148 -8.488,-3.806c-1.969,-0.658 -3.119,-0.706 -3.408,-0.111c-0.288,0.595 0.607,1.752 2.649,3.384c2.041,1.633 5.273,3.74 9.531,6.317c4.257,2.577 9.59,5.613 14.86,9.313c5.27,3.7 10.351,8.111 13.649,13.335Z" style="fill:#e1d6b9;fill-rule:nonzero;"/></g><g id="g4594"><path id="path4588" d="M198.192,344.454c-6.833,-2.023 -11.441,-6.665 -15.851,-9.411c-4.409,-2.745 -8.583,-3.582 -11.848,-4.216c-3.265,-0.634 -5.687,-0.858 -7.233,-0.383c-1.546,0.475 -2.211,1.624 -1.862,3.694c0.348,2.07 1.654,3.784 3.733,5.329c2.08,1.545 4.941,2.9 8.439,4.485c3.498,1.585 7.57,3.488 12.823,5.027c5.252,1.539 11.727,3.107 19.546,3.625c7.819,0.518 15.682,-0.279 22.362,-1.113c6.681,-0.835 12.212,-1.716 16.449,-2.481c4.237,-0.765 7.23,-1.469 9.117,-2.189c1.887,-0.719 2.683,-1.453 2.348,-2.181c-0.336,-0.728 -1.915,-1.212 -4.711,-1.384c-2.797,-0.172 -6.852,-0.008 -12.177,0.516c-5.325,0.524 -11.97,1.48 -19.215,2.022c-7.244,0.542 -15.088,0.684 -21.92,-1.34Z" style="fill:#394655;fill-rule:nonzero;"/><path id="ellipse4590" d="M198.697,346.015c-6.01,-1.423 -10.557,-4.676 -14.51,-7.613c-3.953,-2.938 -7.675,-4.583 -10.852,-5.394c-3.177,-0.811 -5.678,-1.133 -7.297,-0.918c-1.619,0.215 -2.38,1.027 -2.107,2.722c0.274,1.695 1.562,3.1 3.62,4.386c2.058,1.285 4.885,2.458 8.243,3.987c3.357,1.529 7.223,3.431 12.049,4.907c4.826,1.476 10.652,2.776 17.266,3.317c6.613,0.541 13.208,0.05 18.93,-0.583c5.721,-0.632 10.579,-1.393 14.37,-2.04c3.791,-0.648 6.546,-1.221 8.306,-1.754c1.76,-0.534 2.538,-1.035 2.281,-1.502c-0.256,-0.466 -1.693,-0.705 -4.223,-0.687c-2.531,0.019 -6.183,0.318 -10.846,0.822c-4.662,0.505 -10.36,1.245 -16.511,1.583c-6.15,0.338 -12.708,0.19 -18.719,-1.233Z" style="fill:#e1d6b9;fill-rule:nonzero;"/></g><g id="g4198"><path id="path4188" d="M409.167,307.28c-5.144,42.339 -14.226,83.453 -46.319,111.529c-40.487,35.419 -114.912,40.1 -167.558,6.493c-15.225,-9.719 -27.349,-36.716 -29.291,-54.175c-4.06,-36.493 10.949,-61.207 7.443,-94.884c-2.79,-26.805 -16.366,-48.987 -15.08,-80.903c0.863,-21.416 6.111,-46.335 22.369,-59.574c21.3,-17.344 46.169,-27.275 74.374,-26.591c40.167,0.973 83.483,3.735 117.173,29.49c24.046,18.382 37.829,48.74 40.259,79.898c2.497,32.004 -0.088,61.701 -3.37,88.717Z" style="fill:#394655;fill-rule:nonzero;"/><path id="ellipse4190" d="M399.105,346.412c-8.593,38.937 -32.262,75.228 -74.23,89.594c-38.995,13.349 -90.284,10.216 -128.217,-15.086c-14.439,-9.631 -25.453,-36.295 -27.036,-52.838c-3.333,-34.82 10.518,-60.336 7.346,-92.473c-2.648,-26.825 -15.474,-46.265 -15.073,-78.08c0.261,-20.793 4.964,-45.446 20.885,-58.344c20.17,-16.34 43.268,-26.714 69.832,-26.581c42.091,0.212 89.549,3.268 123.058,33.459c30.637,27.602 35.002,76.205 33.581,114.151c-1.172,31.296 -4.237,59.424 -10.146,86.198Z" style="fill:#96d6ff;fill-rule:nonzero;"/></g><g id="g4634"><path id="path4636" d="M239.76,432.49c-2.143,-0.389 -3.82,-0.263 -5.138,0.284c-1.318,0.546 -2.287,1.51 -3.119,2.737c-0.833,1.226 -1.545,2.711 -2.259,4.307c-0.715,1.595 -1.415,3.302 -2.098,5.02c-0.682,1.718 -1.208,3.374 -1.546,4.923c-0.339,1.549 -0.502,2.989 -0.419,4.258c0.082,1.269 0.415,2.366 1.12,3.224c0.704,0.858 1.782,1.477 3.317,1.781c1.535,0.304 2.776,0.145 3.755,-0.373c0.98,-0.518 1.692,-1.395 2.233,-2.52c0.54,-1.126 0.908,-2.499 1.308,-4.016c0.399,-1.516 0.848,-3.174 1.556,-4.896c0.709,-1.721 1.791,-3.385 2.821,-4.964c1.031,-1.579 1.992,-3.072 2.51,-4.4c0.518,-1.327 0.593,-2.486 -0.014,-3.399c-0.607,-0.913 -1.883,-1.577 -4.027,-1.966l0,0Z" style="fill:#e1d6b9;fill-rule:nonzero;"/><path id="path4638" d="M245.02,437.637c-0.379,1.286 -1.108,2.721 -1.96,4.255c-0.974,1.753 -2.096,3.632 -2.91,5.617c-0.814,1.985 -1.379,3.873 -1.92,5.594c-0.541,1.722 -1.082,3.274 -1.83,4.548c-0.748,1.275 -1.703,2.268 -2.915,2.869c-1.212,0.601 -2.672,0.809 -4.363,0.525c-1.691,-0.284 -2.944,-0.977 -3.808,-1.974c-0.864,-0.998 -1.344,-2.301 -1.537,-3.808c-0.193,-1.508 -0.107,-3.219 0.204,-5.043c0.31,-1.824 0.858,-3.759 1.636,-5.739c0.778,-1.979 1.582,-3.857 2.392,-5.565c0.811,-1.708 1.619,-3.244 2.574,-4.485c0.363,-0.472 0.751,-0.899 1.171,-1.278c0.847,-0.765 3.22,-0.154 2.201,0.437c-0.944,0.548 -1.252,1.27 -1.893,2.242c-0.78,1.185 -1.337,2.713 -1.965,4.178c-0.627,1.464 -1.786,2.847 -2.402,4.373c-0.617,1.527 -1.086,3.007 -1.385,4.421c-0.299,1.415 -0.441,2.759 -0.363,3.955c0.079,1.195 0.387,2.238 1.034,3.038c0.647,0.8 1.636,1.355 3.001,1.623c1.364,0.268 2.441,0.119 3.252,-0.372c0.811,-0.491 0.871,-1.871 1.255,-2.912c0.384,-1.041 0.987,-2.316 1.331,-3.656c0.343,-1.341 0.918,-2.199 1.745,-3.675c0.827,-1.477 2.097,-2.926 3.263,-4.425c1.165,-1.498 2.104,-2.95 2.602,-4.227c0.063,-0.159 0.119,-0.317 0.167,-0.471c0.125,-0.397 0.214,-0.774 0.225,-1.134c0.012,-0.414 1.635,-0.538 1.338,0.547c-0.048,0.176 -0.086,0.358 -0.14,0.542l0,0Z" style="fill:#394655;fill-rule:nonzero;"/></g></g><g id="gopher-shadow"><g opacity="0.06"><ellipse id="path4544" cx="347.143" cy="250.271" rx="17.961" ry="16.546"/><path id="path4271" d="M160.807,112.124c-5.297,-0.057 -8.594,0.667 -12.489,2.614c-4.03,2.014 -8.035,6.333 -9.242,9.967c-1.816,5.467 -0.338,11.941 4.014,17.581c2.556,3.314 5.479,5.249 11.687,7.736c2.567,1.028 6.152,2.801 7.967,3.939c4.497,2.82 7.869,4.255 10.833,4.613c1.938,0.233 2.492,0.509 2.492,1.243c0,0.714 -0.565,1.029 -2.312,1.291c-1.272,0.191 -3.017,0.193 -3.88,0.003c-1.56,-0.343 -1.576,-0.324 -2.925,3.749c-3.101,9.363 -4.661,20.685 -4.647,33.725c0.016,14.655 1.461,23.112 7.664,44.837c4.449,15.581 5.726,21.122 6.864,29.809c1.643,12.531 1.052,21.284 -3.125,46.233c-3.891,23.244 -4.127,25.357 -4.146,37.235c-0.02,11.424 0.507,15.879 2.82,23.85c4.356,15.016 10.982,27.294 19.126,35.44c6.403,6.404 18.103,13.01 32.988,18.627c4.38,1.652 4.669,1.697 5.173,0.795c1.379,-2.463 2.567,-3.022 7.466,-3.039c-30.945,-27.008 -27.586,-65.835 -20.418,-87.147c5.867,-17.446 25.416,-42.587 25.416,-42.587l-17.929,-1.586c0,0 -5.807,-34.11 -10.525,-47.925c-18.069,-52.913 -23.859,-96.288 3.497,-126.56c4.674,-5.172 10.079,-8.97 15.687,-11.757c-7.221,1.519 -14.641,3.844 -21.133,6.662c-5.322,2.31 -15.211,7.928 -15.195,8.631c0.007,0.313 0.246,1.58 0.531,2.817c0.639,2.77 -0.064,4.448 -1.761,4.207c-0.949,-0.135 -1.198,-0.609 -1.464,-2.789c-0.505,-4.137 -2.56,-7.519 -7.254,-11.935c-7.404,-6.964 -13.838,-9.774 -23.38,-10.209c-0.846,-0.039 -1.643,-0.062 -2.4,-0.07l0,0Zm1.105,19.281c1.507,0.051 3.195,0.333 4.707,0.836c3.194,1.06 9.885,5.352 11.452,7.343c2.404,3.057 0.839,3.209 -2.724,0.265c-1.396,-1.154 -2.695,-2.097 -2.887,-2.097c-0.192,0 -2.231,1.532 -4.531,3.406c-2.301,1.873 -4.479,3.406 -4.839,3.408c-1.511,0.005 -0.453,-1.666 2.487,-3.928c3.714,-2.859 4.712,-4.311 3.303,-4.808c-0.517,-0.183 -2.339,-0.908 -4.048,-1.611c-2.41,-0.992 -3.617,-1.203 -5.375,-0.939c-2.453,0.368 -3.058,-0.313 -1.172,-1.322c0.792,-0.424 2.119,-0.605 3.627,-0.553Zm83.028,306.989c-0.004,0.012 -0.006,0.02 -0.01,0.033l-0.561,1.831l4.525,0.812c0.072,0.013 0.165,0.026 0.238,0.039c-1.454,-0.889 -2.85,-1.795 -4.192,-2.715l0,0Z" style="fill-rule:nonzero;"/><path d="M245.405,344.909c0,10.092 -1.381,12.221 1.843,17.703c2.365,4.021 2.488,10.839 9.511,8.533c2.554,-0.838 7.677,-4.722 10.696,-5.784c7.518,-2.645 108.727,-61.605 129.317,-82.265c2.643,-2.652 4.851,-3.898 4.851,-3.898l-9.019,2.124c-38.129,26.434 -81.933,46.614 -129.103,62.136c0,0 -18.096,-8.641 -18.096,1.451Z"/><path id="path4275" d="M235.859,302.747l-3.581,11.904c2.087,0.02 7.873,-5.136 13.405,-5.454c61.557,-3.545 100.038,-0.325 149.81,-4.324c1.164,-0.094 3.012,-0.088 4.166,0.166c4.171,0.918 6.472,11.499 7.49,10.884c0.484,-11.303 -1.859,-15.313 -4.654,-18.158l-166.636,4.982Z"/></g></g><g id="gopher-face"><g id="g4818"><path id="path4812" d="M210.349,199.475c0.231,7.753 2.167,15.235 5.453,22.177c3.286,6.943 7.922,13.347 13.544,18.895c5.623,5.548 12.232,10.239 19.483,13.694c7.251,3.454 15.144,5.67 23.358,6.226c8.215,0.556 15.978,-0.608 23,-3.238c7.021,-2.629 13.3,-6.722 18.528,-11.969c5.228,-5.247 9.404,-11.647 12.212,-18.847c2.808,-7.201 4.247,-15.201 4.011,-23.61c-0.236,-8.41 -2.123,-16.426 -5.323,-23.661c-3.201,-7.236 -7.714,-13.69 -13.211,-19.031c-5.498,-5.341 -11.979,-9.569 -19.138,-12.419c-7.159,-2.851 -14.997,-4.327 -23.215,-4.213c-8.219,0.114 -16.041,1.799 -23.153,4.693c-7.112,2.895 -13.511,7.001 -18.857,12.028c-5.346,5.027 -9.638,10.977 -12.532,17.601c-2.895,6.623 -4.391,13.92 -4.16,21.674Z" style="fill:#394655;fill-rule:nonzero;"/><path id="ellipse4814" d="M214.393,197.704c-0.001,7.295 1.583,14.454 4.469,21.18c2.885,6.726 7.075,13.02 12.27,18.503c5.194,5.484 11.392,10.152 18.258,13.584c6.865,3.431 14.395,5.622 22.243,6.176c7.848,0.553 15.269,-0.584 21.971,-3.113c6.701,-2.53 12.685,-6.45 17.67,-11.438c4.985,-4.988 8.97,-11.045 11.669,-17.822c2.7,-6.777 4.112,-14.275 3.949,-22.116c-0.162,-7.842 -1.884,-15.279 -4.844,-21.971c-2.96,-6.692 -7.158,-12.64 -12.28,-17.568c-5.123,-4.929 -11.169,-8.839 -17.848,-11.517c-6.68,-2.679 -13.994,-4.13 -21.67,-4.17c-7.676,-0.039 -14.991,1.33 -21.657,3.803c-6.667,2.473 -12.685,6.054 -17.749,10.517c-5.065,4.462 -9.175,9.809 -12.021,15.858c-2.846,6.048 -4.429,12.798 -4.43,20.094Z" style="fill:#fff;fill-rule:nonzero;"/><circle id="path4828" cx="257.249" cy="198.409" r="16.171" style="fill:#394455;"/><circle id="circle4830" cx="264.406" cy="190.986" r="7.953" style="fill:#fff;"/></g><g id="g4822"><path id="path4824" d="M362.693,169.473c-0.153,6.137 1.098,12.768 2.967,19.62c1.868,6.853 4.296,13.938 6.752,20.71c2.456,6.771 4.945,13.198 7.645,18.691c2.7,5.492 5.654,10.049 9.3,13.318c3.645,3.27 7.675,4.965 12.023,5.333c4.348,0.369 9.793,1.12 14.451,-0.997c4.657,-2.117 9.251,-5.414 13.343,-9.786c4.092,-4.373 7.681,-9.822 10.315,-16.227c2.633,-6.405 4.056,-13.156 4.25,-19.86c0.195,-6.704 -0.839,-13.358 -3.038,-19.589c-2.198,-6.23 -7.18,-13.913 -11.542,-18.962c-4.361,-5.049 -9.725,-9.344 -15.817,-12.563c-6.093,-3.219 -12.326,-5.061 -18.228,-5.651c-5.902,-0.589 -11.474,0.075 -16.268,1.893c-4.794,1.817 -8.808,4.786 -11.617,8.817c-2.808,4.031 -4.382,9.116 -4.536,15.253Z" style="fill:#394655;fill-rule:nonzero;"/><path id="path4826" d="M365.385,170.197c-0.319,5.696 0.561,11.927 2.108,18.417c1.548,6.49 3.745,13.242 6.18,19.687c2.434,6.445 5.092,12.551 7.938,17.749c2.846,5.198 5.902,9.492 9.462,12.564c3.56,3.072 7.333,4.656 11.322,4.996c3.99,0.341 9.05,1.148 13.226,-0.843c4.175,-1.991 8.277,-5.084 11.922,-9.177c3.645,-4.093 6.831,-9.187 9.145,-15.164c2.314,-5.977 3.528,-12.268 3.626,-18.51c0.099,-6.242 -0.92,-12.433 -2.997,-18.235c-2.077,-5.802 -6.854,-13.126 -10.902,-17.841c-4.049,-4.716 -9.005,-8.737 -14.61,-11.768c-5.605,-3.032 -11.316,-4.788 -16.699,-5.391c-5.383,-0.603 -10.438,-0.051 -14.777,1.56c-4.34,1.612 -7.961,4.279 -10.537,7.943c-2.575,3.664 -4.089,8.317 -4.407,14.013Z" style="fill:#fff;fill-rule:nonzero;"/><path id="path4828-0" d="M411.727,185.208c-6.53,-2.088 -13.527,1.518 -15.616,8.048c-2.089,6.53 1.517,13.527 8.048,15.616c6.53,2.088 13.527,-1.518 15.616,-8.048c2.088,-6.53 -1.518,-13.527 -8.048,-15.616Z" style="fill:#394455;"/><path id="circle4830-3" d="M414.81,186.54c-3.211,-1.027 -6.653,0.747 -7.68,3.958c-1.027,3.212 0.747,6.653 3.958,7.68c3.212,1.028 6.653,-0.746 7.68,-3.957c1.027,-3.212 -0.746,-6.653 -3.958,-7.681Z" style="fill:#fff;"/></g></g><g id="gopher-mouth"><path id="rect4659" d="M355.197,246.318l-5.094,0.066l-2.969,-0.066c-0.947,-0.021 -1.791,0.429 -2.405,1.091c-0.615,0.663 -0.918,1.581 -1.061,2.582l-0.81,5.668l-1.126,5.689c-0.203,1.025 0.067,1.928 0.564,2.585c0.497,0.658 1.259,1.032 2.158,1.054l2.995,0.071l5.926,-0.138c1.136,-0.027 2.192,-0.468 2.966,-1.147c0.774,-0.678 1.232,-1.6 1.324,-2.607l0.518,-5.645l0.421,-5.636c0.074,-1.003 -0.374,-1.902 -1.003,-2.545c-0.63,-0.644 -1.486,-1.028 -2.404,-1.022l0,0Z" style="fill:#2e3436;fill-rule:nonzero;"/><path id="rect4661" d="M354.267,248.034l-4.158,0.056l-1.979,-0.082c-0.753,-0.03 -1.447,0.349 -1.969,0.892c-0.523,0.542 -0.828,1.294 -0.97,2.114l-0.802,4.635l-1.004,4.647c-0.179,0.829 0.002,1.576 0.392,2.113c0.39,0.537 1.013,0.827 1.759,0.857l2.033,0.081l4.709,-0.103c0.891,-0.019 1.74,-0.377 2.378,-0.931c0.639,-0.554 1.047,-1.308 1.152,-2.132l0.584,-4.616l0.504,-4.61c0.09,-0.822 -0.228,-1.558 -0.713,-2.085c-0.485,-0.527 -1.166,-0.846 -1.916,-0.836l0,0Z" style="fill:#fff;fill-rule:nonzero;"/><path id="ellipse4650" d="M331.084,241.511c0.142,1.818 1.261,3.462 2.852,4.942c1.591,1.48 3.789,2.792 6.334,3.867c2.545,1.075 5.416,1.902 8.324,2.343c2.908,0.442 5.854,0.491 8.75,0.142c2.895,-0.349 5.489,-1.044 7.74,-1.903c2.251,-0.859 4.143,-1.877 5.632,-3.007c1.49,-1.13 2.592,-2.382 3.287,-3.779c0.696,-1.397 0.984,-2.944 0.732,-4.611c-0.252,-1.666 -1.034,-3.291 -2.239,-4.785c-1.206,-1.493 -2.828,-2.852 -4.734,-3.984c-1.905,-1.131 -4.09,-2.033 -6.502,-2.625c-2.413,-0.591 -5.055,-0.873 -7.945,-0.777c-2.891,0.095 -5.775,0.555 -8.514,1.316c-2.738,0.761 -5.319,1.827 -7.471,3.128c-2.151,1.302 -3.919,2.803 -4.951,4.496c-1.057,1.734 -1.416,3.689 -1.295,5.237Z" style="fill:#394655;fill-rule:nonzero;"/><path id="ellipse4652" d="M337.203,241.103c0.248,1.444 1.093,2.792 2.39,4c1.296,1.208 3.044,2.277 5.029,3.131c1.986,0.854 4.2,1.485 6.457,1.817c2.258,0.331 4.561,0.362 6.826,0.086c2.264,-0.277 4.287,-0.824 6.042,-1.524c1.755,-0.7 3.236,-1.551 4.398,-2.5c1.161,-0.95 2.007,-2.002 2.505,-3.148c0.499,-1.145 0.652,-2.388 0.392,-3.704c-0.26,-1.316 -0.911,-2.58 -1.873,-3.734c-0.962,-1.153 -2.232,-2.195 -3.727,-3.057c-1.496,-0.861 -3.216,-1.543 -5.112,-1.984c-1.896,-0.441 -3.969,-0.642 -6.214,-0.549c-2.244,0.093 -4.458,0.469 -6.55,1.073c-2.091,0.605 -4.057,1.439 -5.717,2.45c-1.66,1.011 -3.007,2.2 -3.866,3.498c-0.858,1.298 -1.228,2.702 -0.98,4.145Z" style="fill:#e1d0cb;fill-rule:nonzero;"/><path id="path4648" d="M345.234,232.294c0.362,1.035 1.149,1.953 2.237,2.728c1.089,0.776 2.475,1.409 3.979,1.895c1.504,0.485 3.119,0.825 4.7,1.006c1.581,0.18 3.127,0.201 4.576,0.041c1.449,-0.16 2.672,-0.486 3.707,-0.939c1.035,-0.454 1.881,-1.035 2.549,-1.719c0.667,-0.684 1.156,-1.472 1.439,-2.346c0.284,-0.873 0.362,-1.832 0.169,-2.846c-0.192,-1.013 -0.64,-1.985 -1.319,-2.863c-0.678,-0.878 -1.586,-1.662 -2.684,-2.298c-1.097,-0.636 -2.384,-1.123 -3.814,-1.413c-1.429,-0.289 -3.001,-0.381 -4.658,-0.233c-1.657,0.149 -3.243,0.522 -4.677,1.064c-1.433,0.543 -2.715,1.256 -3.753,2.082c-1.038,0.826 -1.831,1.767 -2.275,2.762c-0.445,0.995 -0.538,2.045 -0.176,3.079l0,0Z" style="fill:#394655;fill-rule:nonzero;"/></g><g id="cape-front"><path id="path4248" d="M173.625,289.671c-7.278,17.087 -12.238,23.258 -24.218,35.87c-9.202,9.688 -23.081,19.573 -35.049,31.694c-10.842,10.98 -20.899,16.803 -51.378,25.609c-9.579,2.767 -35.225,5.24 -41.178,29.841c20.276,-13.508 47.625,-17.833 74.166,-22.404c22.014,-3.791 32.895,-29.354 50.277,-36.934c30.922,-13.486 45.536,-16.021 59.45,-25.711c6.179,-4.303 16.614,-10.54 22,-17.078c8.226,-9.986 23.143,-4.299 29.247,-7.769c-57.159,-0.534 -73.145,-4.651 -83.317,-13.118Z" style="fill:#13172b;"/><path id="path4265" d="M351.757,299.338l59.02,-4.081c0,0 1.834,0.837 2.149,1.692c5.891,15.985 -10.177,48.675 -10.177,48.675c0,-2.377 10.825,-35.156 -4.732,-42.772c-13.157,-6.442 -30.529,-1.655 -46.26,-3.514Z" style="fill:#121629;"/><path id="path4280" d="M173.047,290.997c-6.967,16.068 -11.982,22.271 -23.64,34.544c-9.202,9.687 -23.08,19.573 -35.049,31.693c-10.842,10.981 -20.898,16.804 -51.378,25.61c-8.505,2.457 -29.662,4.695 -38.47,22.381c2.185,-2.79 5.765,-3.901 7.905,-6.96c3.606,-5.155 54.514,-5.78 66.393,-13.342c7.817,-4.976 29.368,-27.273 38.546,-33.435c9.177,-6.162 37.324,-17.104 45.174,-18.549c24.793,-4.562 38.516,-30.717 38.516,-30.717c0,0 -4.615,-1.073 -5.843,-1.358c-21.173,-1.579 -31.659,-4.466 -38.639,-9.025c-1.424,-0.339 -3.03,-0.718 -3.515,-0.842Z" style="fill:#0c0c0c;"/><path id="path4267" d="M173.831,285.978c3.943,0.988 6.061,4.192 9.919,5.47c11.865,3.93 22.577,6.512 35.043,7.416c15.349,1.114 32.079,1.202 47.466,0.928c29.305,-0.523 58.795,-1.54 88.07,-2.967c15.961,-0.778 32.467,-1.832 48.393,-3.152c3.095,-0.257 6.38,-4.845 9.27,-3.708c1.916,0.753 1.609,2.639 2.113,4.635c1.952,3.945 0.116,5.316 -4.523,6.119c-15.552,2.442 -31.367,2.846 -47.095,3.522c-38.409,1.651 -76.883,1.693 -115.326,1.298c-13.603,-0.14 -27.295,0.419 -40.79,-1.298c-10.621,-1.35 -21.524,-2.761 -31.335,-7.045c-3.299,-1.441 -6.396,-2.183 -7.178,-5.697c-0.246,-1.105 0.955,-1.742 1.505,-2.64c0.46,-0.75 0.171,-1.808 0.991,-2.278c1.073,-0.615 2.278,-0.903 3.477,-0.603Z" style="fill:#13172b;"/><path id="path4340" d="M169.846,287.202c-0.198,0.511 -0.173,1.152 -0.483,1.657c-0.55,0.898 -1.751,1.535 -1.505,2.64c0.783,3.513 3.879,4.256 7.179,5.696c9.81,4.285 20.714,5.695 31.334,7.046c13.495,1.716 27.187,1.158 40.791,1.298c38.442,0.395 76.917,0.353 115.326,-1.298c15.728,-0.676 31.542,-1.08 47.094,-3.522c4.639,-0.803 6.476,-2.174 4.523,-6.119c-0.044,-0.176 -0.077,-0.35 -0.111,-0.523c0.389,3.719 -5.332,3.923 -9.5,4.737c-26.913,5.261 -54.785,2.835 -82.204,3.277c-34.303,0.552 -74.679,5.216 -108.457,-0.786c-14.232,-2.529 -35.123,-8.138 -43.987,-14.103Z" style="fill:#0c0c0c;"/></g><g><path id="sword" d="M402.956,261.978l-125.93,88.241l-6.369,-9.864l130.391,-81.021c4.004,-1.957 5.088,-2.07 1.908,2.644Z" style="fill:#d0d0d0;fill-rule:nonzero;"/><clipPath id="_clip2"><path d="M402.956,261.978l-125.93,88.241l-6.369,-9.864l130.391,-81.021c4.004,-1.957 5.088,-2.07 1.908,2.644Z" clip-rule="nonzero"/></clipPath><g clip-path="url(#_clip2)"><path d="M238.033,371.291l177.94,-119.317l-5.992,10.713l-164.497,112.227l-7.451,-3.623Z" style="fill:#5a5a5a;"/></g><path d="M402.956,261.978l-125.93,88.241l-6.369,-9.864l130.391,-81.021c4.004,-1.957 5.088,-2.07 1.908,2.644Z" style="fill:none;stroke:#2b2b2b;stroke-width:1px;stroke-linecap:butt;stroke-miterlimit:1.41421;"/><path d="M273.058,347.431l-19.766,13.016l-1.881,-2.856l19.766,-13.015c0.627,0.952 1.254,1.904 1.881,2.855Z" style="fill:#5a5a5a;fill-rule:nonzero;stroke:#2b2b2b;stroke-width:0.57px;stroke-linecap:butt;stroke-miterlimit:1.41421;"/></g><g id="g4533"><path id="ellipse4523" d="M250.027,334.655c-1.507,1.573 -2.327,3.041 -2.598,4.442c-0.272,1.401 -0.002,2.74 0.562,4.112c0.564,1.371 1.409,2.784 2.346,4.26c0.936,1.476 1.974,3.002 3.03,4.519c1.057,1.517 2.148,2.869 3.253,4.006c1.106,1.137 2.217,2.067 3.32,2.698c1.104,0.632 2.203,0.959 3.307,0.845c1.104,-0.114 2.216,-0.673 3.316,-1.785c1.1,-1.112 1.652,-2.235 1.76,-3.338c0.109,-1.102 -0.229,-2.18 -0.87,-3.252c-0.641,-1.072 -1.584,-2.136 -2.628,-3.306c-1.044,-1.17 -2.179,-2.458 -3.225,-3.999c-1.045,-1.541 -1.836,-3.362 -2.584,-5.092c-0.748,-1.731 -1.463,-3.356 -2.285,-4.52c-0.821,-1.165 -1.746,-1.866 -2.843,-1.864c-1.096,0.003 -2.354,0.701 -3.861,2.274l0,0Z" style="fill:#e1d6b9;fill-rule:nonzero;"/><path id="path4521" d="M257.221,333.108c0.864,1.025 1.658,2.425 2.468,3.982c0.925,1.78 1.873,3.752 3.08,5.526c1.206,1.774 2.469,3.286 3.606,4.687c1.138,1.401 2.134,2.708 2.784,4.035c0.651,1.327 0.953,2.672 0.785,4.015c-0.168,1.342 -0.799,2.674 -1.969,3.928c-1.17,1.254 -2.439,1.917 -3.748,2.087c-1.308,0.17 -2.66,-0.149 -4.024,-0.819c-1.363,-0.671 -2.743,-1.687 -4.093,-2.952c-1.351,-1.265 -2.662,-2.79 -3.884,-4.531c-1.221,-1.74 -2.345,-3.447 -3.322,-5.065c-0.977,-1.618 -1.813,-3.14 -2.321,-4.62c-0.193,-0.563 -0.335,-1.123 -0.42,-1.682c-0.171,-1.129 1.648,-2.771 1.579,-1.595c-0.064,1.09 0.181,2.153 0.626,3.235c0.543,1.319 1.357,2.678 2.257,4.098c0.901,1.42 1.899,2.887 2.915,4.346c1.016,1.459 2.065,2.76 3.128,3.853c1.064,1.094 2.132,1.988 3.194,2.596c1.061,0.607 2.119,0.921 3.181,0.812c1.062,-0.11 2.13,-0.646 3.188,-1.716c1.058,-1.07 1.59,-2.151 1.694,-3.211c0.104,-1.061 -0.221,-2.097 -0.837,-3.128c-0.617,-1.031 -1.523,-2.055 -2.528,-3.18c-1.004,-1.125 -2.096,-2.364 -3.101,-3.846c-1.005,-1.482 -1.767,-3.233 -2.486,-4.898c-0.72,-1.664 -1.408,-3.227 -2.198,-4.347c-0.099,-0.14 -0.199,-0.273 -0.301,-0.399c-0.262,-0.323 -0.528,-0.605 -0.822,-0.813c-0.338,-0.239 0.453,-1.661 1.195,-0.814c0.12,0.137 0.251,0.269 0.374,0.416l0,0Z" style="fill:#394655;fill-rule:nonzero;"/></g><g><path d="M263.919,345.036c-0.3,0.117 -0.599,0.236 -0.898,0.355c-3.36,0.697 -6.771,2.038 -10.271,3.806c-3.033,1.594 -4.108,7.236 0.05,7.652l-0.001,0.656l-0.005,1.943c-3.937,-0.138 -5.911,-3.239 -5.679,-7.025c0.148,-2.414 2.202,-4.752 4.462,-6.119c2.507,-1.516 7.693,-2.431 11.247,-3.368l0.238,-0.093c0.285,0.731 0.571,1.462 0.857,2.193Z" style="fill:#5a5a5a;fill-rule:nonzero;"/><clipPath id="_clip3"><path d="M263.919,345.036c-0.3,0.117 -0.599,0.236 -0.898,0.355c-3.36,0.697 -6.771,2.038 -10.271,3.806c-3.033,1.594 -4.108,7.236 0.05,7.652l-0.001,0.656l-0.005,1.943c-3.937,-0.138 -5.911,-3.239 -5.679,-7.025c0.148,-2.414 2.202,-4.752 4.462,-6.119c2.507,-1.516 7.693,-2.431 11.247,-3.368l0.238,-0.093c0.285,0.731 0.571,1.462 0.857,2.193Z" clip-rule="nonzero"/></clipPath><g clip-path="url(#_clip3)"><path d="M249.108,356.53c-2.342,-3.769 -0.911,-8.209 5.114,-10.171c7.43,-2.419 14.62,-1.168 14.62,-1.168l-3.036,-7.426l-23.821,7.24l1.775,10.742c0.086,0.111 8.827,8.275 7.875,4.062c-0.17,-0.754 -1.452,-1.549 -2.527,-3.279Z" style="fill:#d0d0d0;"/></g><path d="M263.919,345.036c-0.3,0.117 -0.599,0.236 -0.898,0.355c-3.36,0.697 -6.771,2.038 -10.271,3.806c-3.033,1.594 -4.108,7.236 0.05,7.652l-0.001,0.656l-0.005,1.943c-3.937,-0.138 -5.911,-3.239 -5.679,-7.025c0.148,-2.414 2.202,-4.752 4.462,-6.119c2.507,-1.516 7.693,-2.431 11.247,-3.368l0.238,-0.093c0.285,0.731 0.571,1.462 0.857,2.193Z" style="fill:none;stroke:#2b2b2b;stroke-width:0.57px;stroke-linecap:butt;stroke-miterlimit:1.41421;"/><path d="M254.458,359.516c-1.052,1.072 -4.716,4.801 2.1,6.478c3.815,0.939 8.394,1.066 11.132,-1.748c0,0 1.743,1.584 1.743,1.584c-5.369,5.764 -18.817,3.659 -19.096,-2.617c-0.091,-2.025 1.061,-3.904 2.401,-5.307c0,0 1.052,0.953 1.72,1.61Z" style="fill:#5a5a5a;fill-rule:nonzero;"/><clipPath id="_clip4"><path d="M254.458,359.516c-1.052,1.072 -4.716,4.801 2.1,6.478c3.815,0.939 8.394,1.066 11.132,-1.748c0,0 1.743,1.584 1.743,1.584c-5.369,5.764 -18.817,3.659 -19.096,-2.617c-0.091,-2.025 1.061,-3.904 2.401,-5.307c0,0 1.052,0.953 1.72,1.61Z" clip-rule="nonzero"/></clipPath><g clip-path="url(#_clip4)"><path d="M252.545,359.554c-1.518,4.671 -0.237,6.206 3.62,7.531c5.605,1.927 11.093,-0.759 11.093,-0.759c0,0 0.7,-4.378 -0.292,-4.32c-0.993,0.058 -12.903,-7.123 -14.421,-2.452Z" style="fill:#d0d0d0;"/></g><path d="M254.458,359.516c-1.052,1.072 -4.716,4.801 2.1,6.478c3.815,0.939 8.394,1.066 11.132,-1.748c0,0 1.743,1.584 1.743,1.584c-5.369,5.764 -18.817,3.659 -19.096,-2.617c-0.091,-2.025 1.061,-3.904 2.401,-5.307c0,0 1.052,0.953 1.72,1.61Z" style="fill:none;stroke:#2b2b2b;stroke-width:0.57px;stroke-linecap:butt;stroke-miterlimit:1.41421;"/><path d="M250.465,356.981c1.172,-0.668 2.724,-0.158 3.464,1.139c0.741,1.297 0.39,2.893 -0.781,3.561c-1.172,0.669 -2.724,0.159 -3.464,-1.138c-0.74,-1.297 -0.39,-2.893 0.781,-3.562Z" style="fill:#5a5a5a;"/><clipPath id="_clip5"><path d="M250.465,356.981c1.172,-0.668 2.724,-0.158 3.464,1.139c0.741,1.297 0.39,2.893 -0.781,3.561c-1.172,0.669 -2.724,0.159 -3.464,-1.138c-0.74,-1.297 -0.39,-2.893 0.781,-3.562Z"/></clipPath><g clip-path="url(#_clip5)"><path d="M252.143,357.737c-1.046,-0.09 -1.584,0.326 -0.927,1.016c0.64,0.672 2.096,1.362 2.122,0.897c0.028,-0.478 -0.149,-1.823 -1.195,-1.913Z" style="fill:#d0d0d0;"/></g><path d="M250.465,356.981c1.172,-0.668 2.724,-0.158 3.464,1.139c0.741,1.297 0.39,2.893 -0.781,3.561c-1.172,0.669 -2.724,0.159 -3.464,-1.138c-0.74,-1.297 -0.39,-2.893 0.781,-3.562Z" style="fill:none;stroke:#2b2b2b;stroke-width:0.57px;stroke-linecap:butt;"/><path d="M264.977,335.327c0.322,2.999 0.094,6.956 -2.559,8.543c3.022,2.207 6.282,5.769 5.827,11.307c-4.121,3.847 -4.174,8.582 -3.739,13.424l11.215,-4.078c2.023,-3.998 4.413,-7.728 3.399,-13.934l-9.045,-12.713c-2.688,-2.412 -4.072,-2.764 -5.098,-2.549Z" style="fill:#d0d0d0;"/><clipPath id="_clip6"><path d="M264.977,335.327c0.322,2.999 0.094,6.956 -2.559,8.543c3.022,2.207 6.282,5.769 5.827,11.307c-4.121,3.847 -4.174,8.582 -3.739,13.424l11.215,-4.078c2.023,-3.998 4.413,-7.728 3.399,-13.934l-9.045,-12.713c-2.688,-2.412 -4.072,-2.764 -5.098,-2.549Z"/></clipPath><g clip-path="url(#_clip6)"><path d="M274.836,344.568c-0.782,8.129 2.176,11.087 -0.956,14.306c-3.132,3.219 -7.569,2.001 -9.135,5.307c-1.566,3.306 -1.827,7.221 -1.827,7.221l23.751,-0.174l-1.827,-20.967c0,0 -9.224,-13.822 -10.006,-5.693Z" style="fill:#5a5a5a;"/></g><path d="M264.977,335.327c0.322,2.999 0.094,6.956 -2.559,8.543c3.022,2.207 6.282,5.769 5.827,11.307c-4.121,3.847 -4.174,8.582 -3.739,13.424l11.215,-4.078c2.023,-3.998 4.413,-7.728 3.399,-13.934l-9.045,-12.713c-2.688,-2.412 -4.072,-2.764 -5.098,-2.549Z" style="fill:none;stroke:#2b2b2b;stroke-width:1.29px;stroke-linecap:butt;"/></g><g id="hat-front"><path d="M280.41,99.535c-1.855,0.412 -77.411,20.606 -97.918,13.397c-7.289,-2.562 11.023,10.837 18.674,21.993c0.46,0.67 1.646,0.02 2.495,-0.033c10.684,-0.67 23.991,-7.679 30.641,-8.583c54.4,-7.39 96.979,-3.067 128.484,11.233c1.707,0.775 29.523,-13.414 30.59,-13.841c16.861,-6.744 26.415,-24.447 14.894,-26.414c-11.522,-1.968 -125.331,1.686 -127.86,2.248Z" style="fill:#0c0c0c;"/></g><path d="M159.247,168.12c0,0 7.038,-43.632 43.013,-49.466c35.975,-5.834 82.159,-12.057 110.842,-7.195c28.683,4.861 40.856,7.74 40.856,7.74c0,0 40.493,9.058 71.475,34.919c11.351,9.474 20.291,30.264 20.291,41.445c0,11.182 -7.875,40.059 -20.029,47.837c-12.154,7.779 -35.025,8.069 -39.67,4.376c-8.07,-6.417 -22.46,-12.349 -29.753,-11.862c-7.292,0.486 -34.516,14.098 -42.295,16.043c-7.778,1.944 -24.6,7.534 -47.156,9.237c-25.766,1.944 -57.366,-11.182 -67.089,-16.043c-9.723,-4.862 -27.711,-31.6 -27.711,-31.6l-17.987,-7.779l5.213,-37.652Zm58.234,18.154c29.233,-18.217 97.704,-5.606 108.801,8.07c0,0 -6.656,16.287 -25.96,27.128c-35.361,19.856 -89.166,-23.448 -82.841,-35.198Zm217.932,-5.389c-14.343,-12.755 -56.914,0.6 -64.308,15.307c0,0 17.317,20.141 32.99,20.126c31.432,-0.029 33.849,-27.719 31.318,-35.433Z" style="fill:#0c0c0c;"/></svg>